<?xml version="1.0" encoding="UTF-8" standalone="no"?>
<!-- Created with Inkscape (http://www.inkscape.org/) -->

<svg
   xmlns:svg="http://www.w3.org/2000/svg"
   xmlns="http://www.w3.org/2000/svg"
   version="1.1"
   width="100%"
   height="100%"
   viewBox="0 0 1431 1710"
   id="Layer_1"
   xml:space="preserve"><defs
   id="defs7" />
<path
   d="m 139,0 c 1.3,0 2.7,0 4,0 8.7,4.5 17.5,9 26.2,13.7 14.9,8 29.8,15.9 44.6,24.1 5.1,2.8 9.6,6.6 14.8,9 12.4,5.8 25.1,10.9 37.6,16.4 14.3,6.3 28.8,12.2 42.6,19.4 24.2,12.7 48.3,25.8 71.9,39.6 23.5,13.7 46.5,28.4 69.4,43 10.5,6.6 20.8,13.6 30.4,21.4 16.3,13.2 32.3,26.8 48,40.7 15.5,13.6 30.4,27.7 45.7,41.5 1.7,1.5 4.1,2.3 6.3,3.6 -0.1,0.1 -0.7,0.8 -1.6,1.7 4.1,4 8.4,7.8 12.4,12 10.7,11.2 21.3,22.5 31.8,33.8 8.3,8.9 17.2,17.5 24.4,27.2 8,10.8 14.9,22.5 21.2,34.4 8.9,16.9 15.6,34.7 12.9,54.3 -1.8,12.8 -6.3,24.5 -18,32 -1.6,1 -3.3,3.1 -3.5,4.9 -0.7,8.4 -2.5,17.1 -0.9,25.2 3.6,18.5 8.6,36.7 13.7,54.9 5.2,18.6 8.1,37.6 10.9,56.7 1.1,7.3 2.7,8 8.5,3.7 0.2,-0.1 0.6,0.1 1.4,0.2 0.4,4 -0.1,8.5 1.5,12.1 4.8,10.9 6.7,22.4 8.9,34 2.9,15.7 6.4,31.3 9.7,47 2.5,11.6 4.4,23.4 7.8,34.8 6,20 12.6,39.8 19.7,59.4 2.5,6.9 5,14.2 11.2,19.2 2.9,-9.1 5.3,-18 8.5,-26.7 2.9,-7.9 4.6,-15.7 4,-24.2 -1,-13.6 -1.5,-27.3 -2,-41 -0.2,-5 0.4,-9.9 0.4,-14.9 0,-2.4 0.7,-5.1 -3.3,-6.3 -2.5,-0.7 -4.9,-3.6 -6.1,-6.1 -2.6,-5.4 -7.3,-7.2 -12.3,-7.5 -8.2,-0.4 -14.4,-4.9 -19.5,-10.1 -13.2,-13.6 -18.5,-30.9 -19.1,-49.5 -0.3,-10 0.6,-20.1 2.2,-30 1.4,-9.3 3.4,-18.9 6.9,-27.6 8.1,-19.8 16.8,-39.4 26.2,-58.6 C 749,495.6 760,474 771.8,453 c 9.6,-17.2 20.3,-33.8 31.4,-50.2 13.4,-19.9 27.5,-39.4 41.6,-58.8 2.3,-3.2 3.2,-6.2 3.3,-9.9 0.2,-11.8 0.5,-23.5 1,-35.3 0.2,-4.7 0.8,-9.5 1.7,-14.1 1.6,-8.5 3.2,-17 5.3,-25.3 1.7,-6.6 4.2,-13 6.5,-19.3 0.5,-1.3 2.1,-2.3 3.8,-4.2 0.9,4.3 1.5,7.3 2.1,10.2 0.5,-10.7 0.1,-21.4 0.6,-32 0.4,-7.6 1.2,-15.5 3.4,-22.7 2.5,-8 6.7,-15.4 10.4,-23 0.7,-1.4 2.8,-3.3 3.9,-3.1 1.8,0.4 4.2,2 4.7,3.6 1.1,3.3 1.1,6.9 1.5,10.5 -1.4,-0.1 -2.2,-0.1 -4.2,-0.2 2.6,1.6 4.1,2.5 6.1,3.7 -0.4,-2.6 -0.7,-4.4 -0.9,-6.3 0.3,-0.1 0.5,-0.1 0.8,-0.2 0.5,1.3 1,2.6 2.1,5.4 0.3,-3.4 1,-5.5 0.6,-7.3 -1.1,-4.9 -2.9,-9.6 -4.2,-14.5 -1.7,-6.7 -3.7,-13.5 2.6,-20 0.7,1.3 1.5,2.3 1.8,3.5 0.9,3.1 1.2,6.5 2.5,9.4 8.6,18.1 8.5,36.3 1.7,54.8 -2.1,5.8 -5.4,11.6 -1.9,18.2 2.4,-2.5 4.8,-5.3 7.4,-7.9 1.1,-1.2 2.5,-2.1 3.9,-3 2.1,-1.4 5.4,-2.2 6.2,-4.1 1.8,-4.1 2.1,-8.8 3.3,-13.2 3.4,-11.8 4.2,-24.6 11.7,-34.9 3.7,-5 8,-9.6 12.3,-14.2 0.6,-0.7 2.2,-0.5 3.3,-0.7 0,0.7 0.2,1.5 -0.1,2.1 -3.3,6.7 -7.1,13.2 -9.8,20.1 -4.8,12 -9,24.2 -13.4,36.3 0.3,0.2 0.6,0.4 0.8,0.6 6.5,-6.3 13.1,-12.6 20.5,-19.8 0.2,3.8 1,6.6 0.4,8.9 -2,6.5 -4.7,12.8 -6.9,19.3 -0.6,1.9 -0.5,4 -0.7,6 4.8,-6.9 5.8,-15.8 15.6,-19.6 -0.7,6.8 -1.4,12.7 -2,18.6 0.6,0.4 1.1,0.8 1.7,1.2 1,-1.5 1.8,-3.3 3,-4.6 12.9,-14 25.7,-28.1 38.9,-41.8 19.9,-20.8 40.7,-40.6 63.3,-58.4 12,-9.5 24,-19.1 36.3,-28.2 12,-8.8 24.4,-17 36.5,-25.5 5.6,-4 10.9,-8.3 16.3,-12.5 0,0.3 0.2,0.8 0.1,1.3 -2.6,12.2 -5.4,24.5 -7.9,36.7 -3,14.8 -5.4,29.7 -8.7,44.4 -4.5,20.1 -9.4,40.1 -14.4,60 -0.9,3.4 -0.7,5.3 2.7,5 -1.8,2.5 -4.8,4.8 -5.5,7.7 -4.7,19.5 -8.8,39.1 -13.4,58.6 -4.7,19.7 -9.9,39.3 -14.7,59 -5.5,22.3 -10.7,44.6 -16.2,66.9 -4,16.1 -8.4,32.1 -12.8,48.1 -2.8,10 -5.5,20.1 -8.9,29.9 -4.1,12.2 -8.6,24.2 -13.4,36.2 -6.9,17.2 -13.9,34.4 -21.3,51.4 -4.2,9.7 -9.5,18.9 -14.1,28.4 -2.2,4.4 -3.8,9.2 -6.2,13.5 -4.1,7.2 -8.7,14 -13,21 -4.3,7 -8.1,14.3 -12.8,20.9 -8.3,11.6 -17.1,22.8 -25.7,34.2 -10,13.2 -21.7,24.6 -35.3,34.1 -8.4,5.9 -16.7,12.2 -26,16.4 -9,4 -18.9,6.7 -28.7,8 -10,1.4 -20.5,1.4 -30.5,0 -5.5,-0.7 -10.8,-5 -15.4,-8.6 -4.2,-3.2 -8.6,-5.1 -13.2,-3.5 -2.1,0.7 -2.8,5.2 -4.1,8.1 -0.6,1.4 -1,2.9 -1.4,4.4 -4.2,13.8 -8.5,27.6 -12.6,41.4 -1.2,4 -3,8.1 -3.1,12.2 -0.1,6.5 1.7,13.1 1.6,19.6 -0.6,39.3 2.8,78.8 -4,117.8 -1.9,10.8 -4.1,21.9 -8.6,31.8 -3.4,7.4 -6.3,13.7 -5.6,22.4 1.7,21.7 1.7,43.5 2.3,65.2 0.4,16.6 0.9,33.2 1,49.8 0.1,23.6 0,47.3 -0.5,70.9 -0.4,20 -1.6,40 -2.4,60 -0.1,2.7 -0.4,5.5 -0.6,8.2 -0.4,5.6 -0.9,11.2 -1.3,16.8 4,-12.5 7.3,-25.1 10,-37.8 2.6,-12.3 4.8,-24.6 6.9,-37 1.7,-10.2 2.9,-20.4 4.1,-30.7 0.9,-8 1.3,-16.1 2.1,-24.1 1.6,-15.8 3.4,-31.7 4.9,-47.5 1,-10.7 1.5,-21.4 2,-32.1 0.8,-18.3 1.5,-36.6 2,-54.8 0.5,-15.3 0.7,-30.6 1,-45.9 0,-1 0.4,-1.9 0.5,-2.9 0.1,-7.9 0.3,-15.8 0.2,-23.6 0,-3.3 -0.7,-6.7 -1,-10 0.5,0 0.9,0 1.4,-0.1 0,2.6 0,5.2 0,7.8 0.2,0 0.3,0.1 0.5,0.1 0.3,-1 0.6,-2.1 0.5,-1.7 3.4,-1.7 5.9,-2.8 8.3,-4 0.1,2 0.3,4.2 0.5,7.7 2,-2.2 3.2,-4 4.8,-5.2 10.7,-8 18.5,-18.6 25.4,-29.6 9.6,-15.3 17.7,-31.5 27,-47.1 7.6,-12.8 15.5,-25.4 23.9,-37.5 7,-10.1 15.2,-19.3 22.7,-29 8.9,-11.4 20.4,-20 31.7,-28.8 6,-4.7 11.7,-9.9 17.2,-15.2 2,-2 3,-5 4.4,-7.6 2.2,-4.3 4,-8.8 6.5,-12.9 3.5,-5.6 6.2,-11 3.7,-17.9 -1.5,-4.1 -1,-8.4 1.4,-12.3 3.5,-5.6 6.8,-11.4 10.9,-16.5 4.4,-5.5 10.9,-8 17.7,-7.3 11.9,1.3 23.3,5.1 33.2,12.2 3.2,2.3 5.5,1.9 8.6,0.7 3.5,-1.3 7.2,-2.4 10.9,-3.1 17.8,-3.1 34.9,0.3 51.7,6 11.2,3.8 22.1,8.6 33.1,12.9 9.5,3.7 19.7,6.4 28.5,11.4 15.7,8.9 31.1,18.5 45.9,28.9 18.6,13.1 36.9,26.6 54.4,41.1 13.9,11.5 26.7,24.6 39.6,37.3 14.3,14.1 26.4,30.1 37.2,47 12,18.9 21.6,39 31,59.3 12.9,27.9 22.6,56.9 29.9,86.7 3.1,12.8 6.4,25.5 10,38.2 2.7,9.5 6.2,18.9 8.9,28.4 2.6,9.1 4.8,18.3 6.8,27.5 1.7,7.5 2.9,15 4.2,22.6 0.8,4.3 1.4,8.5 2,12.8 0,9.7 0,19.3 0,29 -5,12.1 -14.7,25.4 -22.1,29.6 0.2,-4.9 -0.3,-9.4 0.8,-13.6 2.7,-11.1 6,-22.1 8.9,-33.1 0.4,-1.4 0.1,-3.5 -0.8,-4.5 -5,-5.7 -9.8,-11.6 -15.5,-16.5 -19.7,-16.7 -44.2,-25.8 -65.6,-40 -12.6,-8.4 -25.3,-16.7 -37.6,-25.5 -9,-6.5 -17.5,-13.7 -26.1,-20.6 -7.9,4 -15.4,8.1 -23.1,11.6 -8.5,3.9 -17.5,7.1 -26,11.1 -16.5,7.8 -32.9,15.9 -49.2,24.1 -17.3,8.7 -34.9,16.7 -53.2,22.8 -14.8,5 -30,8.9 -45.2,12.3 -16.2,3.6 -32.6,6.8 -49.1,9 -16.6,2.2 -33.4,3.3 -50.2,4 -10,0.4 -20,-1.3 -30,-1.7 -15.8,-0.6 -31,-3.8 -44.7,-12 -8.5,-5.1 -16.4,-11.7 -18.2,-21.6 -1.3,-7.4 -4.4,-11.9 -11.4,-16 -1,1.3 -2.1,3 -3.4,4.5 -9.8,12.1 -14.6,26.7 -21.5,40.3 -5.2,10.4 -10.1,20.9 -15.3,31.2 -2.2,4.5 -5.3,8 -5.1,14 0.3,8.9 -1.7,17.9 -2.6,26.9 -1.7,16.3 -3.2,32.7 -5,49 -1.1,9.7 -2.5,19.5 -4.3,29.1 -2.3,11.8 -4.6,23.7 -7.8,35.3 -5.4,19.2 -11.2,38.4 -17.6,57.3 -8,23.3 -16.9,46.4 -25.2,69.6 -4.1,11.3 -7.8,22.7 -11.6,34.1 0.5,2.2 1.1,4.6 0.4,6.4 -1.2,2.9 -3.3,5.4 -4.5,7.4 4.2,5.4 7.7,9.9 11.4,14.3 1.5,1.8 3.1,3.8 5.1,4.7 7.8,3.6 15.7,6.8 23.7,10.1 0.8,-1.9 1.8,-4.2 2.7,-6.5 0.5,0 1,0 1.5,0 -5.4,9.9 -0.3,16 7,22.4 2,-2.7 4,-5 5.4,-7.5 1.4,-2.6 2.1,-5.6 3.1,-8.4 0.5,0.2 1,0.4 1.5,0.6 -2.5,5.5 -5.1,11 -7.5,16.3 4.6,2.3 9.3,5.8 14.5,7 9.9,2.2 19.8,2.8 29.3,-2.9 9.6,-5.8 15.8,-13.1 15.3,-24.9 -0.3,-7.3 -0.8,-14.5 -1,-21.8 -0.2,-7.3 -3.6,-12.1 -10.4,-14.4 -0.5,-0.2 -0.9,-0.9 -1.8,-1.8 2.4,0.2 4.1,0.3 5.9,0.4 -1,-4.7 -1.3,-9.8 -3.3,-14 -2.6,-5.5 -5.9,-10.6 -12,-13.8 -8,-4.1 -9.1,-4.1 -13.3,3.8 -1,1.8 -2.6,3.3 -3.9,4.9 1,-3.1 2.4,-5.7 4.2,-8 1.7,-2.2 3.9,-4.2 5.3,-5.7 -0.9,-3.4 -2.2,-6.9 -2.6,-10.5 -1.4,-11.3 -9,-19.3 -20.5,-21.2 -0.8,-0.1 -1.5,-0.7 -2.3,-0.8 -2.2,-0.4 -4.5,-0.6 -6.7,-0.9 0.1,-0.2 0.8,-1.3 1.5,-2.4 -6.6,-7.4 -9.3,-12.4 -9.9,-21.6 -0.4,-6.6 0.1,-13.3 6,-18 2.6,-2.1 4.9,-4.6 7.1,-6.7 -0.1,2.3 -0.6,4.7 -3.8,6.7 -2.6,1.6 -5.5,4.3 -6.3,7 -1.3,4.3 -1.4,9.1 -1.2,13.7 0.5,8.4 9.9,17.7 18.3,19.2 5.5,1 10.5,2.9 13.8,8.3 3.4,5.6 6.5,11 6.9,17.7 0.1,2.3 1.6,5.2 3.4,6.7 5.1,4.5 10.8,8.5 16.5,13 2.3,-2.5 4.7,-5.1 7.1,-7.7 -0.9,2.6 -2.1,5.2 -4.1,6.7 -2.1,1.6 -2,2.6 -1.3,4.9 1.8,5.7 2.7,11.7 4.4,17.4 0.8,2.6 0.9,6.5 4.7,5.4 3.2,17.2 5.9,34.2 -0.4,51.3 6.5,2.2 7.7,8 9.2,13.7 -1.6,-2.2 -2.5,-4.8 -3.9,-7.1 -1.4,-2.2 -3.5,-4 -5.4,-6.2 -10.8,11 -22.8,16 -37.6,14.9 -8,-0.6 -14.5,-4.3 -21.5,-7.2 -2.6,-1.1 -5.2,-1.7 -6.3,1.1 -0.5,1.2 0.7,4.2 2,5.1 3.9,2.5 4.9,7.6 9.7,9.8 2.5,1.2 2.9,6.7 4,9.6 4.7,0 8.2,0 11.8,0 0,0.5 0,1 0,1.5 -3.4,0 -6.8,0 -10.2,0 3.7,9 10.1,14.4 16.8,19.8 4.8,3.9 11.4,8.5 7.2,17.5 3.1,-0.6 6,-0.4 8.1,-1.7 3.3,-2 6.3,-2.8 10,-1.9 1.4,0.3 3.5,-0.6 4.8,-1.5 4.4,-3 8.7,-6.3 13,-9.4 0.1,0.2 0.3,0.4 0.4,0.7 -4.5,4 -8.9,7.9 -13.6,12.1 -0.4,-0.1 -1.9,-0.8 -3.3,-0.6 -6.8,1 -13.6,2.3 -20.4,3.5 -0.4,0.1 -0.8,0.6 -1,1 -1.5,2.9 -2.9,5.9 -4.4,8.9 0.3,0.5 0.6,1 0.9,1.5 5.5,-1.3 11,-2.6 16.5,-3.9 1.9,-0.5 3.8,-1.6 5.5,-1.5 5.6,0.6 11.2,1.7 16.8,2.6 -4.3,0.5 -8.8,0.9 -13,-0.1 -4.3,-1 -8,-0.5 -11.6,1.6 -1.2,0.7 -2.7,1.3 -4,1.4 -12.7,0.7 -12.9,0.6 -11.7,13.3 0.2,2 2.8,5.5 4.3,5.5 5.2,-0.1 11.4,0.1 15.4,-2.6 8.3,-5.5 16.6,-8.6 26.6,-8.2 10.1,0.4 20.3,1.8 30.1,-2.1 6,-2.4 11.4,0.3 14.9,1.6 -5.8,0.4 -13.2,1 -20.7,1.5 -5,0.4 -9.9,0.9 -14.9,0.9 -4.4,0 -8.9,-1.1 -13.2,-0.6 -8,0.8 -15.5,3.2 -22.1,8.4 -5.7,4.4 -18.5,5.9 -23,-0.4 -5.9,12.2 -17.3,18.7 -28,25.3 -9.5,5.9 -18.5,11.7 -24.2,21.7 -1.6,2.8 -3.6,5.2 -5.7,8.2 0.4,1.8 1.4,4.5 1.3,7.2 -0.1,4.2 0.6,7.4 4.8,9.9 3.7,2.2 3.2,9.5 -0.9,11.2 0.7,-1.2 1.7,-2 1.6,-2.7 -0.3,-2.3 -0.7,-6.6 -1.5,-6.7 -6,-0.8 -4.6,-5.6 -5.5,-9 -0.7,-2.7 -0.9,-5.6 -1.4,-8.7 -3.8,1.8 -6.6,3.2 -9.4,4.5 -2.1,0.9 -3.5,1.5 -3.8,4.6 -0.5,5.1 -3.3,8.4 -9.2,9.9 -3.8,1 -6.9,0.8 -9.4,-1.2 -2.9,-2.4 -3.8,-5.9 -2.5,-9.9 0.3,-1 -0.7,-2.8 -1.5,-3.8 -8.4,-9.1 -16.8,-18.2 -25.3,-27.2 -1.7,-1.9 -3.5,-5.1 -5.4,-5.2 -7.7,-0.3 -15.5,-0.1 -23.2,0.7 -6.8,0.7 -13.6,2.5 -20.4,3.8 -0.3,-2.2 -0.4,-3.3 -0.8,-6.1 7.5,4.9 13.4,0.8 19.6,-1.4 0.9,-0.3 2,-0.2 3,-0.2 7,-0.5 14.1,-1 22.2,-1.6 -3,-4.6 -5.6,-8.8 -10,-11.4 -7.6,-4.5 -14.6,-9.5 -20.4,-16.5 -2.9,-3.5 -8.6,-5 -13.3,-6.4 -4.7,-1.4 -9.8,-1.6 -15.1,-2.4 -3,3 1.3,9.4 -4.7,12.9 0,-5.7 0,-10.6 0,-15.7 -1.3,0 -3.4,0.6 -5,-0.1 -5.6,-2.3 -6.6,0.7 -7.6,5.2 -0.5,2.1 -2.4,4.9 -4.4,5.6 -7,2.7 -10,8.2 -12.4,14.7 -1,2.8 -2.8,5.3 -4.3,7.9 0.4,-3.6 2.4,-6.5 3.2,-9.7 1.6,-5.9 4.9,-10.6 9.9,-13.3 4.6,-2.5 6.7,-5.7 7.1,-10.7 -0.6,-0.4 -1.3,-1.1 -2,-1.1 -7.7,0.1 -14,-4.1 -20.8,-6.6 -1.2,-0.5 -4,1.3 -5.1,2.8 -1.2,1.7 -1.3,4.3 -2.1,6.4 -0.6,1.6 -1,3.8 -2.2,4.6 -7.5,5.2 -11.6,12.2 -12.9,21.2 0.2,-3.4 0.4,-6.9 0.6,-10.5 -0.5,-0.1 -1.2,-0.2 -2,-0.2 -8,-0.3 -10,-2.2 -10.4,-10.1 -0.4,-7 -8,-12.5 -15.9,-11.3 1.8,13.1 8.7,25.6 4.9,40.6 -0.4,-4.5 -0.8,-7.8 -1,-11.2 -0.2,-3.2 0.3,-6.5 -0.5,-9.5 -1.5,-5.6 -3.7,-11.1 -5.8,-16.6 -0.4,-1.2 -2.1,-3 -2.7,-2.8 -5.4,1.7 -11,3.1 -15.7,6 -1.9,1.2 -2.1,5.7 -2.4,8.8 -0.6,5.6 -2.2,10.4 -6.9,14.1 -1.6,1.3 -3,4 -3,6.1 0.1,5.2 1,10.4 1.7,16 -1.1,-2.1 -2.1,-4.1 -3.1,-5.9 -2.4,2.5 -4.5,4.8 -6.7,7 -0.4,-0.3 -0.9,-0.6 -1.3,-0.9 6.3,-4.1 7.7,-10 7.4,-16.9 -0.1,-2.2 1.2,-5 2.7,-6.6 5.2,-5.6 6.5,-12.4 7.4,-19.8 -1.4,0.7 -2.6,1.3 -3.8,1.9 -8.5,4.2 -17.7,7.1 -24.9,13.8 -4,3.7 -4.9,7.6 -4.3,12.6 1.6,-0.4 2.6,-0.9 3.6,-0.8 0.3,0 1,1.4 0.8,1.9 -1,3.3 -2.2,6.5 -3.3,9.7 -2.4,6.8 -7.9,12.6 -6.5,20.7 0.1,0.7 -0.8,1.5 -1.9,3.7 0.4,-4.5 0.7,-7.4 1.1,-11.3 -11.8,7.1 -20.4,15.2 -22.1,28.8 -0.6,-0.7 -0.7,-1.3 -0.7,-1.8 1,-12.8 9.9,-20.3 19.2,-26.9 6.8,-4.8 10.9,-14.4 8.2,-22.3 -1,-2.8 -1.1,-5.8 -1.5,-8.4 -12.2,10.1 -27.2,17.6 -37.9,30.7 1.9,-3.4 4,-6.7 6.8,-9.3 2.2,-2.1 5.2,-3.3 7.8,-4.9 -0.2,-0.4 -0.5,-0.9 -0.7,-1.3 -8.1,4.3 -16.9,4.1 -25.7,4.1 -8.9,0 -10.3,1.4 -12.7,9.9 -1.1,3.8 -3.2,6.7 -7.6,8.3 -3.7,1.4 -6.8,4.7 -10.1,7.2 -2.1,1.6 -4.1,3.3 -6.2,4.9 1.8,-3 4,-5.2 6.4,-7.2 2.8,-2.2 6,-4.1 8.8,-6.3 2.4,-1.8 5.2,-3.6 6.5,-6.1 1.4,-2.7 1.3,-6.2 1.9,-10.1 -4.5,0.8 -9,1.5 -13.4,2.3 -0.5,0.1 -1,0.7 -1.2,1.2 -1.7,4.7 -3.3,9.5 -5.1,14.1 -1.1,2.9 -2.5,5.6 -3.7,8.4 -0.2,-0.1 -0.5,-0.2 -0.7,-0.3 2.4,-7.4 4.8,-14.7 7.6,-22.9 -2.3,0.7 -4.4,0.9 -5.8,1.9 -3.2,2.2 -6.8,3.7 -10.3,5.3 -5.7,2.7 -10.7,6.6 -16.1,9.8 -4.9,2.8 -9.8,5.4 -8.3,12.5 -0.6,-1.9 -1.2,-3.8 -1.8,-5.7 -3.1,1.7 -6,3.3 -8.9,4.7 -5.4,2.7 -11,5 -16.3,8 -1.9,1 -3.6,3.3 -4.2,5.3 -1,3.1 -1,6.5 -1.2,9.7 -0.1,2.8 -0.1,5.6 0.2,8.4 0.2,1.5 1.1,3 1.7,4.5 -0.7,0 -1.3,0 -2,0 -4.7,-7.4 0.4,-15.3 -0.1,-22.9 -0.5,-0.1 -1,-0.3 -1.6,-0.4 -3.9,5.1 -7.7,10.2 -11.6,15.3 -0.3,-0.2 -0.7,-0.5 -1,-0.7 1.4,-2.2 2.9,-4.4 4.3,-6.6 -0.2,-0.1 -0.3,-0.2 -0.5,-0.3 -1.8,1.7 -3.7,3.3 -5.5,5 8.2,-13.8 19.3,-24.2 33.9,-29.3 -2.3,-2.4 -4.4,-5.3 -7.1,-7.2 -2,-1.4 -4.9,-2.1 -7.4,-2.4 -2.2,-0.3 -4.4,0.4 -6.7,0.7 7,-3.8 11.8,-3 16.6,1.8 1.3,1.3 2.4,3 4,3.7 1.5,0.7 3.9,1.1 5.3,0.4 6.6,-3.6 13,-7.5 19.4,-11.4 2.4,-1.5 2.1,-3.2 0.1,-5.1 -2,-2 -3.5,-4.4 -5.6,-7 1.3,-0.2 1.5,-0.3 1.6,-0.2 0.6,0.7 1.2,1.4 1.8,2.2 4.7,6.2 8,6.9 14,3.4 4,-2.4 8.3,-4.3 12.4,-6.3 -2.7,-0.5 -6.2,-0.1 -8.1,-1.7 -5.2,-4.3 -10.5,-4.4 -16.6,-3 -1.6,0.4 -3.7,-1.3 -5.6,-2 0.1,-0.2 0.3,-0.4 0.4,-0.6 4.5,0 9,0 13.7,0 -1.5,-7.8 -0.8,-9.4 6.4,-11.1 3.6,-0.8 7.8,-0.5 11.3,0.5 5.6,1.6 11,3.4 16.8,1.9 -4.8,4.7 -9.7,1.6 -14.7,0.5 -4.4,-0.9 -9,-1.6 -13.5,-1.6 -1.5,0 -4.2,2.2 -4.2,3.5 0,2 1.1,4.8 2.8,6 11,8.1 22.8,4.9 34.7,2.4 -1.8,-3.9 -3.5,-7.3 -5.1,-10.7 -11.5,-5.2 -23.8,-8.7 -33.9,-17.5 7.9,3.2 15.5,6 22.9,9.3 4.5,2 10.1,1.6 13.6,6 0.5,0.6 3.2,0.2 4.3,-0.5 1.7,-1.2 2.8,-3.2 4.1,-4.9 3.4,-4.6 8,-6.4 13.8,-6.3 -10.4,0.1 -12.8,10.7 -20.4,14.9 1.7,4.2 3.5,8.7 8.5,9.2 4.5,0.5 9.3,0.1 13.8,-0.5 10.3,-1.4 19.8,-5 28.2,-11.2 6.3,-4.6 12.4,-9.5 18.5,-14.2 -0.2,-0.6 -0.5,-1.2 -0.7,-1.8 -4.3,0.7 -9.7,-0.1 -12.6,2.3 -5.4,4.4 -10.2,8.4 -17.7,6.7 -0.6,-0.1 -1.3,0.2 -1.9,0.4 -8.3,2.2 -16.6,4.4 -25.8,6.9 3,-1.7 5.1,-3.6 7.5,-4.1 7.8,-1.7 15.7,-2.6 23.5,-4.3 3.5,-0.8 7.6,-1.8 10,-4.2 3.3,-3.3 6.7,-5.8 11.1,-5.6 7.7,0.5 14.7,-0.9 21.3,-5 4.4,-2.8 9.5,-4.4 15.4,-7.1 -9.4,-4.4 -17.7,-3.9 -25.9,-1.1 -5.7,2 -11.2,3.9 -17.2,0.8 -2.2,-1.1 -5.3,-1.1 -7.7,-0.6 -6.3,1.3 -12.6,3.1 -18.8,4.9 -2.8,0.8 -5.4,2.3 -8.3,3.6 0,-0.6 -0.1,-0.9 0,-0.9 0.4,-0.3 0.7,-0.6 1.1,-0.8 6.9,-3.4 13.8,-6 21.5,-7.4 6.3,-1.2 11.7,-0.6 17.5,0.6 2.1,0.4 5,0.1 6.8,-1 9,-5.8 18.7,-5.8 28.1,-2.5 3.7,1.3 6.5,2 10.1,0.5 5.1,-2 10.3,-3.6 15.7,-5.4 -1.3,-3.4 -2.7,-6.6 -3.7,-9.8 -1.7,-5.5 2.4,-10.3 7.5,-8.7 4.7,1.5 8.6,4.5 11.1,10.6 -4.5,-2.9 -7.9,-5.2 -11.3,-7.4 -3.3,-2.1 -6.2,-0.8 -5.6,3.1 0.6,4.4 2.6,8.6 4,12.9 0.6,-0.2 1.2,-0.4 1.8,-0.7 -0.9,-2.4 -1.8,-4.9 -2.7,-7.3 0.5,-0.2 1,-0.4 1.5,-0.5 1,2.7 2,5.3 3,8.2 3,-0.4 6.1,-0.7 9.7,-1.2 -3.7,-4.2 -3.8,-4.4 -2.9,-4.9 2.1,1.4 4.4,3.7 6.7,3.7 6.4,0 12.7,-1 19,-1.7 0.7,-0.1 1.3,-1.1 1.1,-1 3,0.9 5.4,1.7 7.2,2.3 0.8,-4.3 1.3,-7.7 2,-11.1 0.8,-4.1 3.4,-9 2.1,-12.2 -4,-9.5 -4.9,-20.3 -13,-28.1 -3.3,-3.2 -7,-4.1 -10.2,-0.6 -0.7,0.7 -1.2,1.6 -2.4,3.5 0.6,-6.5 5.3,-6.6 8.5,-8 -1.5,-2.9 -3,-5.7 -4.2,-8.1 -3.6,1.4 -7.1,2.9 -10.6,4.3 -0.2,-0.4 -0.3,-0.7 -0.5,-1.1 3.3,-1.7 6.7,-3.5 10.6,-5.5 -2.9,-4.3 -4.7,-9.7 -8.3,-11.6 -3.3,-1.8 -8.5,0.2 -12.9,0.5 -0.1,-0.3 -0.2,-0.5 -0.2,-0.8 4,-0.9 8.1,-1.8 11.7,-2.6 -1.1,-2.2 -2.7,-5.3 -4.2,-8.5 -1.9,-4 -4.6,-4.7 -8.7,-2.9 -3.3,1.4 -7.1,1.9 -10.6,2.8 -0.1,-0.4 -0.2,-0.9 -0.3,-1.3 5.3,-1.4 10.7,-2.8 16,-4.2 0.2,-0.5 0.3,-1.1 0.5,-1.6 -5.3,-3.6 -10.6,-7.2 -16,-10.8 -8.7,-2.1 -8.3,7.5 -13.3,10.2 2.8,-4.5 3.6,-10.8 10.3,-11 -3,-5.6 -5.5,-10.9 -8.5,-15.9 -1.2,-1.9 -3.5,-3.2 -4.9,-4.4 0.1,0 1.3,-0.5 2.8,-1.1 -1,-1.6 -1.9,-3 -2.8,-4.3 -4.6,-7.1 -10.3,-13.8 -10.9,-22.6 -0.6,-8.6 -4.7,-14.8 -10.8,-20.2 -1,-0.9 -1.9,-1.9 -2.8,-2.8 -0.8,-0.8 -1.5,-1.7 -2.3,-2.6 6.9,5.8 14.9,10.7 16.7,20.5 0.3,1.5 1.7,2.8 2.6,4.3 -3.8,5 1.2,9.1 2.7,13.6 3.3,-0.5 6.3,-0.9 9.2,-1.4 0.1,0.3 0.2,0.5 0.2,0.8 -2.5,0.8 -5.1,1.6 -7.4,2.4 4.1,7.3 8.1,14.7 12.2,22.1 1.4,-1.2 2.6,-2.2 3.9,-3.3 0.2,0.2 0.4,0.4 0.6,0.6 -1.3,1.7 -2.6,3.4 -3.9,5 6.1,5.4 9.3,15.5 19.1,13.2 3.7,6.8 7.4,13.5 11.1,20.2 0.9,-0.8 1.5,-1.4 1.4,-1.3 1.8,3.8 3.5,7.7 5.4,11.4 0.9,1.8 2.5,3.2 3.5,4.9 3.6,6.3 7.1,12.7 10.6,18.8 6.6,-3 5.4,-8.6 6.8,-13 1.1,4.3 0.1,8.1 -2.4,11.7 -0.8,1.1 -1.5,3 -1.1,4.2 2.6,7.4 5.4,14.8 8.4,22.1 2.2,5.1 2.6,9.9 -0.1,15.1 -3.3,6.5 -1.2,11.3 5.3,13.8 3.3,1.3 6.5,2.8 9.9,4 1.1,0.4 3.1,0.2 3.6,-0.5 1.7,-2.3 3.5,-4.9 4.1,-7.6 1.6,-7.3 1.8,-15 7.3,-20.8 -1.8,-1.2 -3.3,-2.3 -4.8,-3.3 7.4,2.2 8.6,1.6 12.3,-6.1 -2,-2.6 -4,-5.2 -6,-7.8 0.3,-0.2 0.5,-0.4 0.8,-0.6 1.9,2.2 3.9,4.4 6.9,7.9 1.4,-5.9 2.5,-10.6 3.6,-15.2 1.4,-5.8 1.2,-11.6 -0.7,-15.5 2.2,1.6 4.4,3.1 6.5,4.7 -1.6,5.1 -3.5,10.1 -4.8,15.2 -2.1,7.7 -5.5,14.4 -11,20.4 -3.3,3.5 -5.4,8.5 -6.9,13.1 -1.7,5.6 -2.1,11.6 -3.1,17.5 4.4,0 9.5,0 14.7,0 0.7,-2.3 1.3,-5 2.4,-7.6 4.7,-12 10.4,-23.1 23.1,-29.1 4.2,-2 8.1,-5.7 10.8,-9.6 4.3,-6.2 7.5,-13.2 11.1,-19.9 0.4,-0.7 0.2,-1.9 -0.1,-2.7 -1.5,-3.1 -3.9,-5.9 -4.5,-9.1 -1.6,-7.3 -6.9,-11.8 -10.9,-17.9 -2.4,2.5 -4.4,4.3 -6,6.5 -1.8,2.6 -3,5.7 -4.8,8.4 -2.1,3 -2.1,5.7 -0.1,7.3 -1.6,0.9 -3.2,1.5 -4.5,2.5 -1.9,1.5 -3.7,3.4 -5.5,5.1 0.4,-0.9 0.6,-1.9 1.2,-2.7 1.6,-2.3 5.5,-3.8 2.2,-7.5 -1.8,-2.1 -3.5,-4.3 -5.1,-6.2 4.7,-1.9 4.9,4.1 6.6,5.5 4.9,-6.9 9.8,-13.8 15.2,-21.4 -5.2,-8.7 -10.9,-18.4 -16.5,-28 9,7.3 12.2,18.7 18.4,28.4 2.2,-1.9 4.1,-3.5 5.9,-5.1 -0.6,2.1 -2.2,3.3 -3,4.9 -0.6,1.2 -0.9,3.5 -0.2,4.4 5.7,7.7 11.6,15.3 14,24.6 12.4,-5.2 15.5,-18.3 23.4,-27.3 2.1,-2.4 2.2,-8.6 0.6,-11.6 -2.8,-5.1 -2.8,-9.4 -1.3,-13.2 -3.9,-6.2 -8.1,-11.6 -11,-17.5 -9.8,-20 -12.5,-42 -17.7,-63.3 -3.9,-15.9 -5.4,-32.5 -7.2,-48.8 -1.8,-16.2 -3.6,-32.5 -3.8,-48.8 -0.2,-15.5 2.5,-31 2.5,-46.5 0,-12 -1.8,-24 -3.3,-36 -1.2,-10.1 -3.2,-20 -4.4,-30.1 -1.4,-11.4 -2.3,-22.8 -3.7,-34.1 -1.6,-12.8 -3.5,-25.6 -5.4,-38.4 -1.6,-10.8 -3.3,-21.6 -4.9,-32.5 -1.4,-9.4 -2.7,-18.8 -4.1,-28.2 -1.3,-8.9 -3,-17.8 -3.7,-26.7 -0.6,-7.5 -0.3,-15 -0.3,-22.6 0,-2.7 0.7,-5.6 -0.1,-8 -2.4,-7.2 -4.7,-14.6 -8.3,-21.3 -7.5,-13.8 -15.6,-27.4 -23.8,-40.7 -3,-4.9 -7.2,-9 -11.8,-14.6 0,3.7 0.2,5.8 0,7.8 -0.7,7.9 -0.3,16.2 -2.6,23.6 -3.9,12.8 -8.6,25.6 -14.7,37.6 -6.4,12.7 -13.8,25.2 -22.3,36.6 -10.6,14.1 -23.1,26.8 -34.4,40.4 -10.5,12.7 -21.5,24.8 -33.5,36 -5.4,5.1 -10.2,10.9 -15.7,15.9 -7.1,6.5 -14.6,12.5 -21.9,18.6 -12.2,10.3 -23.9,21.3 -36.9,30.5 -17.6,12.6 -35.9,24.2 -54.3,35.4 -19.1,11.7 -39.1,21.9 -58.2,33.7 -13.3,8.2 -25.8,17.8 -38.3,27.2 -11.3,8.4 -22.2,17.4 -35,23.6 -5.1,2.5 -10,5.5 -15.2,8.4 -0.2,-0.4 -0.9,-1.1 -0.7,-1.5 1.2,-3.9 2.5,-7.7 3.7,-11.5 4,-12.2 8.3,-24.3 12.1,-36.6 3.5,-11.2 6.1,-22.6 10.1,-33.6 6.6,-18.2 13.4,-36.3 21.1,-54.1 7.7,-17.6 16.3,-34.8 25.2,-51.9 6.6,-12.6 14.2,-24.6 21.7,-37.5 -8.7,3.9 -16.5,7.5 -24.4,10.8 -9.4,3.8 -18.8,8 -28.6,10.8 -12.3,3.5 -25,5.8 -37.6,8.3 -12,2.4 -24,4.3 -36,6.3 -12.9,2.1 -26,3.3 -38.7,6.2 -15.3,3.6 -30.3,8.6 -45.4,13.1 -12.1,3.6 -24.3,6.9 -36.3,10.9 -8.4,2.8 -17.1,5.6 -24.6,10.2 -10.7,6.5 -20.3,14.8 -30.6,22.1 -2.9,2.1 -6.6,3.1 -10,4.6 0,-0.3 0,-0.7 0,-1 0.9,-1.1 2,-2.1 2.7,-3.3 6.1,-11.2 12.1,-22.4 18.4,-33.5 2.7,-4.8 5.7,-9.5 9.2,-13.8 9.1,-11.2 18.4,-22.1 27.9,-33 12.3,-14.2 24.8,-28.3 37.3,-42.3 9.4,-10.6 19.1,-21 28.6,-31.6 14.7,-16.6 29.2,-33.4 44,-49.9 9.8,-10.9 20,-21.4 30,-32.1 12,-13 23.6,-26.3 36.1,-38.8 12.7,-12.7 25.8,-25 39.5,-36.6 18.5,-15.7 37.5,-30.8 56.7,-45.8 13.9,-10.8 28,-21.2 42.4,-31.4 9.7,-6.8 19.9,-12.9 30,-19.2 6.5,-4.1 13.2,-7.9 19.8,-12 0.6,-0.4 0.4,-2 0.7,-3.3 1.9,-0.4 5.1,-0.4 7.5,-1.8 10.4,-5.7 20.3,-12.3 30.9,-17.6 11.7,-5.9 23.8,-11.3 36.1,-15.9 13.9,-5.3 28.1,-10 42.5,-13.9 15.3,-4.1 30.7,-8.5 47,-5.3 12.7,2.5 24.8,6.3 35.5,14 5.2,3.8 10.9,7.2 17.9,7 7.7,-0.2 13.7,2.7 17.7,9.5 1.9,3.3 3.6,7 6.3,9.5 4.4,4.1 7.5,8.5 7.7,14.7 0.1,3 0,6 0,9.3 1.2,-0.4 2,-0.8 2.9,-0.9 5.5,-0.9 11.8,2.6 11.5,7 -0.4,4.8 -1.8,9.5 -3.4,14.1 -2.5,6.9 -5.5,13.2 -1.9,21 2.5,5.2 3.3,11.2 4.6,16.9 3.7,16.2 7.3,32.4 10.9,48.6 1.8,7.9 3.7,15.9 5,23.9 2.3,13.4 4.1,26.9 6.2,40.4 3,19.4 6.1,38.7 9,58.1 1.9,13 3.3,26 5,39 0.5,3.6 1.6,7.2 6.9,8.9 -0.7,-2.9 -1.7,-5.2 -1.6,-7.5 0.1,-15.2 0.1,-30.4 1,-45.6 0.3,-4.8 3,-9.5 4.7,-14.2 1,-2.9 2.5,-5.7 2.9,-8.7 0.4,-2.8 -0.6,-5.8 -0.8,-8.8 -0.7,-11.9 -0.5,-24 -2.3,-35.8 -2.2,-14.3 -5.6,-28.4 -9.3,-42.4 -7,-26.4 -14.6,-52.7 -21.9,-79 -2.9,-10.5 -6.1,-20.9 -8.4,-31.6 -3.6,-17.2 -7,-34.4 -9.7,-51.7 -2.7,-17.2 -4.6,-34.5 -6.3,-51.9 -0.6,-6.2 1.1,-12.6 0.7,-18.8 -0.5,-9.3 -1.3,-18.7 -3,-27.9 -2.7,-15.4 -5.8,-30.7 -9.5,-45.9 -2.6,-10.9 -6.8,-21.4 -9.2,-32.4 -2.4,-10.5 -6.5,-20.1 -12.8,-28.7 -1.3,-1.8 -4.4,-4.2 -5.7,-3.7 -2.3,0.8 -4.1,3.5 -5.7,5.7 -2.4,3.3 -4.4,6.9 -6.7,10.3 -1.2,1.8 -3.8,3.5 -3.9,5.3 -0.6,8.1 -7.3,11.6 -12,16.6 -7.5,8.1 -18,6 -27.3,7.5 -11.9,1.9 -22.4,-3.9 -32.5,-9.1 -16.5,-8.5 -32.8,-17.6 -48.9,-26.8 -11.5,-6.5 -23,-13.1 -33.7,-20.7 -13,-9.2 -25.5,-19.2 -37.7,-29.6 -16,-13.6 -32,-27.4 -47,-42.2 -17.5,-17.2 -34.3,-35.2 -50.6,-53.6 -9.6,-10.9 -18.3,-22.7 -26.5,-34.7 -11.2,-16.3 -21.7,-33 -32.1,-49.7 C 263.5,251.9 253.6,236 244.6,219.6 236,203.9 228.2,187.7 220.5,171.5 208.6,146.5 197,121.4 185.4,96.2 179.9,84.4 174.6,72.5 169.1,60.7 164,49.8 158.7,39.1 153.4,28.3 148.4,18.6 143.7,9.3 139,0 z m 676.3,1591.7 c -5.2,5.5 -3.6,15.4 -12.1,18.8 -0.2,0.1 -0.1,1 -0.3,1.4 -2.8,6.2 2.3,10.1 4.2,14.7 14.7,-8.4 17.3,-22.5 17.7,-38 -3.1,1 -6.4,2.1 -9.7,3.2 3.4,-1.6 6.8,-3.2 10.1,-4.9 0.9,-0.4 2.5,-0.9 2.6,-1.4 0.4,-3.6 1.6,-7.8 0.2,-10.6 -1.8,-3.6 -5.8,-6.2 -8.8,-9.2 -3.5,-3.4 -6.5,-3.2 -9.5,0.9 -0.8,1.1 -1.4,2.5 -2,3.9 -1.3,3.1 -9.2,8.5 -12,8.5 -5.2,-0.1 -10.4,0 -15.9,0 3.9,-4.9 9.3,-3 13.6,-2.4 5.5,0.8 8.6,-2.2 11.6,-5.1 3.2,-3.1 5.5,-7.2 8.3,-11 -3.7,-6.2 -7.7,-13 -11.6,-19.4 -7,2.5 -8.1,7.3 -8,13 0.1,1.7 -0.5,3.7 -1.5,5 -2.4,3.4 -5.2,6.5 -7.9,9.7 4,-7.4 10.8,-13.7 8.3,-23.5 -0.6,0.4 -1.6,0.9 -2.5,1.4 -0.2,-0.3 -0.3,-0.6 -0.5,-1 3.5,-2.3 7,-4.6 11.3,-7.4 -3.1,-2.8 -5.5,-4.9 -8.1,-7.2 0.9,-1.5 0.1,-2.6 -5.4,-4.9 -3.7,3.6 -5.4,8.3 -4.4,12.4 1.7,7.4 0.5,10.5 -6.2,15 0.3,-0.6 0.4,-1 0.6,-1.4 2,-4.3 9.6,-7.3 2.9,-13.5 -0.1,-0.1 0.6,-0.7 0.7,-1.2 0.4,-2 0.7,-4 1.1,-6.4 -1.8,0.4 -2.8,0.6 -4.4,1 9.3,-7.8 9.3,-7.8 3.6,-12.5 -0.9,1.8 -1.7,3.6 -2.6,5.4 0,-2.7 1.6,-5.9 0.5,-7.4 -2.9,-4.3 -6.8,-7.8 -9.5,-10.9 -3.5,2 -6.2,3.7 -9,5.3 1,-1.9 2.8,-2.6 4.3,-3.6 2.2,-1.6 2.5,-3.5 0.2,-5.3 -5,-3.9 -10.1,-7.7 -15.6,-11.9 1.5,7.6 2.8,14.5 4.2,21.7 1.2,-0.7 2.1,-1.2 4.1,-2.3 -4.9,8.2 0.3,13.5 3.1,19.4 2.2,4.6 4.9,9.3 5.5,14.2 1.3,10.4 4,20.3 7.7,30.1 2.6,6.9 4.1,14.4 2,22 -0.7,2.4 -1.9,6.1 -0.8,7.4 3.6,4.2 7.6,9.1 12.5,11 6.5,2.5 11,5.6 13.1,12.3 0.3,0.9 1.8,1.3 3.8,2.7 -1.7,-4.4 -2.8,-7.1 -3.9,-9.9 -1.6,-4.3 0,-10.9 4,-12.9 3.4,-1.8 4.2,-4.4 5,-7.5 1,-3.3 1.4,-6.8 5.4,-7.7 z m 7.4,-448.4 c 6.3,-11.8 12.5,-22.9 18.2,-34.2 7.6,-14.9 15,-30 22.5,-45.1 1.8,-3.7 3,-7.2 2.1,-11.7 -1.2,-6.2 -1.3,-12.5 3.4,-18.3 2.8,-3.4 3.6,-8.5 5,-12.9 0.6,-2 0.1,-4.5 0.8,-6.5 4.6,-13.4 14.7,-21.9 27,-27.6 15.2,-7 31.7,-9.6 48.1,-12.2 19,-3.1 38,-6.4 57.1,-9 13.2,-1.8 26.5,-4.1 39.7,-3.7 21.5,0.5 42.9,2.7 64.3,4.8 12.9,1.3 25.8,3.6 38.6,6 11.2,2.1 22.3,4.5 33.4,7.4 14.5,3.7 28.8,8 43.2,12 3.4,0.9 6.9,1.7 11.2,2.7 -1,-1.3 -1.2,-1.8 -1.5,-2.1 -12.7,-9.1 -25.5,-18.2 -38.2,-27.4 -17.3,-12.5 -34.8,-24.5 -49.5,-40.2 -5.1,-5.5 -11.1,-10.2 -16.5,-15.5 -9.5,-9.1 -18.8,-18.3 -28.2,-27.4 -5.6,-5.5 -11.2,-11.2 -16.8,-16.8 -5.5,-5.5 -11.7,-10.6 -16.4,-16.8 -7.9,-10.3 -15.2,-21 -22,-32 -6.9,-11.1 -13.2,-22.6 -19.1,-34.2 -7.2,-14.3 -11.9,-29.6 -15.1,-45.3 -0.8,-3.8 -2.1,-5.8 -6.8,-5.8 -7.5,0 -15.1,-1.1 -22.6,-1.8 -5.3,-0.5 -11,-2.3 -15.8,-1.1 -9.4,2.5 -18.9,5.7 -27.3,10.5 -8.4,4.7 -15.9,11.2 -23.1,17.8 -15,13.9 -27.8,29.7 -38.4,47.1 -12,19.7 -23.1,40 -34.8,59.9 -10.9,18.6 -22,37.1 -38,51.9 -2.4,2.2 -3.3,4.5 -3.3,7.8 -0.1,24.5 -0.1,48.9 -0.6,73.4 -0.4,21 -1.5,42 -2.3,63 -0.2,6.3 -0.6,12.5 -1,18.8 -1,17.6 -1.9,35.2 -3,52.8 -0.5,8 -1.1,16.1 -2.1,24.1 -1.4,11.2 -3.3,22.3 -4.8,33.5 -2.1,15.7 -3.4,31.6 -6.2,47.2 -3.5,19.4 -8.4,38.6 -12.6,57.8 -1.2,5.3 -2.3,10.7 -3.3,15.7 2.8,0.8 4.9,1.4 7.2,2.1 2.1,-7 4.2,-14.2 6.4,-21.3 3.8,-12.1 8.2,-24.1 11.4,-36.3 3.6,-13.9 6.2,-28 9.3,-42 5.1,-23.1 10,-46.2 8.9,-70 0,-0.2 0.2,-0.5 0.5,-0.9 0.3,1.4 0.6,2.6 0.9,3.7 0.2,0 0.5,-0.1 0.7,-0.1 0.5,-2.7 1,-5.4 1.6,-9.3 1.3,2.5 2,3.9 3,5.6 0.7,-2.7 1.4,-5.1 2,-7.4 0.3,0 0.5,0.1 0.8,0.1 0.5,3 1.1,5.6 2,9.2 z m -114.8,126.8 c 0.5,-0.1 1,-0.3 1.4,-0.4 -0.4,-4.5 -1.3,-9.1 -1.2,-13.6 0.1,-11.1 0.8,-22.2 0.9,-33.3 0.4,-52.4 0.7,-104.8 1.1,-157.3 0,-2.7 0.7,-5.5 0.9,-8.2 1,-11 2.3,-21.9 2.9,-32.9 0.4,-6.2 -0.1,-12.5 -0.7,-18.7 -0.9,-9.5 -2.1,-18.9 -3.2,-28.3 -1.1,-9.3 -1.8,-18.6 -3.3,-27.8 -2.6,-16.3 -5.8,-32.4 -8.7,-48.6 -2.9,-16.2 -5.7,-32.4 -8.9,-48.6 -3.1,-15.5 -6.6,-30.9 -10.2,-46.3 -1.3,-5.4 -3.2,-10.6 -4.9,-15.8 -8.6,47.6 -37.5,79.2 -78.2,102.6 2.6,3.5 5,7.2 7.9,10.3 9.5,10.1 18.1,21 25,32.9 8.3,14.3 15.3,29.4 22.9,44.2 1.1,2.2 2.3,4.3 3.3,6.1 1.4,-2.7 2.6,-5.1 3.8,-7.5 0.5,0 1,0.1 1.5,0.1 0.9,1.8 2.3,3.5 2.6,5.4 2.3,13.7 4.2,27.5 6.4,41.2 1.8,10.9 3.9,21.8 5.6,32.7 2.2,13.6 4,27.2 6.1,40.7 2.2,13.9 4.6,27.7 6.9,41.5 1,5.9 2.2,11.7 3.3,17.8 1.5,-4.8 2.8,-9.2 4.1,-13.4 1,-0.1 1.7,0 2.3,-0.1 3.9,-0.9 5.3,-0.1 3.4,4.1 -1.2,2.8 -1.9,5.9 -2.6,8.9 -1.6,7.6 -4,15.3 -4.3,23 -0.3,6.7 1.7,13.6 2.9,20.3 2.3,13.8 4.7,27.7 6.8,41.5 1.7,9.3 2.9,18.4 4.2,27.5 z m 60.8,333.7 c -20.5,3.1 -28.4,-10.9 -34.8,-26.7 2,2.3 3.8,4.7 5,7.4 3.4,7.2 7.9,13.6 16,15.4 4.7,1 9.9,0.2 15.1,0.2 0,-0.5 -0.2,-1.3 0,-2.1 2.2,-8 0.9,-15.4 -2.4,-23.1 -3,-7.1 -3.8,-15.1 -5.7,-22.6 -1.6,-6.3 -3.1,-12.6 -5.3,-18.7 -2.2,-5.9 -5.5,-11.4 -7.9,-17.2 -1.1,-2.8 -2.3,-4.1 -5.4,-2.9 -3,9.1 -1.1,18 1.7,26.9 4.1,13.2 2.5,25.3 -7.3,36 -0.3,-2.1 -0.3,-4.2 0.6,-5.9 3.5,-7.3 6.3,-14.7 3.8,-23.1 -1.2,-4.1 -2.5,-8.1 -3,-12.3 -0.8,-6.6 -1.1,-13.2 -1.5,-18.8 -1.3,0.8 -3.7,3.1 -4.4,2.6 -1.8,-1 -3.4,-3.2 -4,-5.3 -2,-7 -3.5,-14.1 -5.2,-21.3 -2.8,4 -5.3,7.6 -7.8,11.2 -2,2.9 -4,5.8 -6.1,8.6 -2.5,3.2 -4.6,7.2 -7.8,9.2 -11.1,6.9 -12.9,10.9 -9.4,23.7 1.7,0.1 3.4,0.3 5.6,0.4 -2.5,0.7 -5.8,0.7 -6.2,1.8 -3.1,7.9 -6.4,15.8 -7.9,24 -1.4,7.5 -1.9,15.1 -5.3,22.1 -1.5,3.1 -2.9,6.3 -4.4,9.5 0.4,0.2 0.8,0.4 1.1,0.6 1.1,-2.1 2.2,-4.1 3.8,-7.1 0,1.9 0,2.8 0,3.8 6.6,-2 6.6,-8.4 9.1,-13 0,7.4 -3.3,12.6 -9.4,16.5 5.4,-3.1 10.8,-6.2 16.2,-9.3 0.2,0.4 0.4,0.8 0.7,1.1 -5.8,3.5 -11.5,6.9 -17.2,10.3 0.5,0.2 2.2,0.7 2.2,0.7 -1.8,6.3 3.7,7.9 7.2,9.5 9.4,4.2 15.7,10.8 19.6,20.1 0.5,1.1 1.4,2.8 2.2,2.9 7.1,0.6 14.1,1.1 21.2,1.3 1.7,0 3.4,-1.3 5.1,-2 -1.8,-2.9 1.8,-7.6 -3.1,-9.5 -0.1,-0.1 -0.1,-0.6 -0.1,-1.1 1.2,0.4 2.4,0.8 3.9,1.3 1.8,-3.3 3.7,-6.7 5.7,-10.4 0.9,7.3 -8.5,11.6 -5,19.2 19.1,-7.4 33.1,-18.2 30.8,-33.9 z m -13.1,65.6 c 8.4,-2.6 13.4,-8.2 17.5,-15.2 2.6,-4.4 6,-8.7 9.9,-12 5.1,-4.3 11,-7.7 16.6,-11.5 -0.4,-0.9 -0.8,-2.5 -1.7,-3.8 -1.6,-2.3 -3.2,-4.8 -5.3,-6.5 -4.4,-3.6 -9.2,-6.7 -13.8,-10.1 -1.3,-0.9 -2.7,-1.8 -4.5,-2.9 0.2,10.4 -4.1,17.5 -11.5,22.5 -7.6,5.1 -15.8,9.4 -24.9,14.7 3.8,3.8 7,7.6 10.8,10.7 3.9,3 6.6,6.2 6.2,11.4 0.1,0.8 0.5,1.8 0.7,2.7 z m 9.3,-859.5 c -1.1,3.1 -2.4,5.7 -2.8,8.3 -0.5,2.9 0.1,6 -0.2,9 -0.9,10.9 -1.4,22 -3.1,32.8 -2.5,16.5 -5.2,33 -9.2,49.1 -3.3,13.4 -1.9,26.8 -3.2,40.2 -0.1,1.5 1.1,3.1 1.7,4.6 1.6,-1.1 3.7,-1.9 4.6,-3.5 8.9,-16.2 10.3,-34.2 12.2,-52 1.2,-11.8 1.9,-23.7 2,-35.6 0.1,-16.6 -0.5,-33.3 -0.9,-50 0,-0.7 -0.6,-1.6 -1.1,-2.9 z m -74.6,725.9 c -0.2,0 -0.4,-0.1 -0.6,-0.1 -2.5,4.5 -4.7,9.3 -7.6,13.5 -2.5,3.5 -6.9,5.9 -4.8,11.4 -0.7,-1.3 -1.5,-2.6 -2.1,-3.6 -15.7,5.7 -22.9,18.1 -27.9,32.5 -1.3,3.7 -0.7,6 3.9,6.6 6.1,0.8 12,2.5 18.1,3.4 1.2,0.2 3.2,-0.9 3.7,-2 2.9,-6 6,-12 7.8,-18.3 2.4,-8.2 3.8,-16.7 5.6,-25.1 1.3,-6 2.6,-12.1 3.9,-18.3 z m 22.1,107 c -0.2,0.6 -0.5,1.1 -0.7,1.7 5.1,5.3 10.4,10.4 15.2,16.1 7.1,8.4 15.1,13.8 26.3,10.3 -0.4,-2.8 -0.7,-5.6 -1.2,-8.2 -0.3,-1.5 -0.7,-3.9 -1.7,-4.3 -6.7,-2.7 -9.8,-8.6 -12.4,-13.2 -4.9,0 -8.9,0.3 -12.9,-0.1 -4.2,-0.5 -8.4,-1.6 -12.6,-2.3 z m -150.6,-50.2 c 5.3,2.2 9.2,6.9 8.7,10.4 -1,6.4 0.7,7.8 7,9.2 4.8,1.1 7.2,-0.5 9.4,-4.3 0.9,-1.6 3,-2.5 4.3,-3.9 1.1,-1.1 2.4,-2.3 2.7,-3.7 1.1,-3.8 1.7,-7.8 2.6,-12.2 -11.6,-0.8 -23.3,0.8 -34.7,4.5 z m 204.7,-97.7 c 9.3,8.6 18.4,16.9 27.3,25.2 1.5,-1.1 2.6,-2 3.8,-2.8 -5.2,-5.8 -10.4,-11.6 -15.4,-17.1 -1.1,1.3 -1.8,2 -2.5,2.9 -0.6,-2.2 -0.6,-4.4 -1.4,-4.7 -3.7,-1.5 -7.7,-2.4 -11.8,-3.5 z m -29.3,182.8 c -1.1,7.9 0.2,11 5.1,11.2 7.1,0.3 11.6,-4.5 12,-12.2 -5.6,0.4 -11.2,0.7 -17.1,1 z m 6.4,-181.4 c 2.1,-8.4 -4.9,-12.2 -8.3,-17.7 -0.4,0.2 -0.8,0.4 -1.1,0.6 3.1,5.6 6.2,11.2 9.4,17.1 z m -2.3,9.5 c -2.3,-5.3 -4.2,-9.7 -6.1,-14.2 -0.5,0.2 -1,0.4 -1.5,0.6 3.3,3.9 -2.1,11 7.6,13.6 z"
   id="path3" />
</svg>