<?xml version="1.0" encoding="UTF-8" standalone="no"?>
<!-- Created with Inkscape (http://www.inkscape.org/) -->

<svg
   xmlns:svg="http://www.w3.org/2000/svg"
   xmlns="http://www.w3.org/2000/svg"
   version="1.1"
   width="100%"
   height="100%"
   viewBox="0 0 662 2457"
   id="Layer_1"
   xml:space="preserve"><defs
   id="defs7" />
<path
   d="m 661,388 c -4.7,10.9 -8.8,22.1 -14.2,32.6 -3.4,6.5 -8.6,12.1 -13,18.1 -12.3,16.3 -24.6,32.7 -37.1,48.9 -9.3,12 -18.8,23.8 -28.4,35.6 -12.4,15.1 -24.8,30.1 -37.4,45.1 -3.6,4.3 -8,8 -11.8,12.2 -2.5,2.8 -4.4,6.1 -6.9,8.8 -10.8,11.3 -21.7,22.5 -32.6,33.8 -3.7,3.9 -7,8.3 -11.2,11.6 -9.7,7.7 -19.9,14.7 -32.9,15.3 -0.7,0 -1.3,0 -2,0 -8.2,-0.6 -8.5,-0.7 -11.1,7.2 -4.4,13.8 -9.2,27.5 -12.6,41.6 -3.1,12.6 -4.7,25.6 -6.8,38.5 -2.1,12.8 -4.1,25.5 -5.8,38.4 -0.7,5.5 -0.1,11.1 -0.7,16.6 -0.4,4.1 -2,8.1 -2.5,12.2 -0.9,7 -1.4,14 -2,21.1 -1.1,12 -2,24.1 -3.3,36.1 -1.7,14.8 -4,29.5 -5.6,44.4 -0.9,8.9 -0.6,17.9 -1.4,26.9 -0.7,8 -2.2,15.9 -3.1,23.8 -1,8 -1.7,16.1 -2.7,24.1 -1.5,12.5 -3.1,25 -4.6,37.5 -0.8,6.4 -1.7,12.9 -2.3,19.3 -0.9,8.5 -1.4,17.1 -2.3,25.6 -1.1,10.6 -2.5,21.2 -3.7,31.8 -1.3,11.1 -2.8,22.3 -3.9,33.4 -0.9,8.5 -1.3,17.1 -2.1,25.6 -1.2,12.1 -3.3,24.1 -3.7,36.2 -0.3,9.8 -2.1,19.3 -3.2,28.9 -1.6,13.9 -2.6,27.8 -4.1,41.7 -1.5,13.4 -3.3,26.8 -4.9,40.2 -1.7,14 -3.2,28.1 -5.1,42.1 -1.4,10.2 -3.3,20.3 -5,30.5 -2,12.3 -3.9,24.5 -6,36.8 -1.2,6.7 -2.7,13.4 -3.9,20.1 -0.8,4.2 -1.2,8.4 -2,12.6 -3.3,16.9 -6.6,33.9 -10,50.8 -2.6,13 -4.9,26 -8.1,38.8 -3.4,13.6 -7.7,26.9 -11.4,40.3 -4,14.4 -7.7,28.9 -11.5,43.4 -1,3.6 -2.1,7.2 -3,10.8 -4.3,16 -8.6,32 -12.9,48.1 -0.1,0.4 0.2,0.9 0.5,2.3 1.4,-3 2.5,-5.3 3.4,-7.6 6.3,-16 12.5,-32.1 18.7,-48.2 5,-13.1 9.6,-26.3 14.7,-39.3 2.8,-7.1 7,-13.6 9.6,-20.7 6.6,-17.8 12.6,-35.9 19.2,-53.7 3,-8.1 6.6,-15.9 9.9,-23.8 6,-14.5 11.7,-29.1 18,-43.5 5,-11.2 10.8,-22.1 16,-33.2 4.8,-10.4 9.1,-21 14,-31.3 5.3,-11.3 11.2,-22.4 16.7,-33.7 5.6,-11.3 10.9,-22.8 16.5,-34.1 2.4,-4.9 5.2,-9.6 7.9,-14.4 0.1,-0.1 0.3,-0.2 0.4,-0.3 4.5,-10 8.8,-20.2 13.6,-30.1 3.1,-6.3 6.9,-12.3 10.3,-18.5 4.3,-7.8 8.3,-15.8 12.6,-23.6 8.3,-14.9 16.8,-29.6 25.3,-44.4 4.8,-8.4 9.6,-16.7 14.8,-24.9 2.1,-3.3 5.1,-5.9 8.4,-8.3 0,7.8 -7.3,11.5 -8.2,18.3 -0.3,2 -0.2,4.2 -1.1,6 -6.6,12.8 -11,26.2 -13.4,40.4 -1.8,10.7 -5.4,21.1 -7.5,31.8 -2.2,11.2 -3.6,22.6 -5.3,33.9 -0.7,4.2 -1.2,8.4 -2.1,12.6 -2,9 -4.8,18 -6.3,27.1 -1.7,10.5 -2.3,21.3 -3.7,31.9 -0.7,4.9 -2.5,9.7 -3.1,14.7 -0.7,5.3 -0.6,10.6 -0.9,15.9 0,0.8 0.2,1.7 0,2.5 -1.7,6.2 -4.1,12.3 -5.1,18.7 -2,13 -3.2,26.1 -4.9,39.2 -1,7.6 -2.3,15.2 -3.5,22.8 -0.5,3.1 -1.1,6.1 -1.5,9.2 -1.9,14.8 -3.8,29.5 -5.7,44.3 -2.1,16.9 -4,33.9 -6.4,50.8 -1.9,13.6 -4.6,27.1 -6.7,40.6 -1.6,10.5 -2.7,21.1 -4.3,31.6 -0.6,4.3 -2.2,8.5 -2.9,12.8 -1.8,11.4 -3.2,22.8 -5.1,34.1 -1.6,9.5 -3.6,18.9 -5.7,28.2 -3.3,14.8 -6.7,29.5 -10.3,44.2 -3.1,13 -6.6,26 -9.7,39 -1.6,6.6 -2.5,13.5 -4.2,20.1 -2,7.7 -4.6,15.2 -6.9,22.7 -3.1,10.5 -6.1,20.9 -9.3,31.4 -0.9,2.8 -2.3,5.4 -3.3,8.2 -2.9,7.7 -5.6,15.4 -8.6,23.1 -2,5.2 -4.6,10.2 -6.7,15.4 -6.2,15 -12.4,30 -18.4,45.2 -3.4,8.7 -6.1,17.7 -9.5,26.4 -1.3,3.3 -4,5.9 -5.4,9.1 -4.9,11.3 -9.3,22.8 -14.2,34.1 -2,4.5 -5,8.5 -7,12.9 -2.7,5.8 -6.2,11 -6.3,18.2 -0.1,7.2 -3.4,14.5 -6,21.4 -2.3,6.2 -5.9,11.9 -8.4,18.1 -3.4,8.3 -7,16.7 -9.1,25.3 -2.7,11.4 -5.8,22.8 -5.3,34.9 0.4,10.1 -1.3,20.4 -1.7,30.6 -0.2,5.8 0.8,11.6 0.8,17.4 0,4.3 -0.9,8.5 -0.8,12.8 0,8.7 0.5,17.4 0.7,26.1 0.1,3.7 -0.3,7.3 -0.1,11 0.2,3.8 1,7.6 1.4,11.4 1.4,14.6 2.6,29.3 4.1,43.9 0.5,4.9 2.1,9.6 2.9,14.4 0.9,5.3 1.2,10.7 2.1,16 0.9,5.8 1.9,11.6 3.1,17.3 1.8,8.6 3.2,17.4 6.1,25.6 3.4,9.4 8.4,18.3 12.7,27.4 0.8,1.6 1.7,3.3 2,5 0.6,4.1 2.5,7.2 5.5,10 1.3,1.2 1.3,3.8 2.5,5.3 3.2,4.2 6.5,8.5 10.3,12.3 2.6,2.6 3.4,4.6 0.8,7.4 -1.3,0 -2.7,0 -4,0 -4.4,-3.2 -8.4,-6.9 -13.2,-9.5 -9.2,-5 -27.6,-3.9 -32.2,8.2 -5.7,-2.3 -8.6,-6.7 -10.7,-12.2 -3,-7.8 -7.2,-15.2 -10,-23.1 -2.2,-6.4 -3,-13.3 -4.3,-20 -1.7,-9.3 -3.5,-18.6 -4.9,-27.9 -1.5,-9.7 -2.8,-19.4 -3.8,-29.1 -1.4,-13.4 -2.6,-26.8 -3.4,-40.3 -0.6,-10.8 -0.5,-21.6 -0.7,-32.4 -0.1,-3.6 0.4,-7.2 -0.2,-10.7 -1.7,-10.4 -4.1,-20.6 -5.6,-31 -1,-7.5 -0.6,-15.2 -1.3,-22.7 -1.1,-11.5 -2.4,-23 -4,-34.4 -1.4,-10.3 -3,-20.7 -5,-30.9 -1.3,-6.6 -3.5,-13.1 -5.4,-19.6 -0.8,-2.8 -1.6,-5.8 -3.3,-8 -4.7,-6 -10.1,-11.5 -14.8,-17.5 -2.6,-3.3 -5.5,-7 -6.1,-10.9 -1,-6.1 -4.4,-10.7 -6.9,-16 -2.8,-5.8 -4.6,-12.1 -7.1,-18 -3.9,-9 -8.5,-17.8 -12.3,-26.8 -3.1,-7.3 -5.2,-15 -8.2,-22.3 -3.4,-8.4 -7.2,-16.5 -10.8,-24.8 -2.5,-5.6 -5.2,-11.1 -7.7,-16.6 -0.5,-1 -1,-2.1 -1.2,-3.2 -0.6,-3 -0.6,-6.3 -1.7,-9.1 -2.2,-5.8 -5.1,-11.4 -7.3,-17.2 -3.6,-9.5 -6.4,-19.3 -10.5,-28.5 -3.7,-8.3 -6.6,-16.9 -10.3,-25.2 -5,-11.4 -7.7,-23.8 -11.7,-35.6 -3.3,-9.6 -7.2,-19 -10.6,-28.6 -2.7,-7.8 -3.8,-16.5 -7.8,-23.5 -5,-8.7 -4,-18.8 -8.2,-27.5 -1,-2 -1.5,-4.3 -2,-6.5 -2.2,-8.5 -4.1,-17 -6.5,-25.4 -2.2,-7.8 -5.4,-15.3 -7.4,-23.2 -1.7,-6.8 -1.9,-13.9 -3.4,-20.8 -2.7,-12.7 -6.1,-25.3 -8.7,-38 -1.8,-8.7 -2.6,-17.6 -4.3,-26.4 -2.1,-11.2 -5,-22.2 -6.7,-33.5 -2.1,-13.6 -2.9,-27.4 -6.9,-40.6 -0.3,-0.9 -0.1,-2 -0.2,-3 -0.3,-5.3 -0.3,-10.6 -0.9,-15.9 -0.9,-8.5 -2.4,-17 -3.1,-25.5 -1,-12.1 -1.5,-24.2 -2,-36.2 -0.7,-16.1 -1.6,-32.2 -1.9,-48.3 -0.2,-8.8 0.8,-17.6 0.8,-26.4 0,-6.6 -0.8,-13.2 -0.9,-19.9 -0.2,-11.5 0,-23 0,-34.6 0,-4.1 -0.1,-8.1 0.1,-12.2 0.1,-1.9 0.8,-3.8 0.9,-5.8 0.4,-6.8 0.6,-13.7 1.1,-20.5 0.8,-10.1 2.1,-20.2 2.9,-30.4 0.7,-9 3.7,-18 1.1,-27.2 -0.1,-0.3 0.1,-0.6 0.2,-1 1.1,-4.4 2.3,-8.7 3.1,-11.8 -1.4,-2.1 -2.2,-3.3 -3,-4.5 4.2,-1.6 2.9,-5.7 3.2,-8.6 1.1,-10.6 6.4,-20.6 3.7,-31.8 -1,-4.1 -1.6,-8.9 3.2,-13 2.1,-1.8 2.4,-4.7 6.1,-3.3 1.6,4.9 -1.7,9.4 0,14.7 2.5,7.6 2.2,16.1 4.2,24 3.2,13.2 7.2,26.2 11,39.3 1.3,4.5 2.9,8.9 4.2,13.4 3.2,10.9 6.1,21.9 9.4,32.8 3,9.7 6,19.5 9.8,28.9 2,4.9 1,11.7 6.7,14.1 0.4,2.8 0.5,5.2 1.2,7.4 2.5,7.5 5.4,14.9 7.8,22.5 3,9.4 5.4,18.9 8.5,28.3 2.5,7.4 5.8,14.4 8.4,21.7 2.8,7.8 4.9,15.9 7.9,23.6 12,30.1 24.2,60.2 36.6,90.2 1.7,4 4.7,7.5 7.3,11.5 2.2,-3.2 4,-5.4 5.3,-7.8 4.1,-7.4 8.1,-14.8 11.8,-22.3 2.8,-5.7 8.5,-6.9 13.2,-10 4.4,-2.8 8.9,-3.7 13.2,-2.4 4.4,1.3 5.9,-1.2 6.5,-3.8 1.5,-7.2 2.4,-14.5 3.4,-21.8 1.2,-8.9 2.2,-17.9 3.5,-26.8 1.3,-8.9 3.1,-17.7 4.4,-26.6 1.1,-7 1.8,-14 2.9,-21 2,-12.8 4.1,-25.6 6.1,-38.4 1.3,-8.1 2.5,-16.2 3.7,-24.3 1.7,-11.2 3.4,-22.3 5.3,-33.5 1.5,-9 3.2,-17.9 4.9,-26.8 0.6,-3 1.5,-6 2.1,-9 1.9,-11.1 3.8,-22.2 5.5,-33.3 1.9,-12.4 4.8,-24.9 5.3,-37.4 0.7,-18.8 4.6,-37 8.3,-55.3 1.5,-7.5 3.4,-14.9 -1.2,-21.7 -4.5,-6.5 -6.5,-13.7 -7.8,-21.3 -0.4,-2.1 -1.1,-4.1 -1.9,-6 -2.6,-5.5 -5.5,-10.8 -8,-16.4 -4,-8.9 -7.8,-18 -11.6,-26.6 -3.9,0 -7.6,1 -10.5,-0.2 -11.9,-4.5 -19.8,-13.7 -27.2,-23.7 -8.5,-11.5 -17.2,-22.8 -25.9,-34.1 -5.6,-7.3 -11.5,-14.5 -17,-22 -3.2,-4.3 -5.5,-9.2 -8.6,-13.6 C 127.7,942 120,932 112.7,921.7 107.5,914.5 102.7,907 97.6,899.8 89.3,888.2 80.1,877.1 72.5,864.9 68,857.6 62.4,851.3 57.5,844.4 52.7,837.6 47.9,830.9 43.3,824 c -3.6,-5.2 -6.9,-10.6 -10.4,-15.9 -1.6,-2.5 -3.8,-4.9 -4.8,-7.6 -2.1,-5.8 -3.4,-11.8 -5.5,-17.6 -1.8,-4.8 -1.6,-14.1 1.7,-16.7 4,-3.2 8.4,-6.6 13.1,-8.2 4.3,-1.4 9.5,-3.3 14.2,0.3 1.7,1.3 3.7,2.6 5.8,2.8 9.5,1.3 14.5,9.3 20.9,14.7 6.5,5.5 11.3,12.9 16.9,19.5 7.8,9.2 15.8,18.4 23.5,27.7 4,4.8 7.4,10 11.4,14.8 4.3,5.2 9.3,9.8 13.5,15.1 9.6,12.2 18.8,24.5 28.1,36.9 7.6,10.2 15.3,20.3 22.7,30.7 5.2,7.4 9.4,15.5 14.9,22.6 8.1,10.5 15.2,21.5 21.2,33.4 3.6,7.2 8.3,13.9 11.9,21.2 2.9,5.9 5.6,12 7.2,18.3 0.9,3.8 -0.5,8.1 -0.8,12.2 -4.2,1.5 -8.1,2.9 -11.6,4.1 8.3,19.5 16.4,38.5 24.5,57.5 1.1,-2.1 0.8,-4.3 1.4,-6.3 5.3,-19 5.2,-38.6 7.4,-57.9 0.9,-8.1 1.6,-16.3 2.5,-24.4 0.9,-8.3 2,-16.6 3,-24.9 0.9,-7.2 1.9,-14.3 2.7,-21.5 0.2,-1.8 0.4,-3.7 0.2,-5.4 -1.6,-11.9 -2.9,-23.8 -5,-35.5 -2.7,-15.1 -5.6,-30.2 -9.3,-45 -3.5,-14.1 -8.3,-28 -12.3,-42 -1.7,-5.7 -2.9,-11.6 -4.3,-17.4 -2.1,-8.5 -4.1,-17.1 -6.5,-25.5 -3,-10.9 -6.4,-21.7 -9.5,-32.6 -1.5,-5.3 -2.9,-10.7 -4.5,-16 -2.4,-8.2 -5.2,-16.3 -7.5,-24.6 -2.8,-10.3 -5,-20.9 -8.1,-31.2 -3.9,-12.7 -8.4,-25.2 -12.7,-37.8 -3.7,-10.9 -7.2,-21.8 -10.9,-32.7 -0.6,-1.7 -1.8,-3.2 -2.9,-5.3 -0.8,1.3 -1.2,1.8 -1.5,2.3 -1.5,2.6 -3.1,5.1 -4.6,7.7 -2,-1.9 -4.6,-3.5 -6,-5.9 -6.4,-11.2 -11,-23.2 -18.6,-33.8 -1.9,-2.6 -2,-6.3 -3.6,-9.2 -3.8,-6.8 -8.7,-13.1 -11.8,-20.2 -6.4,-14.6 -14.9,-27.9 -23.4,-41.4 -4.3,-6.8 -8,-13.9 -12.2,-20.7 -6.5,-10.6 -13.4,-21.1 -19.8,-31.8 -7,-11.7 -13.4,-23.7 -20.3,-35.4 -4.2,-7.1 -9,-13.9 -13.5,-20.9 -3.2,-5.1 -6.2,-10.2 -9.3,-15.4 -1.3,-2.1 -2.6,-4.3 -4,-6.4 -3,-4.7 -7.9,-9.2 -8.3,-14.1 C 28,353.8 24.8,351.1 23.6,347.1 21.9,341.3 16.7,336.5 14,330.9 8.7,319.5 4,307.7 -1,296 c 0,-1.7 0,-3.3 0,-5 1,-2.1 2.1,-4.2 3,-6.4 1.8,-4.6 3.2,-9.2 8.8,-11.1 2.8,-1 4.3,-2 7.2,0.3 1.1,0.9 5.3,0.3 8,1.4 10.4,4 19.6,9.5 26.4,18.6 2.9,3.8 6,7.4 8.9,11.1 4.6,5.9 9.4,11.7 13.5,17.9 5,7.5 9.2,15.6 14,23.2 5.1,8.2 10.8,16.1 15.9,24.4 6.3,10.1 12.4,20.4 18.4,30.8 6.2,10.7 12.2,21.5 18.1,32.4 3.8,7.2 6.8,14.8 10.9,21.8 6.7,11.2 11.9,23.2 18.5,34.5 7.8,13.3 13.2,28 19.5,42.1 5.1,11.4 10.7,22.7 14.7,34.5 2.9,8.7 3.7,18.1 5.3,27.2 0.6,3.6 -0.3,6.2 -4.6,5.5 -0.5,2.1 -1.5,4 -1.1,5.6 1.7,7.1 3.4,14.2 5.7,21.1 4.4,13.1 9.4,26.1 13.9,39.1 3.7,10.7 7.5,21.5 10.8,32.3 4.3,13.8 8.2,27.7 12.2,41.6 2.8,9.7 5.2,19.5 8.1,29.2 1.6,5.3 4.5,10.2 5.8,15.5 4.2,17.6 7.9,35.4 12,53.1 2.4,10.4 5.6,20.7 8.1,31.1 1.5,6.3 2.5,12.8 3.7,19 0.3,-2.4 0.7,-5 0.9,-7.6 0.8,-9.3 1.9,-18.7 2.3,-28.1 0.2,-5.1 -0.4,-10.3 -0.9,-15.5 -1,-9.6 -2.1,-19.2 -3.6,-28.8 -1,-6.1 -3.1,-11.9 -4.3,-18 -1.5,-7.4 -2.4,-14.8 -3.8,-22.2 -2,-10.2 -4.2,-20.3 -6.2,-30.5 -3.6,-18 -7.2,-36.1 -10.8,-54.1 -2.1,-10.4 -4.2,-20.8 -6.2,-31.2 -2.3,-11.7 -4.5,-23.5 -6.8,-35.3 -1.1,-5.4 -2.3,-10.9 -3.2,-16.3 -1,-6.5 -1.7,-13 -2.7,-19.5 -1,-7 -2.4,-13.9 -3.3,-20.9 -1.2,-8.9 -1.8,-18 -3.2,-26.9 -2.1,-14 -5.3,-28 -6.7,-42.1 -1.5,-15.6 -1.6,-31.4 -2.2,-47.2 -0.4,-8.5 -0.9,-16.9 -0.9,-25.4 0,-8.6 0.2,-17.2 1.1,-25.8 0.7,-7.1 2.6,-14 3.9,-21 0.2,-0.8 0.3,-1.9 0,-2.5 -2.8,-4.2 -3.4,-11.6 -11.6,-8.5 -0.1,0 -0.3,-0.2 -0.4,-0.2 -9.8,-1.3 -15,-8.8 -19.5,-15.9 -7.1,-11.1 -12.9,-23 -19,-34.6 -4.8,-9.1 -9.3,-18.5 -13.9,-27.7 -1.3,-2.6 -2.5,-5.3 -3.9,-7.8 -3.8,-6.9 -7.8,-13.7 -11.6,-20.6 -1.2,-2.1 -1.8,-4.4 -3,-6.6 -2.9,-5.5 -6,-10.8 -8.8,-16.3 -2.4,-4.6 -4.4,-9.3 -6.9,-13.9 -4,-7.4 -8.3,-14.6 -12.2,-22.1 -3.5,-6.8 -6.3,-13.9 -9.7,-20.7 -3.5,-7.1 -7.8,-13.8 -11.1,-21 C 91.4,141.2 86.9,130 81.8,119.1 75.4,105.6 68,92.5 65.6,77.6 64.1,68.3 57.9,60.5 57.7,50.9 57.5,41.8 53.1,33 56.2,23.6 c 2,-5.9 11.3,-11 17.3,-9 5.7,1.9 10.5,4.3 15.3,8.7 8.9,8.1 14.8,18.1 21.1,27.8 7.2,11 12.4,23.4 18.5,35.2 0.9,1.7 2.1,3.3 2.9,5.1 2.6,5.5 4.8,11.3 7.7,16.6 3.8,7.1 8.4,13.8 12.3,20.8 5.1,9.1 10,18.4 15,27.7 4.3,8 8.7,16 13.1,23.9 4.6,8.2 10.3,15.9 13.6,24.6 5.3,13.6 14,25.2 20.3,38.1 1.1,2.2 2.1,4.4 3,6.6 2.2,5.6 4.3,11.2 6.7,17.4 0.8,-3.6 1.2,-6.4 2,-9.1 4,-13 8.4,-26 12.3,-39.1 5.2,-17.4 9.5,-35.1 15.1,-52.3 5.4,-16.5 8.8,-33.6 15.5,-49.8 3,-7.3 4.2,-15.3 6.7,-22.8 3.5,-10.3 6.7,-20.8 11.3,-30.6 7.6,-16.1 12.7,-33.5 23.7,-47.8 4.4,-5.7 10.2,-10.2 15.3,-15.4 0.6,-0.6 1,-1.4 1.5,-2.1 3.3,0 6.7,0 10,0 1.5,0.7 3,1.7 4.5,2 4.1,0.7 7,2.9 8.4,6.7 3.4,9.5 3.8,19.3 2,29.2 -1.9,10.8 -3.8,21.5 -6,32.3 -1,4.9 -2.9,9.6 -3.9,14.5 -2.4,11.5 -4.3,23.1 -6.7,34.6 -2.2,10.3 -5,20.5 -7.2,30.8 -1.8,8.3 -2.9,16.8 -4.7,25.1 -2.9,13 -6.2,26 -9.5,39 -4.3,16.9 -8.6,33.7 -13.3,50.5 -2,7.3 -5.3,14.3 -7.6,21.6 -1.6,5.2 -2.1,10.8 -3.9,16 -3,8.6 -6.1,17.2 -10.2,25.3 -5,9.6 -11,18.8 -16.9,27.8 -1.1,1.6 -4.2,2.5 -6.4,2.7 -6.3,0.5 -7.9,1.8 -7.6,8.2 0.1,2.9 0.9,5.8 1.9,8.5 4.6,12.1 9.5,24.1 14,36.3 2.1,5.5 3.4,11.4 5.4,17 2.8,8 6.2,15.7 8.5,23.8 2.7,9.7 4.5,19.7 6.7,29.5 3.1,14.1 7.7,28.1 9,42.4 1.5,16.4 6.5,32.3 6.5,48.9 0,6.4 1.4,12.8 1.8,19.2 0.8,11.1 2,22.1 1.9,33.2 -0.3,23.9 2.4,47.5 4,71.2 0.9,13.1 0.8,26.2 1,39.3 0,3.1 -0.7,6.2 -0.9,9.3 -0.4,8.9 -0.7,17.8 -1.1,26.7 -0.7,15.9 -1.4,31.9 -2.1,47.8 -0.2,5.3 -1.9,11 -0.3,15.7 2.8,8.6 3.7,17.3 4.6,26.1 0.9,9.1 2.8,18.1 4.3,27.1 1.1,6.8 2.8,13.5 3.4,20.3 1.1,12.4 1.6,24.9 2.4,37.3 0.8,11.3 1.8,22.6 2.6,33.9 0.3,4 0,8.1 0.4,12.1 0.7,7.3 2,14.6 2.6,22 1.2,14.4 2.1,28.8 3.1,43.2 0.1,2.1 0.5,4.1 0.5,6.2 -0.4,10.7 -1.1,21.4 -1.3,32.2 -0.1,7.7 0.9,15.4 0.7,23.1 -0.2,8.7 -1.2,17.4 -1.9,26.1 -0.7,9.2 -1.5,18.5 -2,27.7 -0.8,14.2 -1.3,28.5 -2.1,42.7 -0.5,9.8 -1.3,19.5 -2,29.3 -0.6,8.9 -1.2,17.7 -2,26.6 -0.6,6.2 -1.6,12.3 -2.5,18.5 -1.5,10.7 -3.3,21.3 -4.4,32.1 -1.2,12.1 -2.6,24.1 -6.5,35.7 -0.7,2 -1.2,4 -1.6,6.1 -1.3,7.1 -2.1,14.2 -3.7,21.2 -2.6,11.3 -6,22.3 -8.3,33.6 -1,4.8 0.3,10.1 -0.1,15.1 -0.7,9.3 -1.7,18.6 -3,27.9 -1.8,12.4 -4,24.8 -5.9,37.2 -2.1,14.1 -4,28.2 -6,42.3 -0.6,4 -1.4,8 -2,11.9 -2,12.1 -4.1,24.2 -6.1,36.2 -0.9,5.4 -1.4,10.8 -2.1,16.2 0.6,0.1 1.1,0.1 1.7,0.2 0.6,-5.2 0.9,-10.5 2,-15.6 1.7,-7.7 3.9,-15.4 5.9,-23 3.8,-14.5 7.8,-28.9 11.2,-43.5 3.8,-16.2 7.2,-32.4 10.4,-48.7 3,-15.5 5.4,-31.2 8.1,-46.8 1.9,-10.8 4,-21.5 5.9,-32.2 2,-11.6 4,-23.2 5.9,-34.7 0.8,-4.5 1.5,-9 2.1,-13.6 1.5,-11 2.3,-22.2 4.4,-33.1 3.2,-16.6 7.2,-33 7.7,-50 0.1,-4.4 0.7,-8.9 1.1,-13.3 1.6,-18.3 3.2,-36.7 4.9,-55 0.7,-7.3 1.7,-14.7 2.5,-22 0.7,-6.2 1.8,-12.3 2.3,-18.5 0.6,-7.5 0.5,-15.1 1.3,-22.6 1.1,-11.4 2.7,-22.8 3.8,-34.2 0.4,-4.6 -0.3,-9.4 0.2,-14 1.4,-12.2 3.5,-24.3 4.8,-36.5 1.7,-16.9 2.6,-33.8 4.1,-50.7 1.4,-15.5 3.3,-31 4.9,-46.6 1.7,-16.1 3.3,-32.2 5,-48.3 2,-18.4 3.8,-36.9 6,-55.3 1.8,-14.8 3.9,-29.5 6,-44.3 2.3,-15.6 4.6,-31.3 7.2,-46.9 1.4,-8.2 3.4,-16.2 5.1,-24.4 2.6,-12.1 5,-24.2 7.7,-36.3 1.4,-6.3 3.4,-12.5 5.2,-18.6 1.1,-3.5 2.4,-7 3.6,-10.5 0.7,-2.3 1.1,-4.6 2.1,-6.8 2.8,-6.3 5.7,-12.6 9.1,-20 -3.1,0 -5.3,0.1 -7.5,0 -4.7,-0.2 -9,-2.3 -9.4,-7 -1.2,-12.4 0,-25 6.5,-35.8 6.2,-10.4 13.8,-20 21.5,-29.4 13.2,-16.3 26.7,-32.4 40.3,-48.3 7.7,-9 15.8,-17.6 23.7,-26.3 5.2,-5.6 10.5,-11.1 15.7,-16.8 8.8,-9.6 17.2,-19.5 26.3,-28.8 10.3,-10.6 21.2,-20.7 31.9,-31.1 4.6,-4.5 8.9,-9.6 14.1,-13.3 12.7,-9.2 23.9,-20.4 37.9,-27.8 8.4,-4.5 16.3,-10.6 26.3,-9.8 4.7,0.4 10.3,0.9 13.4,5.9 1,1.6 2.1,3.1 3.2,4.6 0.1,4.6 0.1,9.6 0.1,14.6 z M 287.8,756.3 c 0.4,-0.1 0.8,-0.2 1.3,-0.3 0,-4.7 0,-9.3 0,-14 0,-14.2 0.2,-28.5 -0.1,-42.7 -0.2,-7.4 -1.3,-14.7 -1.8,-22.1 -0.2,-2.6 0.8,-5.2 0.6,-7.7 -1.1,-13.9 -2.7,-27.8 -3.6,-41.8 -1,-16.7 -1.4,-33.4 -2.1,-50.1 -0.1,-2 0.1,-4 -0.1,-6 -1.3,-12.6 -2.5,-25.2 -4,-37.7 -1.1,-9.7 -2,-19.4 -3.7,-29 -1.5,-8.1 -4.3,-16 -6.2,-24.1 -4.7,-19.6 -10,-39 -17.5,-57.8 -3.1,-7.8 -6.1,-15.5 -9.3,-23.3 -0.4,-0.9 -1.1,-1.6 -1.7,-2.5 -0.5,0.1 -1,0.2 -1.5,0.3 -0.4,13 -1,26 -1.1,39 0,9.9 0.2,19.9 1.1,29.7 1.2,13.4 3.2,26.7 4.8,40 0.9,7.7 1.2,15.4 2.3,23.1 1.7,11.4 3.9,22.7 5.7,34.1 1.5,9.9 2.2,19.9 4.2,29.6 3.2,16 7.2,31.8 10.8,47.7 2.7,11.9 5.5,23.8 7.9,35.7 2.3,11.5 4,23.2 6.1,34.7 1.8,9.9 4.1,19.7 5.9,29.6 1,5.3 1.4,10.4 2,15.6 z m -63.5,663 c 5,-6.8 9.1,-13.1 14,-18.7 3.6,-4 8.4,-7 12.5,-10.6 1.6,-1.4 3.5,-3.3 4,-5.2 1.5,-6.2 2.4,-12.5 3.6,-18.7 1.8,-9.8 3.8,-19.5 5.5,-29.3 1.9,-11.1 3.7,-22.2 5.1,-33.4 1.6,-12.9 3,-25.8 3.8,-38.8 0.5,-7.7 -0.6,-15.5 -0.8,-23.3 -0.4,-10.6 -0.7,-21.2 -1,-31.8 -0.1,-3.5 0.3,-7.1 -0.1,-10.6 -1.1,-9.6 -2.5,-19.2 -3.9,-28.7 -0.4,-3.1 -1.2,-6.1 -1.9,-9.1 -1.9,6.4 -3.3,12.7 -4.1,18.9 -1,7 -1.3,14.1 -2.2,21.1 -1.4,10 -3.1,20 -4.8,30 -2.6,14.9 -5.2,29.9 -8,44.8 -0.8,4.6 -2.3,9.2 -3,13.8 -1.6,11 -2.8,22.1 -4.2,33.1 -0.4,3.4 -0.9,6.8 -1.5,10.2 -1.1,7 -2.3,13.9 -3.4,20.9 -1.6,10.7 -3,21.4 -4.6,32.1 -1.5,11.1 -3.2,22 -5,33.3 z m 53.5,-23.3 c 0.8,0 1.6,0 2.4,0 2.6,-12.7 5.4,-25.3 7.8,-38 1.3,-7.1 2,-14.3 3.1,-21.5 0.8,-5.4 2.9,-10.4 3.5,-16.2 1.2,-11.6 4.3,-23 4.7,-35 0.4,-14.1 5.8,-27.7 4.8,-42 -0.1,-0.8 0.4,-1.6 0.5,-2.4 0.5,-4.9 1.1,-9.8 1.4,-14.7 0.4,-5.3 0.5,-10.6 1,-15.9 0.9,-10.6 2.1,-21.2 3.1,-31.9 0.5,-5.9 0.9,-11.9 1.1,-17.8 0.7,-14.9 1.3,-29.8 1.8,-44.6 0.2,-5.3 -0.6,-10.6 -0.5,-15.9 0.3,-9.9 1.3,-19.8 1.5,-29.7 0.1,-7.8 -1,-15.5 -0.8,-23.3 0.4,-19.5 -2.2,-38.8 -4.1,-58.1 -1.6,-16.6 -3.4,-33.2 -5,-49.8 -0.5,-5.5 0,-11.2 -1.2,-16.5 -1.3,-5.5 -3.2,-10.3 -2.2,-16.5 1,-6.3 -0.9,-13.1 -1.6,-19.6 -0.1,-0.9 -0.6,-1.8 -1.3,-3.7 -0.8,11.8 -1.5,22.4 -2.2,32.9 -0.5,7 -1.6,14 -1.3,20.9 0.4,8.8 1.9,17.6 2.8,26.5 1.3,12 2.6,24.1 4,36.2 1.6,14.2 3.5,28.4 4.8,42.7 1.3,14.5 2.2,29.1 3.2,43.7 0.1,1.5 0.1,3 0.1,4.5 0.5,10.7 1.5,21.3 1.3,32 -0.2,11.5 -1.4,23 -2.5,34.5 -1.1,11.4 -2.6,22.8 -4.2,34.2 -1.5,10.8 -4.5,21.7 -4.4,32.5 0,15 -4,29.3 -6,43.9 -1.2,8.3 -3.2,16.5 -4.2,24.9 -1.1,9.2 -1.1,18.4 -2.2,27.6 -0.8,6.3 -2.9,12.4 -4,18.7 -0.4,2.5 0.4,5.2 0.7,7.8 0.1,0.8 0.3,1.6 0.1,2.3 -0.9,4.4 -2,8.8 -2.6,13.3 -1.4,9.7 -2.5,19.4 -3.6,29.2 -0.4,1.4 0.1,3.1 0.2,4.8 z m 8.2,-173.7 c 6.2,-18.6 7,-38.4 8.1,-58.1 1.1,-19.8 2.1,-39.6 2.3,-59.3 0.1,-20 -0.2,-40 -1.6,-59.9 -1.3,-19.5 -4.2,-38.9 -6.3,-58.3 -0.7,2.1 -0.3,4.1 -0.5,6.1 -0.9,7.1 -2.1,14.3 -2.9,21.4 -1.8,14.8 -3,29.7 -5.2,44.4 -2.6,18.1 -5.9,36.1 -8.9,54.1 -0.3,1.6 -1.1,3.3 -0.8,4.8 1.5,6.2 3.3,12.2 5.1,18.3 1.5,5.4 3.7,10.6 4.6,16.1 1,6.5 0.7,13.2 1.2,19.8 0.6,7.9 1.3,15.7 2.1,23.6 0.8,8.9 1.8,17.9 2.8,27 z"
   id="path3" />
</svg>