<?xml version="1.0" encoding="UTF-8" standalone="no"?>
<!-- Created with Inkscape (http://www.inkscape.org/) -->

<svg
   xmlns:svg="http://www.w3.org/2000/svg"
   xmlns="http://www.w3.org/2000/svg"
   version="1.1"
   width="100%"
   height="100%"
   viewBox="0 0 1207 1352"
   id="Layer_1"
   xml:space="preserve"><defs
   id="defs120" />
<style
   type="text/css"
   id="style3" />
<g
   id="_x34_bUkXG_1_">
	<g
   id="g6">
		<path
   d="m 1207,483 c 0,0.7 0,1.3 0,2 -0.9,3.4 -1,7.2 -2.8,10 -6.3,10.2 -12.7,20.3 -19.9,29.8 -4.6,6.1 -10.5,11.1 -16.1,16.4 -7.2,6.9 -14.2,14.1 -22.2,20.1 -10.6,7.9 -22.1,14.4 -32.9,22.1 -4.8,3.5 -8.6,8.3 -13.4,13.2 3.7,-0.7 6.8,-1.3 9.9,-1.9 0.9,-0.2 2.6,-0.5 2.7,-0.3 1.2,4 4.2,1.8 6.4,1.8 4.3,0 8.7,-0.2 13,-0.1 3.2,0.1 4.8,1.2 3.6,5 -2.4,7.4 -4.4,14.9 -6.9,23.7 7.8,0 14.5,0.4 21.2,-0.1 9.3,-0.8 18.2,0.9 26.8,4 3.6,1.3 4.6,4.7 2.4,7.9 -1.3,2 -2.9,3.9 -4.7,5.3 -8.1,6.2 -16.3,12.2 -24.1,18 4.2,2.9 9.2,6.2 14.3,9.7 -1.7,2.1 -2.5,3.1 -4,5.1 11.7,0 22.4,0 34.2,0 -0.7,2.9 -0.6,5.8 -1.8,6.8 -8.5,6.4 -17.4,12.3 -26.1,18.5 -2.3,1.6 -4.3,4.1 -6.9,5 -5.9,2.1 -12.1,3.5 -18.2,5.4 -1,0.3 -1.7,1.5 -3.3,2.9 7.7,2.4 14.7,4.9 21.9,6.6 5.5,1.4 7.4,2.8 8.2,10.9 0.2,1.7 -2.6,3.7 -4.1,5.5 -0.5,0.6 -1.2,1.2 -1.8,1.7 -10.4,7.9 -21.9,13.3 -35,15.2 -2.1,0.3 -5.2,0.9 -5.8,2.2 -1.8,4.1 -5.4,2.7 -8.2,3.6 -2.3,0.8 -4.9,0.9 -8.4,1.5 6.7,10.5 12.9,20.2 19.6,30.5 -5.8,2.3 -11.1,4.1 -16.1,6.5 -1.9,0.9 -3.1,3.1 -5.4,5.5 -1.3,0.4 -3.8,1.6 -6.3,1.7 -7.2,0.4 -12,7.1 -19.6,6.7 -5.6,-0.3 -11.2,1 -16.8,0.7 -5.1,-0.3 -10,1.4 -15.3,-0.7 -5.7,-2.2 -12.2,-2.5 -18.1,-4.3 -15.4,-4.8 -28.2,-14 -39.7,-25.2 -1.1,-1 -2.6,-2 -3,-3.2 -2.6,-6.9 -4.6,-8.1 -11.7,-8.5 -7.5,-0.4 -15.3,-0.2 -22.4,-2.3 -9.5,-2.9 -17.8,-1 -26.1,2.9 -1.8,0.8 -3.1,2.9 -4.1,3.8 6.5,2.8 12.2,5.1 17.8,7.7 7.3,3.5 14.7,7.1 21.7,11.2 9.2,5.3 18.1,11 27.1,16.7 9.6,6.1 18.9,12.5 28.5,18.7 9.2,5.9 18.4,11.7 27.8,17.3 8,4.8 16.2,9.4 24.4,13.8 5.1,2.8 10.5,5.1 16.4,7.9 0,0 0.5,1.3 1.4,1.8 10.2,6 20.4,11.9 30.7,17.7 3.9,2.2 8.5,3.5 11.9,6.3 5.7,4.6 10.8,10 16.1,15.1 3.2,3.1 6.4,6.2 9.4,9.6 0.8,0.9 1.2,3 0.8,4.1 -0.4,0.9 -2.3,1.4 -3.6,1.6 -19.9,2.7 -39.3,-5.4 -59.4,-2.3 -8.2,1.3 -16.5,-2.3 -23.6,-7.4 -2.2,-1.5 -5.3,-3.5 -7.4,-3 -7.8,2.2 -13.9,-1.1 -19.8,-5.1 -6.7,-4.6 -13.1,-9.8 -20,-15 0.8,4.7 -1.8,3.5 -3.9,2.4 -1.8,-1 -3.2,-2.8 -5,-3.9 -8.4,-5.2 -16.9,-10.3 -25.3,-15.4 -6.3,-3.8 -12.5,-7.8 -18.8,-11.6 -11.1,-6.9 -22.5,-13.4 -31.5,-23.3 -4.9,-5.4 -11,-9.6 -16.3,-14.6 -3.1,-3 -6.8,-6.3 -8,-10.2 -1.5,-4.8 -1.4,-10.5 -0.6,-15.5 0.8,-5.3 3.1,-10.5 5.2,-16.9 -2.4,0.8 -4,0.9 -5.3,1.7 -12,7.5 -24.5,13.9 -38,18.4 -9.1,3 -18.3,5.8 -27,9.6 -11.9,5.3 -23.5,11.4 -35.1,17.4 -3.9,2 -7.8,4.5 -10.7,7.7 -3,3.4 -4.7,8 -6.3,10.9 0,3.2 0.8,6 -0.1,7.9 -2.8,5.8 -6.4,11.3 -9.3,17 -2.3,4.6 -4.1,9.4 -6.2,14.1 -0.5,1 -0.9,2.1 -1.5,3.1 -5.9,9.8 -16.8,15 -22,25.6 -2.2,4.4 -7.8,7 -11.8,10.5 -6.5,5.7 -12.9,11.4 -19.3,17.1 -0.9,0.8 -1.4,2 -2.1,3 9.7,-5.9 18.7,-12.5 27.5,-19.4 8,-6.3 15.8,-13.1 23.8,-19.5 12.1,-9.7 24.3,-19.3 36.6,-28.7 7.3,-5.6 14.9,-11 22.5,-16.2 1.1,-0.8 3.6,-1.2 4.3,-0.6 0.9,0.8 1.4,3.2 0.9,4.4 -2.3,6.1 -4.9,12 -7.6,18 -1,2.3 -2.4,4.3 -3.7,6.6 0.8,0 1.6,0 2.5,0 -0.1,0.8 0.1,1.4 -0.2,1.7 -6,9.5 -11.9,19 -18.3,28.3 -3.6,5.1 -8.1,9.6 -12,14.5 -3.8,4.8 -6.8,10.2 -11.1,14.5 -5.4,5.5 -11.7,10.1 -17.6,15.2 -1.5,1.3 -2.8,2.7 -4.2,4.1 2.2,2.3 -0.2,2.5 -1.4,3.3 -4,2.6 -8,5.4 -12,8 -7.4,4.7 -14.5,9.9 -22.2,14 -7.4,4 -15.4,6.8 -23,10.3 -1.7,0.8 -2.8,2.6 -4.5,3.3 -6,2.4 -12.1,5.1 -18.4,6.4 -7.4,1.6 -15.1,4 -22.5,-0.4 -4.3,-2.6 -8.4,-5.3 -12.4,-7.8 -5.6,5.6 -11.5,11.6 -17.5,17.7 0.1,0.1 0.9,0.7 1.7,1 10.6,3.2 21.3,5.8 31.7,9.6 8.5,3.1 16.9,6.9 24.8,11.4 5.3,3 9.6,2.4 14.8,0.3 9.5,-4 19.1,-8.5 29.1,-10.6 14.7,-3.1 28.2,-9.3 42,-14.7 9.3,-3.6 18.1,-8.2 27.5,-11.3 9.7,-3.2 19.7,-5.4 29.7,-7.7 9.1,-2.1 18.2,-3.9 27.4,-5.6 1.7,-0.3 3.6,0.4 5.3,0.7 -0.8,9.8 -7.2,15.2 -12.7,21.3 -2.9,3.2 -8.5,4.6 -7.5,9.8 -3.5,1.8 -7.4,2.9 -10,5.3 -12.6,11.6 -27.6,19.4 -42.5,27.4 -7.3,3.9 -15.2,6.8 -23,9.4 -4.4,1.4 -8.4,3.4 -12.5,5.6 -7.3,3.7 -15.4,5.8 -23.2,8.6 1.2,2 2.6,4.3 3.9,6.8 3.8,7.7 7.6,15.5 11.4,23.3 0.3,0.6 1,1.3 0.9,1.5 -4,5.6 0.8,10.8 0.8,16.1 0,4.3 0,8.6 -0.2,12.9 -0.1,3.2 -1.8,3.8 -4.7,2.9 -3.6,-1.1 -7.3,-1.6 -10.9,-2.6 -8.9,-2.5 -18.1,-4.4 -26.6,-7.9 -9.5,-3.9 -18.5,-9.2 -27.7,-14.1 -2.9,-1.5 -5.6,-3.5 -8,-5.6 -3.8,-3.3 -7.3,-7 -11,-10.5 -0.4,-0.4 -1.4,-0.3 -2.1,-0.2 -7.4,1.1 -14.8,2.3 -22.2,3.4 -7.8,1.1 -15.7,-1 -23.8,1.5 -3.8,1.2 -9.5,-2.6 -13.9,-4.8 -9.5,-4.8 -12.2,-14 -15.3,-23.9 -3.2,5.8 -6.5,11.5 -9.2,16.5 8.4,7 16.5,12.2 22.5,19.2 5.3,6.1 8.3,14.2 12.1,21.5 2.4,4.7 1.7,5.9 -3,7.1 -6.1,1.7 -12.5,3 -18.2,5.7 -5.9,2.9 -13.2,-0.2 -18.2,5.1 -0.5,0.5 -1.6,0.4 -2.4,0.4 -4.9,0.1 -9.8,0.2 -14.7,0.2 -3.6,0 -7.2,0.1 -10.7,-0.1 -4.2,-0.3 -8.5,-2.1 -12.1,1.8 -0.5,0.5 -2,0.7 -2.7,0.3 -4,-1.8 -6.9,-0.3 -9.5,2.7 -3.2,3.8 -6.7,7.4 -9.9,11.2 -7.1,8.5 -14.1,17.1 -20.4,24.8 1,3 2.6,5.4 2.2,7.3 -1.1,5.4 -2.4,10.9 -4.8,15.8 -3.8,7.6 -8.2,15 -13.2,21.8 -6.7,9.1 -14.3,17.5 -21.5,26.2 -5.2,6.2 -11.3,11.9 -15.7,18.7 -6.6,10.1 -12,21 -17.9,31.6 -0.9,1.6 -1.4,3.6 -2.7,4.5 -4,2.9 -5.7,7.3 -8.3,11.2 -3,4.5 -6.4,8.7 -9.7,13 -0.6,0.7 -1.6,1.4 -2.4,1.5 -3.7,0.2 -7.8,1 -11.1,-0.2 -4.2,-1.5 -9.4,-1.6 -11.7,-7 -3,-7.2 0.1,-19.1 6.8,-24.8 2.2,-1.9 4.2,-4.1 5.7,-6.6 6.5,-10.9 12.3,-22.3 19.2,-33 5.2,-8.1 8.6,-16.9 11.6,-25.9 3.4,-10 7,-20 10.8,-29.9 1.8,-4.7 5.3,-8.8 6.5,-13.6 1.9,-7.6 7.7,-12.1 11.9,-17.9 2.7,-3.7 7,-6.6 2,-11.9 -2.7,-2.8 -4,-7 -6,-10.5 -3.8,-6.7 -7.7,-13.5 -11.5,-20.2 -0.6,3.2 -0.5,6.4 -1.7,8.9 -2.7,5.9 -6,11.6 -9.1,17.3 -0.4,0.8 -1.3,2.2 -1.8,2.1 -4.2,-0.6 -5.3,3.1 -7.8,4.9 -10.9,7.7 -22,15.1 -33.1,22.5 -3,2 -6.2,5.5 -9.2,5.3 -6.6,-0.5 -9.7,4.5 -14.4,7 -6.1,3.3 -12.3,6.6 -18.8,9.2 -5.4,2.2 -11.1,3.6 -16.6,5.4 -9.5,3.1 -18.7,8.2 -29.4,4.9 -0.8,-0.2 -2,0.8 -3,1.3 -5.9,2.5 -11.6,5.7 -17.7,7.2 -3.8,0.9 -8.8,4 -12.3,-1.5 -0.2,-0.4 -1.8,0.1 -2.8,0.2 -6.7,0.5 -13.5,1.3 -20.2,1.5 -4.8,0.1 -9.7,-0.6 -14.5,-0.9 -5.3,-0.3 -10.4,-0.1 -15.8,-2.6 -4.4,-2 -3.2,-4 -2.5,-6.6 0.4,-1.5 1.6,-2.8 2.6,-4.1 4.6,-6.6 8.3,-14.1 14,-19.5 8.5,-7.9 18,-14.7 27.8,-21 11.1,-7.1 22.7,-13.6 34.5,-19.6 13,-6.7 26.4,-12.7 39.7,-18.8 17.2,-7.8 34.3,-15.8 52.5,-20.9 12.9,-3.7 26.1,-4.9 39.5,-5.6 -8.5,-8.2 -14.4,-17.8 -15,-30.6 -4.2,0.5 -8.6,0 -11.9,1.6 -8.8,4.3 -16.8,1.4 -25.2,-1 -5.1,-1.5 -9.8,-4.4 -15.9,-1.6 -5.8,2.6 -12.2,5.3 -19,2.5 -1,-0.4 -2.5,0.1 -3.8,0.4 -7.1,1.5 -14.2,3.3 -21.4,4.5 -5.8,1 -11.8,1.1 -17.7,1.9 -6.1,0.8 -12.2,2 -18.3,2.7 -1.6,0.2 -4.4,-0.3 -4.9,-1.3 -2,-4.2 -5.3,-2.9 -8.1,-2.2 -7.7,2.1 -15.4,2.1 -23.3,1 -5.8,-0.8 -9.8,-5.6 -16.6,-4.7 -5.5,0.7 -11.6,-2.3 -17.4,-4.1 -3,-0.9 -5.7,-2.7 -8.6,-3.9 -8.1,-3.3 -16.2,-6.5 -22.4,-13 -2.9,-3.1 -2.4,-5.2 0.6,-7.7 8.8,-7.6 18.5,-13.6 29.7,-17.1 7.9,-2.4 15.4,-5.8 23.4,-7.9 5.8,-1.5 12,-1.5 18,-2.2 15.7,-1.9 31.3,-3.8 47,-5.7 0.2,0 0.4,-0.4 0.9,-0.8 -1.2,-0.7 -2.2,-1.3 -3.7,-2.2 1.6,-0.4 2.3,-0.6 3.7,-0.9 -2.8,-1.8 -4.8,-4.2 -7.1,-4.5 -7.9,-0.9 -16,-1 -23.9,-1.6 -2.5,-0.2 -5.1,-0.6 -7.4,-1.3 -3.2,-1 -6.3,-2.6 -9.4,-3.7 -5.9,-2.1 -12.2,-3.5 -13.6,-12.7 7,-6.6 14.8,-13.9 21.6,-20.3 -3.7,-11.4 -7.3,-22.1 -10.5,-33 -0.3,-1.1 1.4,-3.6 2.8,-4.3 1.8,-0.8 4.2,-0.7 6.3,-0.6 7,0.5 13.7,2.1 21.2,0.5 5.9,-1.3 12.8,2.1 19.3,3.4 1.5,0.3 3.1,0.5 5,0.8 -2.6,-4.8 -6.3,-8.5 -6.4,-12.2 0,-6.3 -3.9,-10.1 -7.8,-12.2 -7,-3.8 -14.9,-6 -22.7,-8.4 -8.9,-2.7 -18.1,-4.4 -26.9,-7.2 -3.9,-1.2 -7.3,-3.9 -10.7,-6.3 -1.5,-1 -2.2,-3.2 -3.7,-4.2 -3.3,-2.3 -6.8,-4.3 -10.3,-6.4 -1.1,-0.7 -2.2,-2.1 -3.2,-2.1 -6.5,0.1 -13.1,0.1 -19.6,0.9 -9.1,1.1 -18.1,3.1 -27.2,4 -3.5,0.4 -7.5,-2.3 -10.7,-1.5 -9.1,2.3 -18.1,3 -27.3,1.6 -0.4,-0.1 -0.8,-0.3 -1.5,-0.5 0.6,-1.2 1.1,-2.1 1.4,-2.9 -9.6,-2.2 -19,-4.3 -28.4,-6.4 4,-13.2 10.9,-23.4 20.4,-32.1 2.6,-2.4 3.9,-6.4 6.7,-8.3 10.4,-7.1 21.3,-13.5 31.9,-20.3 1.9,-1.2 3.7,-2.7 5,-4.5 4.4,-6.6 8.2,-13.7 13,-20.1 6.5,-8.8 13.6,-17.2 20.5,-25.7 8.7,-10.6 17.6,-21 26.1,-31.7 6.8,-8.5 14.3,-16.1 23.3,-22.2 6.1,-4.2 12.3,-8.3 18.9,-12.7 -5.5,-1.2 -10.4,-2.3 -15.5,-3.4 -0.2,0.8 -0.2,1.7 -0.6,2.3 -8,12.8 -20.7,18 -34.8,20.3 -7.6,1.3 -15.4,1.7 -23.1,1.9 -3.8,0.1 -7.8,-1.1 -11.6,-2.1 -3.4,-0.9 -6.7,-2.5 -10.2,-3.3 -2.8,-0.6 -5,-3 -3.9,-5.7 3.3,-8.5 6.6,-17.1 13.9,-23.3 1.4,-1.2 2.2,-3 2.8,-3.8 -5,-6.9 -9.5,-13 -14,-19.2 -2,-2.7 -4.3,-5.3 -6,-8.2 -1.6,-2.8 -0.9,-3.1 2,-3.8 3.9,-0.9 7.6,-2.4 12.5,-3.9 -2,-1.5 -2.6,-2.2 -3.3,-2.4 -3,-0.8 -6.1,-1 -9,-2.1 -5,-1.8 -9.9,-4 -14.9,-6.1 -6.7,-2.7 -14.6,-3.4 -17.5,-11.9 -0.3,-1 -2.3,-1.5 -3.6,-2.1 -7.6,-4 -15.3,-7.9 -22.8,-12 -1,-0.5 -1.6,-1.8 -2.2,-2.8 -0.8,-1.2 -1.2,-3 -2.3,-3.8 -3.9,-2.6 -8.3,-4.4 -12.1,-7.2 -7.6,-5.7 -17,-9.7 -20.1,-20 -0.3,-0.9 -1.3,-1.5 -2,-2.2 -3.9,-3.2 -8.1,-6.2 -11.5,-9.8 -3.4,-3.5 -7.6,-7.4 -8.5,-11.7 -0.9,-4.3 -2.7,-7.4 -5,-10.7 -3.6,-5.1 -7.5,-10 -7.6,-16.7 0,-1.1 -1,-2.3 -1.6,-3.4 -4.2,-6.9 -7.8,-14.2 -8.1,-22.5 -0.2,-4.4 2.3,-7.8 5.4,-7.2 8.3,1.7 16.8,2.8 23.8,8.2 1.7,1.3 3,3.2 4.8,4.3 6.5,4.1 13.3,7.8 19.7,12 7.2,4.8 13.9,10.4 21.3,15 10.4,6.4 21.4,11.7 31.7,18.2 14.6,9.1 28.6,19.5 43.4,28.2 17.1,10.1 34.8,19 53.2,28.9 -6.4,-13.1 -16.7,-23 -20.1,-36.7 -1.6,0.7 -3.6,2 -5.8,2.3 -4.6,0.6 -9.6,1.7 -14,0.7 -7.9,-2 -15.3,-5.4 -23,-8.2 -12.6,-4.6 -23.4,-12.3 -33.9,-20.3 -4.9,-3.7 -9,-8.9 -14.4,-11.5 -10.7,-5 -17.6,-13.9 -25.6,-21.8 -0.3,-0.3 -0.8,-0.9 -0.8,-1.2 0.7,-3.6 -2.2,-4.5 -4.3,-6.2 -7.5,-6.1 -15.5,-11.8 -19.6,-21.1 -1.5,-3.3 -3.7,-6.6 -6.3,-9.1 -4.4,-4.3 -8,-10.1 -8.3,-15.3 -0.4,-6.7 -3.4,-12.1 -5.3,-18 -1,-3.4 0.1,-3.8 2.1,-4.2 3.2,-0.7 6.5,-0.8 9.7,-1.1 6,-0.6 12,-1.2 18,-1.9 6,-0.7 11.9,-3.6 18.1,-0.1 3.9,2.2 7.7,1.9 12,-0.3 2.2,-1.1 6.2,0.3 9,1.4 2.8,1.1 5.1,3.5 7.9,4.8 5.1,2.5 10.4,4.6 15,6.6 0.3,-1.2 0.9,-3.6 1.3,-6 0.2,-0.9 -0.1,-1.9 -0.2,-2.8 -0.8,-4.3 -1.7,-8.6 -2.3,-13 -0.1,-1.1 0.6,-2.5 1.2,-3.5 1.6,-2.7 3.8,-5.1 4.8,-8 1.8,-4.9 9.1,-9.9 14,-8 5.6,2.1 10.8,5.3 16.2,8 0.4,0.2 0.5,0.8 0.8,1.2 2.7,3.1 4.9,7.2 8.4,9 3.1,1.6 5,2.7 5.6,6.3 0.5,2.9 2,5.7 3.3,9.1 0.5,0.1 2,0.4 2.3,0.4 1.4,3.3 2,6 3.4,8.1 1.2,1.9 3.8,3 4.9,5 2.1,3.6 3.6,7.6 5.4,11.3 0.4,0.9 1,1.7 2.2,3.7 3.7,-6.1 6.4,-10.9 9.5,-15.6 3.4,-5.1 6.8,-10.2 10.6,-15.1 1.3,-1.7 3.9,-2.4 5.7,-3.8 4.6,-3.4 5.2,-8.7 5.5,-13.7 1,-15.9 5.9,-30.4 16.4,-44.4 -4.2,0.7 -7.2,1.1 -10.2,1.8 -5.7,1.3 -11.4,2.7 -17.1,3.9 -0.6,0.1 -2.3,-1.2 -2.2,-1.8 0.7,-10.8 0.1,-21.7 4.4,-32 0.2,-0.5 -0.2,-1.3 -0.4,-1.9 -0.5,-1.1 -1.1,-2.2 -1.7,-3.3 -8.5,-4.4 -17.6,-8.6 -26.2,-13.6 -5.5,-3.2 -10.3,-7.6 -15.5,-11.2 -4.1,-2.8 -8.9,-4.9 -12.8,-8.1 -2.9,-2.3 -4.5,-6.2 -7.1,-8.8 -9.6,-9.5 -16.2,-20.8 -22.4,-32.6 -2.1,-3.9 -1,-6.4 2.8,-7.8 3,-1.1 6.2,-1.8 9.4,-2.3 5.7,-0.9 11.5,-2.3 17.2,-2 9.6,0.6 19.2,2.1 28.7,3.6 11.1,1.8 22.1,3.7 33.1,6.2 10.8,2.5 21.4,5.9 32.1,8.6 7.7,1.9 15.6,3.2 23.3,5 4.2,1 8.1,0.9 12.3,-1 4.4,-2 9.3,-3.2 14.2,-3.7 10.6,-1.1 21.4,-1.5 33,-2.3 -2.6,-2.7 -4.7,-4.8 -6.7,-7 -4.5,-5.1 -8.9,-10.2 -13.4,-15.4 -2.8,-3.2 -5.4,-3.4 -8.8,-0.4 -6.8,6.1 -14.2,11.3 -23.5,13.6 -12.9,3.1 -25.5,1.3 -37,-3.9 -12.7,-5.7 -24.5,-13.2 -36.5,-20.3 -6.5,-3.8 -12.7,-8 -18.7,-12.6 -6.9,-5.3 -13.9,-10.8 -19.8,-17.1 -4.1,-4.4 -12.8,-6.3 -10.1,-15.4 0.1,-0.3 -0.8,-1 -1.2,-1.5 -6.2,-7.9 -13.9,-14.5 -18.1,-24.4 -3.9,-9.2 -10.6,-17.1 -11.1,-27.8 -0.4,-7.8 -1.9,-15.5 -3.1,-24.1 3.7,0.5 5.9,0.8 8.2,1.2 7.1,1.1 14.2,2.1 21.3,3.3 1.6,0.3 3.3,0.8 4.5,1.7 9.2,6.7 18.3,13.5 27.3,20.4 9.7,7.5 19.3,15.2 29,22.7 9.5,7.3 19.1,14.6 28.7,21.7 4.5,3.3 9.2,6.4 13.8,9.6 0.5,-0.5 1,-0.9 1.5,-1.4 -2,-3.3 -4.1,-6.5 -5.9,-9.8 -1.2,-2.2 -1.6,-5.2 -3.3,-6.6 -3.1,-2.6 -4.7,-5 -4.9,-9.4 -0.2,-3.5 -3.3,-6.8 -5.1,-10.3 -0.1,-0.3 -0.1,-0.7 -0.1,-1 -0.2,-3.3 0.9,-7 -3.9,-8.5 -0.7,-0.2 -0.4,-3.3 -0.9,-4.9 -0.9,-3 -1.1,-7.8 -3.1,-8.7 -4.3,-2 -4.4,-4.7 -4,-8.4 0.1,-0.7 0.2,-1.8 -0.2,-2 -5.4,-3.5 -3.3,-9.8 -5.2,-14.6 -2.5,-6.2 -2.1,-13.6 -3.4,-20.4 -1.1,-5.9 0.2,-9.5 5.5,-12.1 3.5,-1.7 6.8,-3.8 10.5,-4.9 3.3,-1 7.4,-2 10.3,-0.9 5.9,2.3 11.3,5.9 16.8,9.2 0.9,0.5 1.5,1.8 1.9,2.8 1.8,4.5 4.4,8.1 9,10.1 1,0.5 1.6,1.9 2.4,3 4,5.5 7.9,11 11.8,16.6 1.2,1.8 2.2,3.7 3.2,5.7 0.5,1 0.4,3.1 0.7,3.1 4.7,0.5 4.7,5.1 6.9,7.8 0,-2.2 -0.8,-5.5 0.1,-6.1 3.1,-2 2.9,-4.8 3.4,-7.8 1.2,-5.9 0.9,-12.3 6.3,-16.8 1.5,-1.2 1.9,-3.7 2.7,-5.6 2,-4.6 3.6,-9.5 6.1,-13.8 1,-1.7 5.3,-3.4 6.2,-2.8 6.1,4.9 11.8,10.4 17.4,15.8 1.6,1.6 2.5,3.9 4.5,7 0.3,-2.5 0.6,-3.5 0.6,-4.6 -0.1,-8.1 -0.3,-16.1 -0.3,-24.2 0,-6.1 0.9,-12.3 0.2,-18.3 -1.6,-13.1 -1.1,-25.9 3.3,-38.3 0.9,-2.5 2.4,-4.8 4.2,-8.3 3.2,5.7 5.6,9.9 7.9,14.1 3.3,5.9 7.2,11.7 9.5,18 2.7,7.6 4.1,15.7 5.9,23.5 1.5,6.4 3,12.7 4.2,19.2 1.1,5.9 -0.3,11.8 2.6,18.1 2.4,5.3 0.8,12.5 0.6,18.9 -0.1,4.5 -2.4,9.9 -0.7,13.4 2.9,6.1 -0.2,11.3 0.2,16.9 0.5,8.3 -4.6,16.8 1.2,24.9 0.1,0.1 0.1,0.3 0.1,0.5 0.7,5.2 1.6,10.3 2,15.5 1.1,14.7 6.2,29.3 2,44.3 -0.8,2.9 -2.1,5.7 -2.9,8.7 -2.1,7.2 -5.4,13.6 -11.3,18.6 -1.4,1.2 -3,4 -2.5,5.3 1.9,5.1 4.5,9.8 7.4,15.7 3.1,-6.9 3.7,-7 9,-4.2 2.5,1.3 5.3,2.1 8.3,3.2 0.2,-2.1 0.1,-3.6 0.4,-4.9 3.8,-16 7.9,-32 11.4,-48 1,-4.5 1.1,-9.5 0.3,-14 -1.2,-6.5 -3.8,-12.8 -5.5,-19.2 -2.5,-9.1 -4.8,-18.2 -7.2,-27.5 7.2,0 14.4,0 21.8,0 0.5,-3.7 0.7,-7.3 1.4,-10.8 2,-9 4.3,-18 6.3,-27 2.2,-9.8 4.1,-19.7 6.1,-29.5 1.7,-8.1 2.2,-16.9 5.6,-24.2 4,-8.9 10.5,-16.7 16.1,-24.8 1.4,-2.1 3.5,-2.3 5.1,0.2 0.9,1.5 1.7,3.2 2.5,4.7 2.9,5.2 6.3,10.1 8.6,15.5 2.9,7 5.5,14.2 7,21.5 1.5,7 1.5,14.4 2.2,21.6 0.2,2 0,4 0.3,5.9 0.4,2.8 1.2,5.6 1.5,8.4 0.9,8.8 -5.4,17.5 -0.3,26.4 0.2,0.3 -0.4,0.9 -0.5,1.3 -1.4,7.7 -2.7,15.5 -4.2,23.2 -1.2,6.2 -0.1,8.6 5.4,11.7 2.6,1.4 5.2,2.8 7.6,4.6 7.9,6.1 15.7,12.4 24,19 -2.2,-10.9 -1.3,-20.1 7.4,-27 -1.2,-2.4 -2.3,-4.4 -3.2,-6.4 -1.9,-4.3 -2.9,-9.3 -5.7,-12.8 -2.8,-3.5 -4.6,-5.3 1.5,-7.2 -2.3,-2.9 -4.3,-5.3 -6,-7.8 -4.4,-6.6 -8.8,-13.3 -13,-20 -0.6,-0.9 -0.5,-3.4 -0.1,-3.5 3.4,-1.2 1.1,-2.8 0.5,-4.4 -3.3,-8 -6.9,-16 -9.9,-24.2 -0.9,-2.4 -3.5,-5.8 1.4,-7.7 0.5,-0.2 0.5,-2.5 0.2,-3.7 -2,-9 -4.2,-18.1 -6.2,-27.1 -0.1,-0.2 0.3,-0.6 0.5,-1.2 0.8,0 1.8,0 1.7,0 1.1,-9.4 2.1,-18.4 3.4,-27.4 0.1,-1 1.9,-2.7 2.4,-2.5 4.7,1.7 10.1,2.7 13.8,5.8 8,6.8 16.1,14 22.4,22.5 7.1,9.6 12.5,20.5 18.2,31.1 5.3,9.8 10,19.9 15.1,29.8 0.4,0.7 1.5,1.1 3.1,2.2 0,-8 -0.1,-14.8 0.1,-21.6 0,-1 1.6,-3 2.1,-2.8 6.5,1.3 13.3,1 19.3,4.4 1.3,0.7 2.5,1.5 3.8,2.3 4.6,2.6 7.5,-1.6 11.4,-3.2 1.8,4.2 3.2,8.4 5.2,12.2 2.5,4.7 7.5,3.9 12.5,4.8 -1.7,-2.9 -3.5,-5 -4.2,-7.4 -5.5,-18.2 -10.7,-36.5 -16,-54.8 -0.9,-3.3 -1,-6.9 -2.4,-9.9 -2.3,-5 -0.6,-10.2 -1.9,-15.1 -0.8,-2.8 -2.1,-5.7 -2.1,-8.5 0.1,-7.9 0.2,-15.9 1.3,-23.8 0.7,-5.3 3,-10.4 4.5,-15.6 1.4,0.5 1.7,0.6 2,0.7 7.8,4.2 12.5,11.2 16.8,18.7 5.3,9.4 11.5,18.4 15.9,28.2 7,15.9 12.9,32.3 19.3,48.8 0.5,-2 1.2,-3.9 1.3,-5.7 0.5,-10.2 3.8,-19.6 8.7,-28.3 1.6,-2.8 3.8,-5.7 6.5,-7.5 11.6,-7.6 19.8,-2.6 25.6,8.2 1.5,2.8 2.3,6 3.3,8.6 4.7,-3.8 9.2,-7.3 13.9,-11.1 2.5,2.9 4.5,5.1 6.8,7.7 7.8,-20 20.6,-35.3 40.5,-45.6 1.7,7 3.2,13.1 4.7,19.3 0.7,3.1 2.2,6.2 1.9,9.2 -1.1,13.9 -3.7,27.6 -9.6,40.4 -0.7,1.5 -1,3.1 -1.2,4.7 -0.5,2.7 -0.2,5.8 -1.3,8.2 -3.5,7.4 -8.3,14.4 -11.2,22 -1.7,4.5 -0.9,10.1 -1.2,15.1 0.5,0 1.1,0.1 1.6,0.1 1.5,-2.5 3,-5 4.5,-7.5 4.3,-7.3 8.6,-14.7 13,-21.9 4.7,-7.8 9.1,-15.9 14.5,-23.3 5.3,-7.2 10.2,-14.6 17.2,-20.6 8.2,-7 16,-14.2 26.5,-17.5 2.6,-0.8 3.7,0.1 4.2,2.3 0.8,3.5 1.8,7.1 1.9,10.6 0.2,8.4 0.3,16.8 -0.2,25.1 -0.3,5.1 -2,10.2 -2.7,13.8 2.3,-1.8 6,-3.4 7.7,-6.2 4,-6.3 6.9,-13.3 10.5,-19.9 1.3,-2.4 3,-4.9 5,-6.7 4.8,-4.3 8.4,-3.6 10.8,2.3 4,9.8 7.5,19.8 11.1,29.7 1,2.8 2.5,5.6 2.8,8.5 0.4,3.3 -0.6,6.8 -0.5,10.2 0.2,7.6 0.8,15.2 1,22.8 0.3,11.7 0.2,23.3 0.7,35 0.8,18.1 2.2,36.1 2.8,54.2 0.2,5.3 1.2,9.1 6.2,11.6 3.8,1.9 7.1,4.6 11.1,7.2 0,-3.4 -0.2,-6.3 0,-9.2 1,-11.2 1.9,-22.3 3.2,-33.5 0.6,-5 1.6,-10 2.9,-14.9 0.9,-3.3 3.6,-6.2 3.8,-9.4 0.7,-14.2 7.6,-26.6 10.8,-40 0.2,-0.9 0.8,-1.8 1.5,-2.5 3.6,-4.3 8.2,-8.1 10.6,-12.9 5.3,-10.3 13.8,-17.5 21.6,-25.5 1.1,-1.1 2.6,-2.1 4.1,-2.6 0.9,-0.3 2.8,0 3.2,0.7 2.1,3.5 4.2,7 5.5,10.8 1.5,4.2 1.4,9.3 3.5,13 2.7,4.8 2.1,9.6 2,14.4 0,4.7 -0.6,9.3 -0.9,14 -0.4,5.7 -0.5,11.5 -1,17.2 -0.2,2.4 -1.4,4.7 -1.9,7 -2,9.6 -4,19.3 -5.9,29 -0.9,4.3 -1.5,8.7 -2.3,13.3 3.2,-1.5 5.5,-2.6 7.8,-3.7 0.5,-1.5 0.7,-3.3 1.6,-4.8 1.6,-2.7 3.5,-5.3 5.5,-7.6 1.5,-1.8 3.3,-4 5.4,-4.6 6.2,-1.9 7.9,-8.5 12.9,-11.6 1.8,-1.1 3.3,-2.6 5,-3.9 2.8,-2.6 5.5,-5.6 8.9,-7.3 8.3,-4 16.6,-8.4 26.5,-6.5 3.1,0.6 5.8,0.4 7,4.6 0.6,2.1 4.3,3.3 6.4,5.2 0.3,0.3 -0.4,1.7 -0.7,2.6 5.3,2.2 6,4.3 3.3,8.8 -0.4,0.7 -1.2,1.9 -0.9,2.2 3.2,4.1 -0.5,7.1 -1.2,10.7 -1.4,7.7 -3,15.1 -8.7,21.3 2.6,0.2 4.9,-0.2 7.1,-0.4 7,-0.5 9.4,1.9 8.3,8.4 -0.5,3.1 -1.2,6.2 -2,10.4 8.8,-5 16.6,-9.6 24.6,-13.9 8.3,-4.5 16.5,-9.4 25.3,-12.8 12.6,-5 26,-7.4 39.4,-9.2 3.6,-0.5 7.3,-2.4 10.8,1.1 -1.4,3.8 -2.4,7.9 -4.2,11.4 -3.6,6.7 -3.9,14.7 -9.7,20.7 -4.3,4.4 -10.2,8.5 -9.9,16 0,0.2 -0.4,0.5 -0.7,0.7 -2.3,2.4 -4.4,4.9 -6.8,7.1 -8.1,7.2 -16.1,14.5 -24.6,21.2 -8,6.3 -16.2,12.3 -24.8,17.6 -7.1,4.4 -14.9,7.7 -22.5,11.3 -7.4,3.5 -15,6.6 -22.5,10 -1.9,0.9 -3.8,2 -5.6,3 -8.6,5.7 -21.5,4.7 -24.7,18.1 -0.3,1.1 -1.2,2 -1.7,3 -0.6,1.5 -1,3.2 -1.5,4.8 0.2,0.1 0.4,0.2 0.7,0.2 -4.3,7 -8.6,14 -13.5,22 6.5,-1 11.4,-1.3 16.1,-2.5 8,-1.9 15.9,-4.5 23.9,-6.5 7.5,-1.9 15.2,-3.3 22.7,-5.3 6.5,-1.7 12.8,-4.1 19.3,-5.9 12.1,-3.2 24.4,-6.1 36.5,-9.3 9.3,-2.4 18.4,-5.4 27.8,-7.7 5.7,-1.4 11.7,-1.6 17.4,-2.9 12.9,-2.8 25.7,-6.1 38.8,-1.9 2,0.6 5.2,2.7 5.2,3.9 -0.3,4.2 -0.7,9.1 -3,12.2 -5.4,7 -11.8,13.3 -18.2,19.5 -3.2,3.1 -8.6,4.2 -8.1,10.2 0.1,0.7 -1.3,1.6 -2.2,2.1 -8.8,4.7 -17.6,9.4 -26,13.9 1.7,5.9 12.8,7.1 9.3,16.7 2.8,1.2 5.2,2.2 7.9,3.3 -3.2,4.1 -6.1,7.7 -9.4,12 0.8,3.2 4.3,8.1 -3.2,10.5 3.3,2.3 2.6,4.5 0.6,6.4 -2.6,2.5 -3.2,5.6 -3.4,8.8 -0.3,4 -2.2,3.7 -4.7,1.9 -0.7,2.6 -1.3,5 -2.2,8.3 14.1,0.7 27.3,3.3 40.4,10.3 -4.4,9.8 -8.9,19.9 -13.2,29.5 2,1.5 3.8,2.8 6,4.5 4.2,-2.4 9.2,-5.3 14.2,-8.2 7.2,-4.1 14.1,-8.7 21.5,-12.3 9.3,-3.9 18.7,-7.5 29.2,-5.1 z M 805,143.1 c -0.3,0.5 -0.7,1 -1,1.5 -4,8.3 -8.2,16.5 -12,24.8 -0.9,2 -0.8,4.6 -1.5,6.8 -1.8,5.1 -3.2,10.5 -5.8,15.1 -2.7,4.7 -6.8,8.5 -10,12.9 -9.3,12.8 -18.4,25.7 -27.7,38.5 -1.4,1.9 -3.4,3.4 -4.9,5.2 -7.4,8.5 -14.3,17.4 -22.2,25.3 -4.1,4.1 -9.5,7.6 -15,9.4 -8.6,2.9 -17.3,2.2 -24.2,-6.7 -1.3,2.4 -2.8,3.9 -3,5.6 -0.8,7.1 -1.2,14.2 -1.6,21.3 -0.2,3 2.7,4.8 5.3,3.2 9.5,-5.7 19.1,-11.2 28.2,-17.3 10.1,-6.8 19.9,-14.3 29.7,-21.5 8.4,-6.1 16.9,-12.3 25.3,-18.5 2.4,-1.8 4.5,-4.5 7.2,-5.5 6.6,-2.5 13.4,-4.1 20.1,-6.4 1.1,-0.4 2.1,-2.4 2.2,-3.7 0.4,-7.5 0.2,-15 0.7,-22.5 0.3,-4.2 1.7,-8.4 2.2,-12.7 0.9,-7 1,-14.1 2.3,-21.1 0.6,-3.6 -0.3,-8.6 5.1,-10.1 0.3,-0.1 0.6,-0.8 0.6,-1.3 0,-7.5 0,-15.1 0,-22.6 4.1,-3.6 1.6,-10.7 7.1,-13.6 0.1,0 0,-0.3 0,-0.5 0,-3.6 0,-7.3 0,-10.9 -4.4,8.3 -9,16 -7.1,25.3 z M 336,772.7 c 0.8,-0.7 2.7,-1.7 2.9,-2.8 1.5,-14.7 9,-27.2 15.3,-40 4.2,-8.4 9.6,-16.3 14.7,-24.3 9.1,-14.2 18.3,-28.4 27.5,-42.6 4.5,-6.9 3.5,-9.1 -4.4,-10.2 -0.8,-0.1 -1.6,-0.5 -2.3,-0.7 -10.5,-2.9 -20.9,-5.9 -31.5,-8.5 -3.9,-1 -7.9,-1.1 -12.5,-1.7 0.3,1.6 0.6,3.1 0.8,4.7 0.2,1.6 0.9,3.6 0.3,4.7 -4.7,8.4 -9.7,16.6 -14.5,24.9 -0.4,0.7 -0.3,1.8 -0.6,2.6 -0.4,1.4 -0.8,3 -1.6,4.2 -1.3,1.9 -2.7,3.9 -4.4,5.3 -3.3,2.7 -6.6,5.6 -10.4,7.5 -6.2,3.2 -12.5,6.2 -19.9,5.2 -0.3,0 -0.7,0.6 -0.1,0 13.6,24.3 27.1,47.9 40.7,71.7 z m 70.8,-14.4 c 0.3,0.2 0.6,0.4 0.9,0.6 -0.4,1.4 -0.3,3.2 -1.2,4.2 -3,3.5 -6.3,6.8 -9.4,10.2 -11,12.4 -23.4,20.7 -41.1,14.7 -1.2,-0.4 -2.6,-0.1 -4.7,-0.1 6.5,8.7 12.4,16.5 18.1,24 7.7,-8.1 15,-15.7 22.3,-23.3 2.3,-2.4 4.2,-5.3 6.8,-7.5 5.1,-4.2 10.5,-7.9 15.7,-12 7.1,-5.6 14,-11.6 21.3,-16.9 4.5,-3.2 9.5,-6.8 14.6,-7.5 6,-0.8 9.2,-5.6 14.4,-7.3 9.2,-3.1 17.8,-8.2 27,-11.2 16.5,-5.3 33.3,-8.4 50.3,-2 0.5,0.2 1.4,-0.4 2.7,-0.8 -8.5,-3.3 -10.9,-7.9 -9.8,-16.4 0.2,-1.7 -0.8,-3.8 -1.7,-5.4 -4.5,-7 -9,-14 -13.8,-20.9 -2.2,-3.2 -2.8,-7.9 -7.6,-9 -5.2,13.5 -18.7,22.5 -32.1,21 -7.9,-0.9 -15.7,-2.4 -23.4,-3.9 -2.7,-0.5 -4.9,-0.9 -6.2,1.8 -1.1,2.2 -1.6,4.8 -2.4,7.1 0.5,0.2 0.9,0.4 1.4,0.6 -7.2,11.1 -14.5,22.3 -21.7,33.5 -0.3,1.1 -0.4,2.8 -1.2,3.8 -6.3,7.7 -12.8,15.2 -19.2,22.7 z M 375.5,376 c -5.8,2.2 -10.6,4.7 -15.6,5.8 -6.8,1.6 -13.9,1.8 -20.7,3.2 -15.4,3.2 -30.7,0.6 -46,-0.3 -3.8,-0.2 -8.1,-1.1 -11.2,-3.1 -2.5,-1.7 -3.8,-1.2 -5.9,-0.3 -5.5,2.2 -11,4.7 -16.7,6.1 -6.6,1.6 -13.4,2.1 -20.9,3.1 7.2,8.3 13.7,15.8 20.3,23.4 3.5,-1.5 7.1,-3.5 11,-4.7 2.7,-0.8 6.2,-1.3 6.3,3.6 0.1,4.6 0.5,9.3 0.9,13.9 0.2,1.9 0.6,3.8 1.1,5.7 0.9,3.3 2.9,6.6 2.6,9.8 -0.7,8.8 -2.4,17.4 -3.8,27 16,2 31.8,3.9 49.4,6 -1.2,-3.2 -1.8,-5.5 -2.9,-7.4 -3.9,-6.1 -8.3,-12 -11.9,-18.2 -1.7,-2.8 -4.2,-6.2 -0.9,-9.9 0.5,-0.6 0,-2.4 -0.5,-3.6 -4.1,-10.7 -3.4,-21.6 -0.8,-32.5 0.3,-1.1 3,-2.6 4.2,-2.3 3.9,0.8 7.8,2 11.5,3.8 7.2,3.4 14.2,7.3 22.3,11.5 1.8,-1.1 4.6,-3.3 7.7,-4.5 5,-2 10.2,-3.3 15.3,-4.9 5.5,-1.6 6.7,-4.1 5,-9.7 -0.6,-2 -1.2,-4.2 -1.1,-6.2 0.1,-4.8 0.8,-9.5 1.3,-15.3 z m 126.6,698.1 c 2.7,-8.5 5.3,-16.7 7.8,-24.9 0.4,-1.2 0.3,-2.8 -0.3,-3.9 -1.8,-3.7 -3.3,-7.8 -6,-10.7 -6,-6.4 -6.7,-14.2 -7.7,-22.2 -0.6,-4.9 -2.2,-9.6 -3.3,-14.3 -8.9,5 -13.9,12.8 -21.9,16.9 -0.5,0.3 -0.7,1.1 -1.2,1.5 -5.4,5.1 -10.4,10.9 -16.4,15.2 -8,5.7 -15.8,12.3 -26.1,13.7 -3.4,0.5 -7,0.6 -10.5,0.8 4.6,6.9 9.6,13 10,21.3 0,0.6 1.4,1.5 2.2,1.5 10.8,0 21.5,0 32.3,-0.2 13.8,0 27.6,0.3 41.1,5.3 z M 835.1,700 c -7.4,4.3 -13.8,8.8 -18.6,16.5 -6.9,11.1 -14.9,21.7 -28.7,25.8 -2.3,0.7 -5.4,4.4 -5.3,6.4 0.4,6.3 2.2,12.5 3.6,18.6 2.1,9.3 2.2,9.4 11.7,7.2 2.6,-0.6 3.9,-0.3 4.1,2.3 0.5,5.3 0.8,10.5 1.3,16.7 10.3,-14.8 20.1,-29.5 30.5,-43.8 10.7,-14.7 22,-29 33.3,-43.8 -6.7,0 -12.2,0.6 -17.5,-0.2 -5,-0.7 -11,0 -14.4,-5.7 z M 434.7,863.2 c 3.4,-2.2 6.7,-4.4 9.9,-6.5 3,-1.9 5.8,-4.3 9,-5.6 5.7,-2.3 11.8,-3.4 17.4,-5.8 20,-8.5 39.8,-17.6 59.9,-25.9 10.3,-4.3 20.3,-9.6 31.6,-11.2 4.1,-0.6 7.9,-2.7 12.2,-4.3 -4,-9.7 -7.2,-20 -15.1,-28.6 -3.4,3.9 -6.4,7.5 -9.6,11.1 -0.9,1.1 -2.2,2.8 -3.1,2.7 -3,-0.4 -4.1,1.2 -5.5,3.4 -1,1.5 -2.6,2.8 -4.2,3.9 -7.5,5.5 -15.1,10.9 -22.7,16.3 -0.7,0.5 -1.7,0.4 -2.5,0.8 -1.4,0.6 -3.3,0.9 -4.2,1.9 -4.9,5.4 -9.2,11.3 -14.5,16.2 -2.5,2.3 -7.5,4.5 -10.2,3.5 -5.6,-2 -8.5,1.3 -12.2,3.6 -5.8,3.6 -11.5,7.4 -17.4,10.8 -0.8,0.5 -2.7,-0.7 -4,-1.1 0,-0.6 0.1,-1.1 0.1,-1.7 -7.3,3.4 -14.7,6.8 -22.7,10.6 0.3,-1.8 0.5,-2.9 0.7,-4.2 -8,3.7 -15.5,7.3 -23.1,10.9 0.8,1 2.1,2.6 3.3,4 8,-3.9 15.6,-7.7 23.1,-11.5 1.7,2.8 2.7,4.6 3.8,6.7 z m 110.2,113.9 c 0.5,-1.5 1.4,-3.7 2.2,-6 3.9,-11.9 8.3,-23.7 11.6,-35.7 2.4,-8.6 5,-17.2 4.4,-26.5 -0.5,-8.7 -0.1,-17.5 -0.1,-26.9 -1.6,1.6 -3.3,3.3 -5,5.1 -0.9,1 -1.8,2.1 -2.7,3.1 -2.5,2.9 -5.9,5.5 -7.1,8.9 -2.7,7.1 -3.9,14.6 -8.1,21.2 -1.8,2.8 -3.9,6.1 -3.9,9.2 0,6.9 0.7,13.8 2,20.5 1.9,9.5 4.6,18.6 6.7,27.1 z M 298,849.9 c 18,1.4 34.8,2.7 51.5,3.9 1.2,-3.2 2.4,-6.3 3.5,-9.3 1.3,-3.5 0.9,-4.1 -3,-4.8 -1.6,-0.3 -3.2,-0.7 -5.3,-1.2 0.9,-1.2 1.6,-2 2.2,-2.8 -7.7,-9.7 -15.3,-19.2 -22.2,-27.8 0.2,2.7 1.6,7 0.4,10.3 -4.5,12.4 -12.4,22.3 -24.1,28.9 -0.9,0.4 -1.5,1.3 -3,2.8 z m 377.7,-94 c 1.7,0 2.7,0.3 3.6,0 17,-6.2 35.1,-4.4 52.6,-6.8 5.4,-0.7 10.8,-1.5 16.1,-2.6 1.7,-0.3 3.1,-1.6 5.6,-2.9 -8.9,-0.8 -14.7,-5.1 -20.3,-9.2 -3.1,-2.3 -5.6,-3.3 -9,-2.3 -9.7,2.8 -19.4,5.6 -29.1,8.3 -2.8,0.8 -5.8,1.9 -8.5,1.6 -2.2,-0.2 -4.2,-2.3 -6.3,-3.5 -1.5,5.7 -3,11.4 -4.7,17.4 z M 190.5,661.6 c 15.6,5.9 33.8,5.9 39.3,23.8 6.5,0 12.1,0 16.6,0 -4.9,-6.4 -10.4,-12.9 -15.2,-19.9 -4.3,-6.2 -7.7,-13.1 -11.8,-19.5 -1.4,-2.2 -4,-3.7 -6.4,-5.9 -2.6,9.6 -12.9,19.4 -22.5,21.5 z m 785,-24.6 c -0.1,-0.5 -0.2,-1.1 -0.3,-1.6 -1.5,0.8 -3.5,1.3 -4.5,2.6 -1.9,2.4 -3.2,5.3 -4.8,7.9 -2.7,4.4 -4.4,9.3 -9.3,12.1 -10.6,5.9 -20,13.4 -27.3,23.1 -3,3.9 -4.6,8.8 -6.8,13.2 0.5,0.4 0.9,0.8 1.4,1.2 11.4,-5 22.7,-9.9 33.6,-14.7 2.4,-16.5 7.7,-31.2 18,-43.8 z M 620.3,419 c -6.5,-10.2 -12.5,-19.6 -18.4,-28.8 -1.4,2.5 -2.1,6.2 -4.1,7.1 -6.4,2.7 -5.9,7.6 -5.9,13 0,3.4 -1.1,6.7 -1.6,10.1 -0.1,1 0.1,2 0.2,3.5 1.1,-0.6 1.8,-0.7 2.2,-1.1 4.9,-4.3 11.5,-4.5 16.3,-2.9 4.8,1.3 7.4,-0.7 11.3,-0.9 z M 451.9,286.1 c -0.3,2.3 -0.5,4.3 -0.8,6.2 -0.4,3.2 -0.2,6.5 -1.2,9.5 -1.9,5.7 -4.5,11.1 -6.6,16.8 -0.6,1.5 -1.2,4.1 -0.4,4.8 1.2,1.1 3.5,1.1 5.3,1.6 1.8,2.4 3.8,5.2 6.2,8.5 1.6,-13.7 7.2,-24.7 12.7,-35.6 -5.1,-4 -9.8,-7.7 -15.2,-11.8 z m 366.6,212.1 c 4.1,9.6 8.1,18.9 12.2,28.4 10.6,-6.3 21,-12.6 31.5,-18.8 -15.4,0.5 -29.3,-5.4 -43.7,-9.6 z m -525.4,34.3 c 1.4,-2.9 2.1,-4.5 2.9,-6 2.4,-4.4 4.2,-9.4 7.5,-13.1 5,-5.6 5,-4.5 -1.4,-8.6 -5.1,-3.2 -11.5,-5.6 -13.3,-12.9 -0.6,-2.5 -3.3,-4.5 -4.6,-6.2 0.3,8.7 1,17.3 0.7,26 -0.3,7.8 4,13.3 8.2,20.8 z m 266.6,22.4 c -0.7,0.2 -1.4,0.4 -2.1,0.6 -0.9,2.9 -1.4,6 -2.6,8.7 -2.1,4.7 -1.2,11.1 -7.7,13.4 -0.6,0.2 -1,1.7 -1.2,2.6 -1,5.6 -2.1,11.2 -2.9,16.8 -0.4,2.4 -1,5.1 -0.2,7.1 1.2,2.8 3.6,5 5.2,7.1 5,-5.4 3.1,-10.2 -0.5,-15.6 -2.3,-3.6 2.6,-9.8 5.4,-8.5 4.5,2.3 6.2,-0.6 8.1,-3.7 1.6,-2.7 3.1,-5.4 4.9,-7.9 2.1,-2.9 1.8,-5.6 -1.1,-7.2 -2.9,-1.6 -2.5,-4 -2.9,-6.6 -0.5,-2.3 -1.7,-4.5 -2.4,-6.8 z m 156.5,396.5 c -0.3,-0.5 -0.7,-1 -1,-1.5 -0.8,0.2 -1.5,0.4 -2.3,0.6 -5.8,1.7 -10.8,5.8 -17.6,4.6 -5.1,-0.9 -10.4,-0.6 -15.6,-0.6 -1.1,0 -2.5,0.8 -3.3,1.7 -2.9,3 -5.4,6.2 -8.3,9.2 -3.9,4.1 -7.7,8.3 -8.3,15.8 19.5,-10.3 38,-20 56.4,-29.8 z m -149.4,-638 c -0.5,0.3 -1.7,0.8 -2.3,1.7 -3.6,6 -8.8,9.5 -15.6,11.1 -1.8,0.4 -4.7,2.9 -2.4,3.7 4,1.3 2.9,4.8 4.7,6.7 1,1.1 2.7,2.4 4.1,2.4 4.9,0 9.9,-0.8 14.8,-0.8 3.5,0 7,0.7 11,1.1 -4.9,-9.1 -9.5,-17.4 -14.3,-25.9 z M 283.3,785.9 c 14.6,-4 27.1,-2.7 37.4,8.7 -0.6,-2.2 -1.6,-4.4 -3,-6.1 -1.3,-1.6 -3.4,-2.6 -4.7,-4.2 -6,-7.7 -11.9,-15.5 -18.6,-24.3 -3.9,9.2 -7.3,17.1 -11.1,25.9 z M 593,779.8 c 0.5,0 1,0 1.4,0 2.3,-17.5 4.7,-35 7,-52.3 -6,0.3 -12.4,0.7 -17.9,1 0.3,1.7 0.8,3.6 0.8,5.5 0.1,6.2 6.7,9.6 6.5,16.2 -0.1,5.9 1.6,11.7 2.1,17.6 0.4,4 0.1,8 0.1,12 z M 754.6,437.6 c 8,-0.6 23.3,1.8 30.4,9.3 0.9,-3.7 1.8,-7.1 2.8,-10.9 -3.8,-0.4 -7.5,-0.2 -10.9,-1.3 -3.5,-1.1 -6.7,-3.4 -9.9,-5.3 -2.3,-1.4 -4.3,-3.6 -6.7,-4.3 -4.9,-1.4 -10,-2.1 -15,-3.1 -0.3,0.3 -0.6,0.6 -0.9,0.9 3.4,4.9 6.8,9.8 10.2,14.7 z m -373,546.9 c 0.4,0.4 0.8,0.8 1.2,1.2 6.4,-3.8 12.8,-7.6 19.3,-11.3 5.2,-3 11.7,-4.8 15.6,-9.1 6.5,-7.2 11.3,-16 16.7,-24 -2.2,-2.4 -4,-4.3 -5.8,-6.3 -0.3,0.5 -0.4,0.7 -0.5,0.8 -5.1,8.9 -8.9,18.9 -15.6,26.2 -6.5,7.1 -16.1,11.4 -24.3,17 -2.4,1.6 -4.4,3.6 -6.6,5.5 z m 201.5,36.5 c -7.3,4.8 -14.7,9.7 -21.3,14.1 1.1,8 2.1,15.4 3.2,22.8 2.2,-1.5 3.2,-3.3 4.1,-5.1 3.8,-6.6 7.6,-13.2 11.3,-19.9 1,-1.8 1.8,-3.7 2.3,-5.6 0.4,-1.8 0.3,-3.8 0.4,-6.3 z M 895,752.3 c 0,-0.5 -0.1,-1 -0.1,-1.5 -1.5,-0.2 -3,-0.5 -4.5,-0.5 -3,0 -5.9,0.3 -8.9,0.5 -1.2,0.1 -2.8,-0.4 -3.5,0.2 -9.1,8.4 -18,17 -27.1,25.5 -3.4,3.2 -6.9,6.2 -10.4,9.2 0.5,0.5 0.9,1 1.4,1.6 15.7,-14.8 35.2,-23.8 53.1,-35 z M 456.4,334.7 c 1,7.4 6.8,6.9 10.9,8 6.1,1.6 12.5,2 18.7,3.2 5.1,0.9 6.9,-0.4 7,-5.8 0,-2.2 0,-4.5 0,-5.4 -12.6,0 -24.5,0 -36.6,0 z m 9.5,838.9 c 0.5,0.1 0.9,0.1 1.4,0.2 2.9,-6.4 5.7,-12.8 8.6,-19.2 -6.8,-2.4 -13,-4.5 -19.6,-6.8 3.3,9 6.5,17.4 9.6,25.8 z m 135.6,-114.3 c -4.8,3.4 -9.9,6.7 -11.8,13.2 8.2,3.5 15.6,-0.6 24.1,-0.3 -2.1,-4.1 -4,-7.8 -5.9,-11.4 -0.5,-0.2 -1,-0.3 -1.5,-0.5 -0.3,1.1 -0.6,2.3 -0.9,3.4 -1.8,-2 -2.9,-3.2 -4,-4.4 z m -39.9,-51.8 c 0.3,0.4 0.5,0.7 0.8,1.1 5.6,-4.3 11.3,-8.6 16.6,-12.7 -2.1,-6.7 -4,-12.7 -6.1,-19.2 -4,10.8 -7.6,20.8 -11.3,30.8 z m 63.5,-248.4 c 0.5,0.1 0.9,0.3 1.4,0.4 4.3,-14.1 9.8,-27.8 14,-42 -0.7,-0.4 -1.4,-0.8 -2.2,-1.2 -2.3,2.7 -5.8,5.2 -6.6,8.3 -2.7,11.5 -4.5,23.1 -6.6,34.5 z m -1.6,-400.2 c 4,-4.8 4.1,-10.4 2.4,-16.6 -0.9,-3.6 -0.6,-7 -5.8,-4.5 -0.4,0.2 -1.3,-0.9 -2,-1.1 -1.1,-0.3 -2.2,-0.4 -3.3,-0.6 -0.2,1.2 -0.9,2.6 -0.5,3.5 3,6.6 6.2,13.1 9.2,19.3 z m 393.6,165.4 c -5,1 -4.9,0.9 -7,-3.7 -0.8,-1.8 -2.2,-3.5 -3.3,-5.2 -0.6,0.2 -1.1,0.4 -1.7,0.6 -0.5,8.6 -0.9,17.3 -1.5,26.5 4.8,-6.4 9,-12.2 13.5,-18.2 z m -788.7,74.8 c -0.7,-9 -1.2,-17 -1.8,-25.3 -1.7,0.2 -3.2,0.2 -4.6,0.6 -6,1.7 -6,2 -3.1,7.4 2.4,4.6 4.4,9.5 6.7,14.2 0.5,1.1 1.6,1.8 2.8,3.1 z m 505.9,-44 c -4.1,8.2 -8,16.3 -12.1,24.6 4.1,0.2 7.5,0.4 9.1,-4.8 1.3,-4.3 4.1,-8.1 6.3,-12.3 -1,-2 -2.1,-4.6 -3.3,-7.5 z M 492.5,419.5 c -2.3,6 -4.4,10.9 -6.2,16 -0.4,1.3 -0.5,3.3 0.3,4.2 2.2,2.9 4.9,5.4 7.5,8.2 0,-5.1 0.4,-9.9 -0.1,-14.7 -0.6,-4.3 2.2,-9.2 -1.5,-13.7 z m 245,0 c -1.9,-0.5 -3.8,-1.3 -5.6,-1.3 -1.2,0 -3.4,1.4 -3.3,2.2 0.1,6 0.6,11.9 1,17.9 4.2,-2.2 8.8,-13.1 7.9,-18.8 z M 259,647.9 c 3.6,-9.3 2.7,-11.2 -4.5,-14.9 -3.2,-1.6 -5.6,-4.6 -8.4,-6.9 -0.8,-0.7 -1.6,-1.4 -2.3,-2.1 -0.3,0.3 -0.6,0.6 -0.9,0.9 5.2,7.4 10.4,14.8 16.1,23 z m 701.9,62 c -10.5,0.7 -19.9,0.5 -28.7,4.2 9.6,1.5 19.4,5.5 28.7,-4.2 z M 796.4,267.4 c -2,3.6 -3,5.9 -4.4,8 -4.1,6.1 -2.4,11.2 5.8,14.3 -0.5,-7.3 -0.9,-14.2 -1.4,-22.3 z M 661.2,829.9 c -3.8,2.4 -9.3,-0.4 -10.8,7.5 -1,5.1 -0.4,8.6 1.1,12.3 3,-6.2 6.2,-12.8 9.7,-19.8 z M 871.1,544.8 c 0,-6.3 0,-12.3 0,-18.2 -0.6,0 -1.1,-0.1 -1.7,-0.1 -0.2,2.1 0,4.4 -0.8,6.1 -1,2.1 -3.4,3.4 -4.5,5.5 -2,3.8 -0.9,5.5 3.4,6 1.3,0.1 2.5,0.5 3.6,0.7 z M 468.7,499.4 c 0.2,0.4 0.4,0.9 0.6,1.3 4.8,-2 9.6,-3.9 14.4,-5.9 0,-0.5 0.1,-1 0.1,-1.5 -2.4,-0.7 -5.7,-2.8 -7.1,-2 -3.1,2 -5.3,5.4 -8,8.1 z m 192.8,246.2 c 6.1,-3.6 11.9,-7 17.1,-10.1 -6.7,-2.4 -13.2,1 -17.1,10.1 z m 216,-407.4 c -6,0.3 -6,0.3 -4.7,11.4 1,-4.7 7.9,-5.7 4.7,-11.4 z M 602.6,592 c -1,-0.6 -1.4,-0.8 -1.8,-1.1 -3.6,-2.4 -8.3,-0.3 -8.4,4 0,0.6 1.7,2 2,1.8 2.6,-1.2 5,-2.8 8.2,-4.7 z m 252,12.9 c 3.2,-3.4 5.6,-6.1 8.6,-9.3 -3.9,0.6 -6.9,1.1 -10.1,1.7 0.3,1.8 0.8,4.2 1.5,7.6 z M 715.2,419.2 c 0.5,0 1,-0.1 1.6,-0.1 0.8,-1.5 1.6,-3 2.7,-4.9 -2.7,-1.5 -5,-2.8 -7.3,-4.1 -0.3,0.2 -0.6,0.5 -0.9,0.7 1.3,2.8 2.6,5.6 3.9,8.4 z m 162.7,239.2 c -0.7,0.1 -1.4,0.2 -2.1,0.2 0.4,3.8 0.9,7.5 1.4,12.1 6.4,-4.7 1,-8.5 0.7,-12.3 z M 719.5,345.7 c -2,3.4 -3.3,5.4 -4.7,7.7 2,0.6 3.7,1.2 6.5,2 -0.6,-3.3 -1,-5.8 -1.8,-9.7 z M 752.3,523 c -2.2,-1.1 -3.9,-1.9 -5.5,-2.6 -1.9,1.6 -3.8,3.3 -5.8,5 0.2,0.2 0.3,0.5 0.5,0.7 3.5,-1.1 6.9,-2 10.8,-3.1 z m 309.9,-102 c 3.3,-1.1 6.2,-2.2 9,-3.2 -0.2,-0.5 -0.4,-0.9 -0.5,-1.4 -6.1,-0.9 -6.8,-0.6 -8.5,4.6 z m -422,273 c -0.4,0.4 -0.8,0.7 -1.3,1.1 1.3,3.6 2.5,7.3 7.7,7.9 -2.3,-3.2 -4.3,-6.1 -6.4,-9 z"
   id="path8" />
		<path
   d="m 1207,483 c -10.5,-2.4 -19.9,1.2 -29,5.7 -7.4,3.7 -14.4,8.2 -21.5,12.3 -5,2.9 -10,5.8 -14.2,8.2 -2.2,-1.6 -4,-3 -6,-4.5 4.3,-9.5 8.8,-19.7 13.2,-29.5 -13.1,-7.1 -26.3,-9.6 -40.4,-10.3 0.9,-3.3 1.5,-5.8 2.2,-8.3 2.5,1.8 4.4,2.1 4.7,-1.9 0.2,-3.3 0.8,-6.4 3.4,-8.8 2,-1.9 2.7,-4.1 -0.6,-6.4 7.5,-2.4 4,-7.3 3.2,-10.5 3.3,-4.3 6.2,-7.9 9.4,-12 -2.7,-1.1 -5.2,-2.2 -7.9,-3.3 3.5,-9.5 -7.6,-10.7 -9.3,-16.7 8.4,-4.5 17.2,-9.2 26,-13.9 0.9,-0.5 2.3,-1.5 2.2,-2.1 -0.5,-6.1 4.9,-7.1 8.1,-10.2 6.4,-6.2 12.8,-12.5 18.2,-19.5 2.4,-3.1 2.8,-8 3,-12.2 0.1,-1.2 -3.1,-3.2 -5.2,-3.9 -13.1,-4.1 -26,-0.9 -38.8,1.9 -5.7,1.3 -11.7,1.5 -17.4,2.9 -9.3,2.3 -18.5,5.2 -27.8,7.7 -12.2,3.2 -24.4,6 -36.5,9.3 -6.5,1.7 -12.8,4.1 -19.3,5.9 -7.5,2 -15.2,3.4 -22.7,5.3 -8,2 -15.9,4.6 -23.9,6.5 -4.7,1.1 -9.6,1.5 -16.1,2.5 4.9,-8 9.2,-15 13.5,-22 -0.2,-0.1 -0.4,-0.2 -0.7,-0.2 0.5,-1.6 0.9,-3.2 1.5,-4.8 0.4,-1.1 1.4,-1.9 1.7,-3 3.2,-13.4 16.1,-12.4 24.7,-18.1 1.9,-1 3.7,-2.1 5.6,-3 7.5,-3.3 15.1,-6.5 22.5,-10 7.6,-3.6 15.4,-6.9 22.5,-11.3 8.6,-5.3 16.9,-11.3 24.8,-17.6 8.5,-6.7 16.5,-14 24.6,-21.2 2.4,-2.2 4.6,-4.7 6.8,-7.1 0.2,-0.2 0.7,-0.5 0.7,-0.7 -0.3,-7.5 5.7,-11.6 9.9,-16 5.8,-6 6.1,-14 9.7,-20.7 1.9,-3.6 2.9,-7.6 4.2,-11.4 -3.5,-3.5 -7.2,-1.5 -10.8,-1.1 -13.5,1.7 -26.8,4.2 -39.4,9.2 -8.8,3.4 -16.9,8.4 -25.3,12.8 -8,4.3 -15.8,8.9 -24.6,13.9 0.8,-4.2 1.5,-7.3 2,-10.4 1.1,-6.4 -1.3,-8.8 -8.3,-8.4 -2.3,0.2 -4.6,0.6 -7.1,0.4 5.7,-6.2 7.3,-13.6 8.7,-21.3 0.7,-3.6 4.4,-6.6 1.2,-10.7 -0.2,-0.3 0.5,-1.5 0.9,-2.2 2.7,-4.6 2,-6.7 -3.3,-8.8 0.3,-0.9 1,-2.4 0.7,-2.6 -2.1,-1.8 -5.9,-3 -6.4,-5.2 -1.2,-4.2 -3.9,-4 -7,-4.6 -9.9,-1.9 -18.2,2.4 -26.5,6.5 -3.4,1.7 -6.1,4.7 -8.9,7.3 -1.6,1.3 -3.2,2.8 -5,3.9 -5,3.1 -6.7,9.7 -12.9,11.6 -2.1,0.6 -3.8,2.8 -5.4,4.6 -2,2.4 -3.9,5 -5.5,7.6 -0.9,1.5 -1.1,3.3 -1.6,4.8 -2.3,1.1 -4.6,2.2 -7.8,3.7 0.8,-4.6 1.5,-9 2.3,-13.3 1.9,-9.7 3.9,-19.3 5.9,-29 0.5,-2.4 1.7,-4.6 1.9,-7 0.5,-5.7 0.7,-11.5 1,-17.2 0.3,-4.7 0.9,-9.3 0.9,-14 0,-4.8 0.7,-9.6 -2,-14.4 -2.2,-3.8 -2,-8.8 -3.5,-13 -1.3,-3.8 -3.4,-7.3 -5.5,-10.8 -0.4,-0.7 -2.3,-1 -3.2,-0.7 -1.5,0.5 -3,1.5 -4.1,2.6 -7.8,7.9 -16.4,15.2 -21.6,25.5 -2.5,4.8 -7.1,8.6 -10.6,12.9 -0.6,0.7 -1.2,1.6 -1.5,2.5 -3.2,13.4 -10.1,25.8 -10.8,40 -0.2,3.2 -2.9,6.2 -3.8,9.4 -1.3,4.9 -2.3,9.9 -2.9,14.9 -1.3,11.1 -2.2,22.3 -3.2,33.5 -0.2,2.9 0,5.8 0,9.2 -4,-2.6 -7.3,-5.3 -11.1,-7.2 -5,-2.5 -6,-6.3 -6.2,-11.6 -0.6,-18.1 -2,-36.1 -2.8,-54.2 -0.5,-11.6 -0.4,-23.3 -0.7,-35 -0.2,-7.6 -0.8,-15.2 -1,-22.8 -0.1,-3.4 0.8,-6.8 0.5,-10.2 -0.3,-2.9 -1.7,-5.7 -2.8,-8.5 -3.7,-9.9 -7.2,-19.9 -11.1,-29.7 -2.4,-5.8 -6,-6.5 -10.8,-2.3 -2,1.8 -3.7,4.2 -5,6.7 -3.6,6.6 -6.5,13.6 -10.5,19.9 -1.8,2.8 -5.4,4.5 -7.7,6.2 0.7,-3.6 2.4,-8.6 2.7,-13.8 0.6,-8.3 0.4,-16.7 0.2,-25.1 -0.1,-3.6 -1.1,-7.1 -1.9,-10.6 -0.5,-2.2 -1.6,-3.1 -4.2,-2.3 -10.6,3.3 -18.4,10.6 -26.5,17.5 -7,6 -11.9,13.4 -17.2,20.6 -5.4,7.3 -9.8,15.5 -14.5,23.3 -4.4,7.3 -8.7,14.6 -13,21.9 -1.5,2.5 -3,5 -4.5,7.5 -0.5,0 -1.1,-0.1 -1.6,-0.1 0.3,-5.1 -0.5,-10.6 1.2,-15.1 2.9,-7.7 7.6,-14.6 11.2,-22 1.1,-2.4 0.8,-5.5 1.3,-8.2 0.3,-1.6 0.6,-3.3 1.2,-4.7 5.9,-12.8 8.5,-26.4 9.6,-40.4 0.2,-3 -1.2,-6.1 -1.9,-9.2 -1.5,-6.1 -3,-12.3 -4.7,-19.3 -19.9,10.2 -32.7,25.6 -40.5,45.6 -2.3,-2.6 -4.2,-4.8 -6.8,-7.7 -4.7,3.7 -9.2,7.3 -13.9,11.1 -1,-2.6 -1.8,-5.8 -3.3,-8.6 C 681,53 672.7,48 661.2,55.6 c -2.7,1.8 -4.9,4.6 -6.5,7.5 -4.9,8.8 -8.2,18.2 -8.7,28.3 -0.1,1.9 -0.8,3.7 -1.3,5.7 C 638.3,80.6 632.4,64.2 625.4,48.3 621.1,38.5 614.9,29.5 609.5,20.1 605.3,12.7 600.6,5.6 592.7,1.4 c -0.3,-0.2 -0.6,-0.2 -2,-0.7 -1.6,5.2 -3.8,10.3 -4.5,15.6 -1,7.8 -1.2,15.8 -1.3,23.8 0,2.8 1.3,5.7 2.1,8.5 1.3,4.9 -0.4,10.2 1.9,15.1 1.4,3 1.5,6.6 2.4,9.9 5.3,18.3 10.5,36.6 16,54.8 0.7,2.4 2.5,4.5 4.2,7.4 -5,-0.9 -9.9,-0.1 -12.5,-4.8 -2.1,-3.8 -3.4,-8 -5.2,-12.2 -4,1.6 -6.9,5.8 -11.4,3.2 -1.3,-0.7 -2.5,-1.5 -3.8,-2.3 -6,-3.4 -12.8,-3.1 -19.3,-4.4 -0.5,-0.1 -2.1,1.8 -2.1,2.8 -0.2,6.8 -0.1,13.7 -0.1,21.6 -1.6,-1.1 -2.8,-1.5 -3.1,-2.2 -5.1,-9.9 -9.8,-20 -15.1,-29.8 C 533.2,97.1 527.8,86.2 520.7,76.6 514.5,68.2 506.4,61 498.3,54.1 c -3.6,-3.1 -9,-4.1 -13.8,-5.8 -0.5,-0.2 -2.3,1.5 -2.4,2.5 -1.2,8.9 -2.2,17.9 -3.4,27.4 0.2,0 -0.8,0 -1.7,0 -0.3,0.6 -0.6,0.9 -0.5,1.2 2.1,9 4.2,18 6.2,27.1 0.3,1.2 0.3,3.5 -0.2,3.7 -4.9,1.9 -2.2,5.4 -1.4,7.7 3,8.2 6.5,16.1 9.9,24.2 0.6,1.5 3,3.1 -0.5,4.4 -0.4,0.1 -0.5,2.6 0.1,3.5 4.2,6.7 8.6,13.4 13,20 1.7,2.5 3.7,4.9 6,7.8 -6.1,1.9 -4.2,3.7 -1.5,7.2 2.8,3.5 3.8,8.5 5.7,12.8 0.9,2.1 2,4 3.2,6.4 -8.7,6.8 -9.6,16.1 -7.4,27 -8.3,-6.6 -16.1,-12.9 -24,-19 -2.3,-1.8 -5,-3.2 -7.6,-4.6 -5.5,-3 -6.5,-5.5 -5.4,-11.7 1.5,-7.7 2.8,-15.4 4.2,-23.2 0.1,-0.5 0.6,-1.1 0.5,-1.3 -5.1,-8.9 1.3,-17.6 0.3,-26.4 -0.3,-2.8 -1.1,-5.6 -1.5,-8.4 -0.3,-2 -0.1,-4 -0.3,-5.9 -0.6,-7.2 -0.7,-14.6 -2.2,-21.6 -1.6,-7.3 -4.1,-14.6 -7,-21.5 -2.3,-5.4 -5.7,-10.3 -8.6,-15.5 -0.9,-1.6 -1.6,-3.2 -2.5,-4.7 -1.5,-2.5 -3.6,-2.3 -5.1,-0.2 -5.6,8.1 -12,15.9 -16.1,24.8 -3.4,7.4 -3.9,16.1 -5.6,24.2 -2.1,9.8 -4,19.7 -6.1,29.5 -2,9 -4.3,18 -6.3,27 -0.8,3.5 -1,7.1 -1.4,10.8 -7.4,0 -14.6,0 -21.8,0 2.4,9.3 4.7,18.4 7.2,27.5 1.8,6.4 4.3,12.7 5.5,19.2 0.8,4.5 0.7,9.5 -0.3,14 -3.5,16.1 -7.6,32 -11.4,48 -0.3,1.4 -0.2,2.9 -0.4,4.9 -3,-1.1 -5.8,-1.9 -8.3,-3.2 -5.3,-2.8 -5.9,-2.7 -9,4.2 -2.9,-5.9 -5.5,-10.7 -7.4,-15.7 -0.5,-1.3 1.1,-4.1 2.5,-5.3 5.9,-5 9.2,-11.4 11.3,-18.6 0.8,-2.9 2.1,-5.7 2.9,-8.7 4.1,-15 -1,-29.6 -2,-44.3 -0.4,-5.2 -1.3,-10.3 -2,-15.5 0,-0.2 0,-0.4 -0.1,-0.5 -5.8,-8.1 -0.7,-16.6 -1.2,-24.9 -0.3,-5.6 2.8,-10.8 -0.2,-16.9 -1.7,-3.5 0.6,-8.9 0.7,-13.4 0.1,-6.4 1.8,-13.6 -0.6,-18.9 -2.9,-6.2 -1.4,-12.2 -2.6,-18.1 -1.2,-6.4 -2.7,-12.8 -4.2,-19.2 -1.8,-7.9 -3.2,-16 -5.9,-23.5 -2.3,-6.3 -6.2,-12 -9.5,-18 -2.3,-4.2 -4.7,-8.4 -7.9,-14.1 -1.8,3.5 -3.4,5.8 -4.2,8.3 -4.4,12.5 -4.8,25.2 -3.3,38.3 0.7,6 -0.2,12.2 -0.2,18.3 0,8.1 0.3,16.1 0.3,24.2 0,1.1 -0.3,2.1 -0.6,4.6 -2,-3.1 -2.9,-5.4 -4.5,-7 -5.6,-5.5 -11.3,-10.9 -17.4,-15.8 -0.9,-0.7 -5.2,1.1 -6.2,2.8 -2.6,4.3 -4.1,9.2 -6.1,13.8 -0.8,1.9 -1.3,4.4 -2.7,5.6 -5.4,4.5 -5.1,10.9 -6.3,16.8 -0.6,2.9 -0.3,5.7 -3.4,7.8 -0.9,0.6 -0.1,3.8 -0.1,6.1 -2.2,-2.7 -2.3,-7.3 -6.9,-7.8 -0.3,0 -0.3,-2.1 -0.7,-3.1 -0.9,-2 -1.9,-3.9 -3.2,-5.7 -3.9,-5.6 -7.9,-11 -11.8,-16.6 -0.7,-1 -1.4,-2.5 -2.4,-3 -4.6,-2.1 -7.3,-5.6 -9,-10.1 -0.4,-1 -1,-2.3 -1.9,-2.8 -5.5,-3.3 -10.9,-6.9 -16.8,-9.2 -2.9,-1.1 -7,-0.1 -10.3,0.9 -3.7,1.1 -7,3.2 -10.5,4.9 -5.3,2.6 -6.6,6.2 -5.5,12.1 1.3,6.8 0.9,14.2 3.4,20.4 1.9,4.8 -0.2,11.1 5.2,14.6 0.3,0.2 0.2,1.3 0.2,2 -0.4,3.6 -0.3,6.3 4,8.4 2,0.9 2.2,5.6 3.1,8.7 0.5,1.7 0.2,4.7 0.9,4.9 4.8,1.5 3.6,5.2 3.9,8.5 0,0.3 -0.1,0.7 0.1,1 1.8,3.4 4.9,6.8 5.1,10.3 0.3,4.4 1.8,6.8 4.9,9.4 1.7,1.4 2.1,4.5 3.3,6.6 1.9,3.3 4,6.6 5.9,9.8 -0.5,0.5 -1,0.9 -1.5,1.4 -4.6,-3.2 -9.3,-6.3 -13.8,-9.6 -9.6,-7.2 -19.2,-14.4 -28.7,-21.7 -9.7,-7.5 -19.2,-15.2 -29,-22.7 -9,-6.9 -18.2,-13.7 -27.3,-20.4 -1.3,-0.9 -2.9,-1.4 -4.5,-1.7 -7.1,-1.2 -14.2,-2.2 -21.3,-3.3 -2.2,-0.3 -4.5,-0.6 -8.2,-1.2 1.1,8.6 2.7,16.3 3.1,24.1 0.6,10.7 7.2,18.6 11.1,27.8 4.2,9.9 11.8,16.5 18.1,24.4 0.4,0.5 1.3,1.1 1.2,1.5 -2.8,9.1 6,11 10.1,15.4 5.9,6.4 12.9,11.8 19.8,17.1 5.9,4.6 12.2,8.8 18.7,12.6 12,7.1 23.8,14.6 36.5,20.3 11.6,5.2 24.1,7 37,3.9 9.2,-2.3 16.6,-7.4 23.5,-13.6 3.4,-3.1 6,-2.8 8.8,0.4 4.4,5.1 8.9,10.3 13.4,15.4 2,2.2 4.1,4.3 6.7,7 -11.6,0.8 -22.4,1.2 -33,2.3 -4.8,0.5 -9.8,1.7 -14.2,3.7 -4.2,1.9 -8,2 -12.3,1 -7.8,-1.8 -15.6,-3.1 -23.3,-5 -10.7,-2.7 -21.3,-6.1 -32.1,-8.6 -10.9,-2.5 -22,-4.4 -33.1,-6.2 -9.5,-1.5 -19.1,-3.1 -28.7,-3.6 -5.7,-0.3 -11.5,1.1 -17.2,2 -3.2,0.5 -6.4,1.2 -9.4,2.3 -3.8,1.4 -4.9,3.9 -2.8,7.8 6.2,11.7 12.9,23.1 22.4,32.6 2.7,2.7 4.3,6.5 7.1,8.8 3.9,3.2 8.6,5.2 12.8,8.1 5.3,3.6 10,8.1 15.5,11.2 8.6,5 17.7,9.2 26.2,13.6 0.6,1.1 1.2,2.2 1.7,3.3 0.3,0.6 0.6,1.4 0.4,1.9 -4.3,10.3 -3.7,21.2 -4.4,32 0,0.6 1.6,2 2.2,1.8 5.7,-1.2 11.4,-2.6 17.1,-3.9 3,-0.7 6,-1.1 10.2,-1.8 -10.5,14 -15.4,28.5 -16.4,44.4 -0.3,5 -0.9,10.3 -5.5,13.7 -1.8,1.4 -4.4,2.1 -5.7,3.8 -3.8,4.8 -7.3,9.9 -10.6,15.1 -3,4.6 -5.8,9.5 -9.5,15.6 -1.2,-2.1 -1.8,-2.9 -2.2,-3.7 -1.8,-3.8 -3.3,-7.7 -5.4,-11.3 -1.1,-2 -3.7,-3.1 -4.9,-5 -1.4,-2.2 -2.1,-4.8 -3.4,-8.1 -0.3,-0.1 -1.9,-0.4 -2.3,-0.4 -1.3,-3.4 -2.8,-6.2 -3.3,-9.1 -0.6,-3.6 -2.4,-4.7 -5.6,-6.3 -3.4,-1.8 -5.6,-5.9 -8.4,-9 -0.3,-0.4 -0.4,-1 -0.8,-1.2 -5.4,-2.7 -10.6,-5.9 -16.2,-8 -4.9,-1.9 -12.2,3.1 -14,8 -1,2.9 -3.2,5.3 -4.8,8 -0.6,1.1 -1.4,2.4 -1.2,3.5 0.6,4.4 1.5,8.7 2.3,13 0.2,0.9 0.4,1.9 0.2,2.8 -0.4,2.4 -1.1,4.8 -1.3,6 -4.6,-2 -9.9,-4.1 -15,-6.6 -2.8,-1.3 -5.1,-3.8 -7.9,-4.8 -2.9,-1.1 -6.8,-2.5 -9,-1.4 -4.3,2.2 -8.1,2.5 -12,0.3 -6.2,-3.5 -12.1,-0.6 -18.1,0.1 -6,0.7 -12,1.3 -18,1.9 -3.3,0.3 -6.6,0.5 -9.7,1.1 -2,0.4 -3.1,0.8 -2.1,4.2 1.8,5.9 4.9,11.3 5.3,18 0.3,5.2 3.9,10.9 8.3,15.3 2.6,2.6 4.8,5.8 6.3,9.1 4.2,9.4 12.2,15 19.6,21.1 2.1,1.7 5,2.7 4.3,6.2 -0.1,0.3 0.4,0.9 0.8,1.2 8,7.9 14.9,16.8 25.6,21.8 5.4,2.5 9.5,7.7 14.4,11.5 10.5,8 21.3,15.8 33.9,20.3 7.7,2.8 15.1,6.2 23,8.2 4.4,1.1 9.4,-0.1 14,-0.7 2.1,-0.3 4.2,-1.6 5.8,-2.3 3.4,13.8 13.7,23.7 20.1,36.7 C 187.5,614 169.8,605.1 152.7,595 137.8,586.2 123.9,575.9 109.3,566.8 99,560.3 87.9,555 77.6,548.6 c -7.4,-4.5 -14.1,-10.2 -21.3,-15 -6.4,-4.2 -13.2,-7.9 -19.7,-12 -1.8,-1.1 -3.1,-3 -4.8,-4.3 -7,-5.3 -15.5,-6.5 -23.8,-8.2 -3.1,-0.6 -5.6,2.8 -5.4,7.2 0.4,8.3 3.9,15.5 8.1,22.5 0.7,1.1 1.6,2.2 1.6,3.4 0.1,6.7 4,11.6 7.6,16.7 2.3,3.3 4.1,6.4 5,10.7 0.9,4.3 5.1,8.2 8.5,11.7 3.5,3.6 7.7,6.5 11.5,9.8 0.8,0.6 1.8,1.3 2,2.2 3.1,10.3 12.5,14.3 20.1,20 3.7,2.8 8.1,4.6 12.1,7.2 1.1,0.7 1.5,2.5 2.3,3.8 0.7,1 1.3,2.3 2.2,2.8 7.6,4.1 15.2,8 22.8,12 1.2,0.7 3.2,1.1 3.6,2.1 2.8,8.5 10.8,9.2 17.5,11.9 4.9,2 9.8,4.3 14.9,6.1 2.9,1 6,1.3 9,2.1 0.7,0.2 1.3,0.9 3.3,2.4 -4.8,1.6 -8.6,3 -12.5,3.9 -3,0.7 -3.6,1 -2,3.8 1.6,2.9 4,5.5 6,8.2 4.5,6.2 9,12.3 14,19.2 -0.6,0.8 -1.4,2.7 -2.8,3.8 -7.3,6.2 -10.5,14.8 -13.9,23.3 -1,2.6 1.2,5.1 3.9,5.7 3.5,0.7 6.7,2.4 10.2,3.3 3.8,1 7.7,2.2 11.6,2.1 7.7,-0.2 15.5,-0.7 23.1,-1.9 14.1,-2.3 26.7,-7.5 34.8,-20.3 0.4,-0.6 0.4,-1.5 0.6,-2.3 5.1,1.1 10,2.2 15.5,3.4 -6.6,4.4 -12.8,8.4 -18.9,12.7 -8.9,6.1 -16.5,13.7 -23.3,22.2 -8.5,10.7 -17.4,21.1 -26.1,31.7 -6.9,8.5 -14,16.9 -20.5,25.7 -4.7,6.4 -8.5,13.4 -13,20.1 -1.2,1.8 -3.1,3.3 -5,4.5 -10.6,6.8 -21.5,13.3 -31.9,20.3 -2.8,1.9 -4.1,5.9 -6.7,8.3 -9.4,8.7 -16.3,18.9 -20.4,32.1 9.3,2.1 18.8,4.2 28.4,6.4 -0.4,0.8 -0.9,1.7 -1.4,2.9 0.6,0.2 1,0.5 1.5,0.5 9.2,1.4 18.2,0.7 27.3,-1.6 3.2,-0.8 7.2,1.9 10.7,1.5 9.1,-1 18.1,-3 27.2,-4 6.5,-0.8 13,-0.8 19.6,-0.9 1.1,0 2.1,1.4 3.2,2.1 3.4,2.1 7,4.1 10.3,6.4 1.5,1 2.2,3.2 3.7,4.2 3.4,2.3 6.9,5 10.7,6.3 8.9,2.8 18,4.5 26.9,7.2 7.7,2.3 15.7,4.5 22.7,8.4 3.8,2.1 7.8,5.8 7.8,12.2 0,3.7 3.7,7.4 6.4,12.2 -1.9,-0.3 -3.4,-0.5 -5,-0.8 -6.5,-1.3 -13.4,-4.7 -19.3,-3.4 -7.5,1.6 -14.1,0 -21.2,-0.5 -2.1,-0.2 -4.5,-0.3 -6.3,0.6 -1.4,0.6 -3.1,3.1 -2.8,4.3 3.2,10.9 6.8,21.6 10.5,33 -6.8,6.4 -14.6,13.7 -21.6,20.3 1.5,9.1 7.8,10.6 13.6,12.7 3.2,1.1 6.2,2.7 9.4,3.7 2.4,0.8 4.9,1.2 7.4,1.3 8,0.6 16,0.7 23.9,1.6 2.3,0.3 4.3,2.7 7.1,4.5 -1.4,0.3 -2.1,0.5 -3.7,0.9 1.5,0.9 2.5,1.5 3.7,2.2 -0.5,0.4 -0.6,0.8 -0.9,0.8 -15.7,1.9 -31.3,3.8 -47,5.7 -6,0.7 -12.2,0.7 -18,2.2 -7.9,2.1 -15.5,5.4 -23.4,7.9 -11.2,3.5 -20.9,9.5 -29.7,17.1 -3,2.6 -3.5,4.7 -0.6,7.7 6.3,6.5 14.4,9.7 22.4,13 2.9,1.2 5.6,3 8.6,3.9 5.7,1.7 11.9,4.8 17.4,4.1 6.8,-0.9 10.8,4 16.6,4.7 7.9,1 15.6,1.1 23.3,-1 2.8,-0.8 6.1,-2.1 8.1,2.2 0.5,1 3.3,1.5 4.9,1.3 6.1,-0.7 12.2,-1.9 18.3,-2.7 5.9,-0.8 11.9,-0.9 17.7,-1.9 7.2,-1.2 14.3,-3 21.4,-4.5 1.3,-0.3 2.8,-0.8 3.8,-0.4 6.8,2.9 13.3,0.1 19,-2.5 6.1,-2.7 10.8,0.2 15.9,1.6 8.4,2.4 16.4,5.3 25.2,1 3.3,-1.6 7.7,-1.1 11.9,-1.6 0.6,12.8 6.5,22.4 15,30.6 -13.4,0.7 -26.5,1.9 -39.5,5.6 -18.3,5.2 -35.4,13.1 -52.5,20.9 -13.3,6.1 -26.7,12.1 -39.7,18.8 -11.7,6 -23.4,12.4 -34.5,19.6 -9.7,6.3 -19.3,13.1 -27.8,21 -5.7,5.4 -9.4,12.9 -14,19.5 -0.9,1.3 -2.2,2.6 -2.6,4.1 -0.6,2.5 -1.8,4.5 2.5,6.6 5.4,2.5 10.4,2.3 15.8,2.6 4.8,0.3 9.7,1 14.5,0.9 6.7,-0.2 13.5,-1 20.2,-1.5 1,-0.1 2.6,-0.6 2.8,-0.2 3.5,5.5 8.5,2.4 12.3,1.5 6.1,-1.5 11.8,-4.7 17.7,-7.2 1,-0.4 2.2,-1.5 3,-1.3 10.6,3.2 19.8,-1.8 29.4,-4.9 5.5,-1.8 11.3,-3.2 16.6,-5.4 6.4,-2.7 12.6,-5.9 18.8,-9.2 4.7,-2.5 7.7,-7.5 14.4,-7 2.9,0.2 6.2,-3.3 9.2,-5.3 11.1,-7.4 22.2,-14.8 33.1,-22.5 2.5,-1.8 3.7,-5.5 7.8,-4.9 0.5,0.1 1.3,-1.3 1.8,-2.1 3.1,-5.7 6.4,-11.4 9.1,-17.3 1.2,-2.6 1.1,-5.7 1.7,-8.9 3.8,6.7 7.7,13.4 11.5,20.2 2,3.5 3.3,7.7 6,10.5 5.1,5.3 0.7,8.2 -2,11.9 -4.2,5.8 -10,10.3 -11.9,17.9 -1.2,4.8 -4.6,8.9 -6.5,13.6 -3.8,9.9 -7.4,19.9 -10.8,29.9 -3.1,9 -6.4,17.8 -11.6,25.9 -6.9,10.7 -12.7,22 -19.2,33 -1.5,2.5 -3.5,4.7 -5.7,6.6 -6.7,5.7 -9.7,17.6 -6.8,24.8 2.2,5.4 7.5,5.6 11.7,7 3.3,1.2 7.4,0.3 11.1,0.2 0.8,0 1.9,-0.8 2.4,-1.5 3.3,-4.3 6.7,-8.5 9.7,-13 2.6,-3.8 4.2,-8.3 8.3,-11.2 1.3,-0.9 1.8,-3 2.7,-4.5 5.9,-10.6 11.3,-21.4 17.9,-31.6 4.4,-6.8 10.5,-12.5 15.7,-18.7 7.3,-8.7 14.8,-17.1 21.5,-26.2 5,-6.8 9.4,-14.2 13.2,-21.8 2.5,-4.9 3.7,-10.4 4.8,-15.8 0.4,-1.9 -1.3,-4.3 -2.2,-7.3 6.3,-7.7 13.3,-16.3 20.4,-24.8 3.2,-3.8 6.6,-7.4 9.9,-11.2 2.6,-3 5.5,-4.5 9.5,-2.7 0.7,0.3 2.2,0.2 2.7,-0.3 3.6,-3.9 7.9,-2.1 12.1,-1.8 3.6,0.2 7.1,0.1 10.7,0.1 4.9,0 9.8,-0.1 14.7,-0.2 0.8,0 2,0 2.4,-0.4 5,-5.3 12.3,-2.3 18.2,-5.1 5.6,-2.8 12,-4.1 18.2,-5.7 4.7,-1.3 5.4,-2.4 3,-7.1 -3.8,-7.3 -6.8,-15.4 -12.1,-21.5 -6,-7 -14.1,-12.2 -22.5,-19.2 2.8,-4.9 6,-10.7 9.2,-16.5 3.1,9.9 5.8,19.1 15.3,23.9 4.5,2.2 10.1,6 13.9,4.8 8.1,-2.4 15.9,-0.4 23.8,-1.5 7.4,-1 14.8,-2.3 22.2,-3.4 0.7,-0.1 1.7,-0.2 2.1,0.2 3.7,3.5 7.2,7.2 11,10.5 2.4,2.1 5.2,4.1 8,5.6 9.1,4.9 18.1,10.2 27.7,14.1 8.5,3.5 17.7,5.4 26.6,7.9 3.6,1 7.3,1.6 10.9,2.6 2.9,0.9 4.6,0.2 4.7,-2.9 0.2,-4.3 0.1,-8.6 0.2,-12.9 0.1,-5.4 -4.8,-10.5 -0.8,-16.1 0.1,-0.2 -0.6,-1 -0.9,-1.5 -3.8,-7.8 -7.5,-15.6 -11.4,-23.3 -1.2,-2.4 -2.7,-4.7 -3.9,-6.8 7.8,-2.8 15.9,-4.9 23.2,-8.6 4.1,-2.1 8,-4.1 12.5,-5.6 7.9,-2.6 15.8,-5.4 23,-9.4 14.8,-8 29.9,-15.7 42.5,-27.4 2.6,-2.4 6.5,-3.5 10,-5.3 -1,-5.2 4.6,-6.6 7.5,-9.8 5.5,-6.1 11.9,-11.6 12.7,-21.3 -1.7,-0.2 -3.6,-1 -5.3,-0.7 -9.2,1.7 -18.3,3.5 -27.4,5.6 -10,2.3 -20,4.5 -29.7,7.7 -9.4,3.1 -18.3,7.8 -27.5,11.3 -13.8,5.4 -27.3,11.6 -42,14.7 -10,2.1 -19.6,6.6 -29.1,10.6 -5.2,2.2 -9.5,2.7 -14.8,-0.3 -7.9,-4.5 -16.2,-8.3 -24.8,-11.4 -10.4,-3.7 -21.1,-6.4 -31.7,-9.6 -0.9,-0.3 -1.6,-0.9 -1.7,-1 6,-6.1 11.9,-12 17.5,-17.7 4,2.5 8.2,5.2 12.4,7.8 7.4,4.4 15.1,2 22.5,0.4 6.3,-1.3 12.3,-4 18.4,-6.4 1.7,-0.7 2.9,-2.5 4.5,-3.3 7.6,-3.5 15.6,-6.3 23,-10.3 7.7,-4.1 14.8,-9.3 22.2,-14 4,-2.6 8,-5.3 12,-8 1.2,-0.8 3.7,-1 1.4,-3.3 1.4,-1.4 2.7,-2.8 4.2,-4.1 5.9,-5 12.2,-9.7 17.6,-15.2 4.2,-4.3 7.3,-9.7 11.1,-14.5 3.9,-4.9 8.5,-9.4 12,-14.5 6.4,-9.2 12.2,-18.8 18.3,-28.3 0.2,-0.4 0.1,-1 0.2,-1.7 -0.8,0 -1.6,0 -2.5,0 1.3,-2.3 2.7,-4.4 3.7,-6.6 2.6,-5.9 5.3,-11.9 7.6,-18 0.5,-1.3 0,-3.6 -0.9,-4.4 -0.7,-0.7 -3.2,-0.2 -4.3,0.6 -7.6,5.3 -15.1,10.6 -22.5,16.2 -12.3,9.4 -24.4,19.1 -36.6,28.7 -8,6.4 -15.7,13.1 -23.8,19.5 -8.8,6.9 -17.8,13.5 -27.5,19.4 0.7,-1 1.2,-2.2 2.1,-3 6.4,-5.8 12.8,-11.5 19.3,-17.1 4,-3.5 9.6,-6.1 11.8,-10.5 5.2,-10.6 16.2,-15.9 22,-25.6 0.6,-1 1.1,-2 1.5,-3.1 2.1,-4.7 3.9,-9.6 6.2,-14.1 2.9,-5.8 6.6,-11.2 9.3,-17 0.9,-2 0.1,-4.8 0.1,-7.9 1.6,-2.9 3.3,-7.5 6.3,-10.9 2.8,-3.2 6.8,-5.7 10.7,-7.7 11.6,-6.1 23.2,-12.1 35.1,-17.4 8.7,-3.9 17.9,-6.7 27,-9.6 13.5,-4.4 26,-10.9 38,-18.4 1.3,-0.8 2.9,-1 5.3,-1.7 -2.1,6.4 -4.4,11.6 -5.2,16.9 -0.7,5.1 -0.9,10.7 0.6,15.5 1.2,3.9 4.9,7.2 8,10.2 5.2,5.1 11.4,9.2 16.3,14.6 9,9.9 20.3,16.4 31.5,23.3 6.3,3.9 12.5,7.8 18.8,11.6 8.4,5.2 16.9,10.2 25.3,15.4 1.8,1.1 3.2,2.9 5,3.9 2.1,1.2 4.7,2.3 3.9,-2.4 6.9,5.2 13.3,10.3 20,15 5.9,4 12,7.3 19.8,5.1 2,-0.6 5.2,1.4 7.4,3 7.2,5 15.5,8.6 23.6,7.4 20.1,-3.1 39.5,5 59.4,2.3 1.3,-0.2 3.2,-0.7 3.6,-1.6 0.5,-1.1 0.1,-3.2 -0.8,-4.1 -2.9,-3.3 -6.2,-6.5 -9.4,-9.6 -5.3,-5.1 -10.4,-10.5 -16.1,-15.1 -3.4,-2.8 -8,-4.1 -11.9,-6.3 -10.3,-5.8 -20.5,-11.7 -30.7,-17.7 -0.9,-0.5 -1.4,-1.8 -1.4,-1.8 -5.9,-2.8 -11.2,-5.1 -16.4,-7.9 -8.2,-4.4 -16.4,-9 -24.4,-13.8 -9.4,-5.6 -18.6,-11.4 -27.8,-17.3 -9.5,-6.1 -18.9,-12.6 -28.5,-18.7 C 978,805 969,799.3 959.8,794 c -7,-4.1 -14.4,-7.7 -21.7,-11.2 -5.6,-2.7 -11.3,-4.9 -17.8,-7.7 1,-1 2.3,-3 4.1,-3.8 8.3,-3.8 16.6,-5.7 26.1,-2.9 7,2.1 14.9,1.9 22.4,2.3 7.2,0.4 9.1,1.7 11.7,8.5 0.5,1.3 2,2.2 3,3.2 11.5,11.1 24.2,20.4 39.7,25.2 5.9,1.9 12.4,2.1 18.1,4.3 5.3,2.1 10.2,0.4 15.3,0.7 5.6,0.3 11.2,-1 16.8,-0.7 7.6,0.5 12.4,-6.3 19.6,-6.7 2.5,-0.1 5,-1.3 6.3,-1.7 2.3,-2.4 3.5,-4.6 5.4,-5.5 5,-2.4 10.3,-4.2 16.1,-6.5 -6.6,-10.4 -12.8,-20 -19.6,-30.5 3.5,-0.6 6.1,-0.7 8.4,-1.5 2.8,-0.9 6.4,0.5 8.2,-3.6 0.6,-1.3 3.7,-1.9 5.8,-2.2 13.1,-1.9 24.6,-7.2 35,-15.2 0.7,-0.5 1.3,-1.1 1.8,-1.7 1.5,-1.8 4.3,-3.9 4.1,-5.5 -0.9,-8.1 -2.7,-9.5 -8.2,-10.9 -7.2,-1.8 -14.2,-4.3 -21.9,-6.6 1.6,-1.5 2.3,-2.6 3.3,-2.9 6,-1.9 12.2,-3.2 18.2,-5.4 2.6,-0.9 4.5,-3.4 6.9,-5 8.7,-6.1 17.6,-12.1 26.1,-18.5 1.3,-1 1.1,-3.9 1.8,-6.8 -11.8,0 -22.5,0 -34.2,0 1.5,-1.9 2.3,-2.9 4,-5.1 -5.1,-3.4 -10,-6.8 -14.3,-9.7 7.8,-5.8 16,-11.8 24.1,-18 1.9,-1.4 3.4,-3.3 4.7,-5.3 2.1,-3.2 1.1,-6.6 -2.4,-7.9 -8.7,-3.1 -17.5,-4.8 -26.8,-4 -6.7,0.5 -13.4,0.1 -21.2,0.1 2.5,-8.8 4.5,-16.3 6.9,-23.7 1.2,-3.8 -0.4,-5 -3.6,-5 -4.3,-0.1 -8.7,0.1 -13,0.1 -2.2,0 -5.2,2.2 -6.4,-1.8 0,-0.1 -1.7,0.2 -2.7,0.3 -3.1,0.6 -6.2,1.2 -9.9,1.9 4.8,-4.8 8.6,-9.7 13.4,-13.2 10.7,-7.7 22.3,-14.2 32.9,-22.1 7.9,-6 14.9,-13.2 22.2,-20.1 5.6,-5.3 11.5,-10.3 16.1,-16.4 7.2,-9.5 13.6,-19.7 19.9,-29.8 1.7,-2.8 1.9,-6.6 2.8,-10 0,289 0,578 0,867 -402.3,0 -804.7,0 -1207,0 C 0,901.3 0,450.7 0,0 c 402.3,0 804.7,0 1207,0 0,161 0,322 0,483 z"
   id="path10"
   style="fill:#ffffff" />
		<path
   d="m 336,772.7 c -13.6,-23.8 -27.1,-47.4 -40.7,-71.3 -0.6,0.6 -0.2,-0.1 0.1,0 7.4,1.1 13.7,-2 19.9,-5.2 3.8,-1.9 7.1,-4.8 10.4,-7.5 1.7,-1.4 3.1,-3.4 4.4,-5.3 0.8,-1.2 1.1,-2.8 1.6,-4.2 0.3,-0.9 0.2,-1.9 0.6,-2.6 4.8,-8.3 9.9,-16.5 14.5,-24.9 0.7,-1.2 -0.1,-3.2 -0.3,-4.7 -0.2,-1.6 -0.5,-3.2 -0.8,-4.7 4.6,0.6 8.6,0.7 12.5,1.7 10.5,2.6 21,5.7 31.5,8.5 0.8,0.2 1.5,0.6 2.3,0.7 7.9,1.1 8.9,3.2 4.4,10.2 -9.2,14.2 -18.4,28.3 -27.5,42.6 -5.1,8 -10.5,15.8 -14.7,24.3 -6.4,12.8 -13.8,25.2 -15.3,40 -0.1,0.7 -2.1,1.7 -2.9,2.4 z"
   id="path12"
   style="fill:#ffffff" />
		<path
   d="m 406.8,758.3 c 6.4,-7.5 12.9,-15 19.2,-22.6 0.8,-1 0.9,-2.7 1.2,-3.8 7.3,-11.2 14.5,-22.3 21.7,-33.5 -0.5,-0.2 -0.9,-0.4 -1.4,-0.6 0.8,-2.4 1.3,-4.9 2.4,-7.1 1.3,-2.7 3.5,-2.3 6.2,-1.8 7.8,1.6 15.6,3 23.4,3.9 13.3,1.5 26.9,-7.5 32.1,-21 4.8,1.1 5.4,5.8 7.6,9 4.7,6.9 9.3,13.8 13.8,20.9 1,1.6 2,3.7 1.7,5.4 -1.1,8.5 1.3,13.2 9.8,16.4 -1.3,0.4 -2.2,1 -2.7,0.8 -17.1,-6.5 -33.9,-3.4 -50.3,2 -9.2,3 -17.8,8.1 -27,11.2 -5.2,1.7 -8.3,6.5 -14.4,7.3 -5.1,0.7 -10.2,4.3 -14.6,7.5 -7.4,5.3 -14.2,11.3 -21.3,16.9 -5.2,4.1 -10.6,7.8 -15.7,12 -2.6,2.1 -4.5,5 -6.8,7.5 -7.3,7.7 -14.6,15.3 -22.3,23.3 -5.7,-7.6 -11.6,-15.4 -18.1,-24 2,0 3.5,-0.4 4.7,0.1 17.6,6 30,-2.3 41.1,-14.7 3.1,-3.4 6.4,-6.7 9.4,-10.2 0.9,-1 0.8,-2.8 1.2,-4.2 -0.3,-0.3 -0.6,-0.5 -0.9,-0.7 z"
   id="path14"
   style="fill:#ffffff" />
		<path
   d="m 375.5,376 c -0.6,5.8 -1.2,10.5 -1.4,15.3 -0.1,2.1 0.5,4.2 1.1,6.2 1.7,5.7 0.4,8.1 -5,9.7 -5.1,1.5 -10.4,2.9 -15.3,4.9 -3.1,1.2 -5.9,3.4 -7.7,4.5 -8.1,-4.2 -15.1,-8.1 -22.3,-11.5 -3.6,-1.7 -7.5,-2.9 -11.5,-3.8 -1.2,-0.3 -3.9,1.2 -4.2,2.3 -2.6,10.9 -3.3,21.7 0.8,32.5 0.4,1.1 1,3 0.5,3.6 -3.3,3.7 -0.7,7.1 0.9,9.9 3.7,6.3 8,12.1 11.9,18.2 1.2,1.9 1.7,4.2 2.9,7.4 -17.5,-2.1 -33.3,-4.1 -49.4,-6 1.4,-9.5 3,-18.2 3.8,-27 0.3,-3.2 -1.8,-6.5 -2.6,-9.8 -0.5,-1.9 -0.9,-3.8 -1.1,-5.7 -0.4,-4.6 -0.8,-9.3 -0.9,-13.9 -0.1,-4.9 -3.6,-4.4 -6.3,-3.6 -3.9,1.1 -7.5,3.1 -11,4.7 -6.6,-7.6 -13.1,-15 -20.3,-23.4 7.5,-1.1 14.3,-1.6 20.9,-3.1 5.7,-1.4 11.2,-3.9 16.7,-6.1 2.1,-0.9 3.4,-1.4 5.9,0.3 3,2.1 7.3,2.9 11.2,3.1 15.3,0.9 30.6,3.5 46,0.3 6.8,-1.4 13.9,-1.7 20.7,-3.2 5.2,-1.1 9.9,-3.5 15.7,-5.8 z"
   id="path16"
   style="fill:#ffffff" />
		<path
   d="m 502.1,1074.1 c -13.5,-5 -27.3,-5.3 -41.2,-5.1 -10.8,0.1 -21.5,0.2 -32.3,0.2 -0.8,0 -2.2,-1 -2.2,-1.5 -0.4,-8.4 -5.5,-14.5 -10,-21.3 3.6,-0.3 7.1,-0.4 10.5,-0.8 10.3,-1.4 18.1,-8 26.1,-13.7 6,-4.3 11,-10 16.4,-15.2 0.5,-0.4 0.7,-1.2 1.2,-1.5 8,-4.1 13,-11.9 21.9,-16.9 1.1,4.7 2.7,9.4 3.3,14.3 1,8 1.8,15.8 7.7,22.2 2.7,2.9 4.2,7 6,10.7 0.5,1.1 0.6,2.7 0.3,3.9 -2.4,8 -5,16.2 -7.7,24.7 z"
   id="path18"
   style="fill:#ffffff" />
		<path
   d="m 835.1,700 c 3.3,5.8 9.4,5.1 14.5,5.8 5.3,0.8 10.7,0.2 17.5,0.2 -11.3,14.8 -22.5,29.1 -33.3,43.8 -10.4,14.3 -20.3,29 -30.5,43.8 -0.5,-6.1 -0.8,-11.4 -1.3,-16.7 -0.2,-2.6 -1.5,-2.9 -4.1,-2.3 -9.5,2.2 -9.6,2.1 -11.7,-7.2 -1.4,-6.2 -3.2,-12.4 -3.6,-18.6 -0.1,-2.1 3,-5.8 5.3,-6.4 13.8,-4.1 21.8,-14.8 28.7,-25.8 4.7,-7.8 11.2,-12.3 18.5,-16.6 z"
   id="path20"
   style="fill:#ffffff" />
		<path
   d="m 804.9,143 c 0,7.5 0,15.1 0,22.6 0,0.4 -0.3,1.2 -0.6,1.3 -5.4,1.5 -4.4,6.5 -5.1,10.1 -1.2,6.9 -1.4,14.1 -2.3,21.1 -0.5,4.2 -1.9,8.4 -2.2,12.7 -0.5,7.5 -0.3,15 -0.7,22.5 -0.1,1.3 -1.1,3.3 -2.2,3.7 -6.6,2.3 -13.5,3.9 -20.1,6.4 -2.7,1 -4.7,3.7 -7.2,5.5 -8.4,6.2 -16.9,12.3 -25.3,18.5 -9.9,7.2 -19.6,14.7 -29.7,21.5 -9.1,6.2 -18.7,11.7 -28.2,17.3 -2.6,1.6 -5.5,-0.2 -5.3,-3.2 0.4,-7.1 0.9,-14.2 1.6,-21.3 0.2,-1.7 1.7,-3.2 3,-5.6 6.8,8.9 15.5,9.6 24.2,6.7 5.5,-1.8 10.9,-5.3 15,-9.4 7.9,-7.9 14.9,-16.8 22.2,-25.3 1.6,-1.8 3.5,-3.3 4.9,-5.2 9.3,-12.8 18.4,-25.7 27.7,-38.5 3.2,-4.4 7.3,-8.2 10,-12.9 2.6,-4.6 4.1,-10 5.8,-15.1 0.7,-2.2 0.6,-4.7 1.5,-6.8 3.9,-8.4 8,-16.6 12,-24.8 0.3,-0.5 0.6,-1 1,-1.5 0.1,-0.2 0,-0.3 0,-0.3 z"
   id="path22"
   style="fill:#ffffff" />
		<path
   d="m 434.7,863.2 c -1.1,-2.1 -2.1,-3.9 -3.6,-6.7 -7.6,3.7 -15.2,7.5 -23.1,11.5 -1.2,-1.4 -2.4,-3 -3.3,-4 7.6,-3.6 15.1,-7.1 23.1,-10.9 -0.2,1.4 -0.4,2.4 -0.7,4.2 8,-3.7 15.4,-7.1 22.7,-10.6 0,0.6 -0.1,1.1 -0.1,1.7 1.4,0.4 3.2,1.6 4,1.1 5.9,-3.4 11.6,-7.2 17.4,-10.8 3.7,-2.3 6.6,-5.6 12.2,-3.6 2.7,1 7.7,-1.2 10.2,-3.5 5.3,-4.9 9.6,-10.9 14.5,-16.2 1,-1.1 2.8,-1.4 4.2,-1.9 0.8,-0.3 1.8,-0.3 2.5,-0.8 7.6,-5.4 15.2,-10.8 22.7,-16.3 1.5,-1.1 3.2,-2.3 4.2,-3.9 1.4,-2.1 2.5,-3.7 5.5,-3.4 0.9,0.1 2.1,-1.7 3.1,-2.7 3.1,-3.6 6.2,-7.2 9.6,-11.1 7.9,8.6 11.1,18.9 15.1,28.6 -4.3,1.5 -8.1,3.7 -12.2,4.3 -11.4,1.6 -21.3,6.9 -31.6,11.2 -20.1,8.3 -39.9,17.4 -59.9,25.9 -5.6,2.4 -11.7,3.5 -17.4,5.8 -3.2,1.3 -6,3.6 -9,5.6 -3.4,2.2 -6.6,4.3 -10.1,6.5 z"
   id="path24"
   style="fill:#ffffff" />
		<path
   d="m 544.9,977.1 c -2.1,-8.5 -4.8,-17.7 -6.6,-27 -1.3,-6.7 -2,-13.7 -2,-20.5 0,-3.1 2.1,-6.5 3.9,-9.2 4.3,-6.5 5.4,-14.1 8.1,-21.2 1.3,-3.4 4.7,-6 7.1,-8.9 0.9,-1 1.7,-2.1 2.7,-3.1 1.7,-1.8 3.4,-3.4 5,-5.1 0,9.4 -0.4,18.1 0.1,26.9 0.5,9.3 -2,17.9 -4.4,26.5 -3.4,12 -7.7,23.8 -11.6,35.7 -0.9,2.2 -1.8,4.4 -2.3,5.9 z"
   id="path26"
   style="fill:#ffffff" />
		<path
   d="m 298,849.9 c 1.5,-1.4 2.2,-2.3 3.1,-2.8 11.7,-6.6 19.6,-16.5 24.1,-28.9 1.2,-3.3 -0.2,-7.5 -0.4,-10.3 6.9,8.6 14.5,18.1 22.2,27.8 -0.6,0.8 -1.3,1.6 -2.2,2.8 2,0.5 3.6,0.9 5.3,1.2 3.9,0.7 4.4,1.3 3,4.8 -1.2,3.1 -2.3,6.1 -3.5,9.3 -16.8,-1.3 -33.7,-2.6 -51.6,-3.9 z"
   id="path28"
   style="fill:#ffffff" />
		<path
   d="m 675.7,755.9 c 1.6,-6 3.2,-11.7 4.7,-17.5 2.1,1.3 4.1,3.3 6.3,3.5 2.8,0.3 5.7,-0.8 8.5,-1.6 9.7,-2.7 19.4,-5.6 29.1,-8.3 3.5,-1 6,0 9,2.3 5.5,4.1 11.4,8.4 20.3,9.2 -2.5,1.3 -4,2.6 -5.6,2.9 -5.3,1 -10.7,1.8 -16.1,2.6 -17.5,2.4 -35.6,0.6 -52.6,6.8 -0.8,0.3 -1.9,0.1 -3.6,0.1 z"
   id="path30"
   style="fill:#ffffff" />
		<path
   d="m 190.5,661.6 c 9.6,-2.1 19.8,-12 22.4,-21.6 2.4,2.2 5,3.7 6.4,5.9 4.1,6.4 7.5,13.2 11.8,19.5 4.8,7 10.3,13.6 15.2,19.9 -4.5,0 -10.1,0 -16.6,0 -5.4,-17.7 -23.5,-17.7 -39.2,-23.7 z"
   id="path32"
   style="fill:#ffffff" />
		<path
   d="m 975.5,637 c -10.3,12.7 -15.6,27.4 -18,43.8 -10.9,4.8 -22.3,9.7 -33.6,14.7 -0.5,-0.4 -0.9,-0.8 -1.4,-1.2 2.2,-4.4 3.9,-9.3 6.8,-13.2 7.4,-9.6 16.8,-17.1 27.3,-23.1 4.9,-2.8 6.7,-7.8 9.3,-12.1 1.6,-2.6 2.9,-5.5 4.8,-7.9 1,-1.3 3,-1.8 4.5,-2.6 0.1,0.5 0.2,1 0.3,1.6 z"
   id="path34"
   style="fill:#ffffff" />
		<path
   d="m 620.3,419 c -3.9,0.3 -6.6,2.2 -11.2,0.8 -4.8,-1.5 -11.5,-1.4 -16.3,2.9 -0.4,0.4 -1.1,0.6 -2.2,1.1 -0.1,-1.5 -0.3,-2.5 -0.2,-3.5 0.5,-3.4 1.5,-6.7 1.6,-10.1 0,-5.3 -0.4,-10.2 5.9,-13 2,-0.8 2.7,-4.6 4.1,-7.1 5.8,9.3 11.8,18.7 18.3,28.9 z"
   id="path36"
   style="fill:#ffffff" />
		<path
   d="m 451.9,286.1 c 5.3,4.1 10.1,7.8 15.2,11.8 -5.5,10.9 -11.1,21.9 -12.7,35.6 -2.4,-3.3 -4.5,-6.1 -6.2,-8.5 -1.8,-0.5 -4.1,-0.4 -5.3,-1.6 -0.7,-0.7 -0.2,-3.3 0.4,-4.8 2.1,-5.6 4.7,-11.1 6.6,-16.8 1,-3 0.9,-6.3 1.2,-9.5 0.3,-2 0.5,-3.9 0.8,-6.2 z"
   id="path38"
   style="fill:#ffffff" />
		<path
   d="m 818.5,498.2 c 14.4,4.2 28.3,10.1 43.8,9.6 -10.5,6.3 -21,12.5 -31.5,18.8 -4.2,-9.5 -8.2,-18.8 -12.3,-28.4 z"
   id="path40"
   style="fill:#ffffff" />
		<path
   d="m 293.1,532.5 c -4.2,-7.5 -8.5,-13 -8.2,-20.8 0.3,-8.6 -0.4,-17.3 -0.7,-26 1.4,1.7 4,3.7 4.6,6.2 1.8,7.3 8.2,9.7 13.3,12.9 6.4,4.1 6.4,3 1.4,8.6 -3.3,3.7 -5.1,8.7 -7.5,13.1 -0.8,1.5 -1.5,3.1 -2.9,6 z"
   id="path42"
   style="fill:#ffffff" />
		<path
   d="m 559.7,554.9 c 0.8,2.3 1.9,4.5 2.2,6.9 0.3,2.6 -0.1,5 2.9,6.6 3,1.7 3.2,4.3 1.1,7.2 -1.8,2.5 -3.3,5.3 -4.9,7.9 -1.8,3.1 -3.5,6 -8.1,3.7 -2.7,-1.4 -7.7,4.9 -5.4,8.5 3.6,5.5 5.5,10.2 0.5,15.6 -1.6,-2.1 -4,-4.3 -5.2,-7.1 -0.8,-2 -0.2,-4.8 0.2,-7.1 0.9,-5.6 1.9,-11.2 2.9,-16.8 0.2,-0.9 0.6,-2.4 1.2,-2.6 6.5,-2.3 5.6,-8.7 7.7,-13.4 1.2,-2.8 1.8,-5.8 2.6,-8.7 0.9,-0.3 1.6,-0.5 2.3,-0.7 z"
   id="path44"
   style="fill:#ffffff" />
		<path
   d="m 716.2,951.4 c -18.5,9.8 -36.9,19.5 -56.4,29.8 0.6,-7.6 4.4,-11.7 8.3,-15.8 2.9,-3 5.4,-6.2 8.3,-9.2 0.8,-0.9 2.2,-1.7 3.3,-1.7 5.2,0 10.5,-0.3 15.6,0.6 6.8,1.2 11.8,-2.9 17.6,-4.6 0.7,-0.2 1.5,-0.4 2.3,-0.6 0.4,0.5 0.7,1 1,1.5 z"
   id="path46"
   style="fill:#ffffff" />
		<path
   d="m 566.8,313.4 c 4.7,8.5 9.3,16.8 14.3,25.9 -4.1,-0.4 -7.6,-1.1 -11,-1.1 -4.9,0 -9.9,0.8 -14.8,0.8 -1.4,0 -3,-1.3 -4.1,-2.4 -1.8,-1.9 -0.7,-5.4 -4.7,-6.7 -2.3,-0.8 0.6,-3.3 2.4,-3.7 6.7,-1.6 12,-5.1 15.6,-11.1 0.6,-1 1.9,-1.4 2.3,-1.7 z"
   id="path48"
   style="fill:#ffffff" />
		<path
   d="m 283.3,785.9 c 3.8,-8.8 7.2,-16.8 11.1,-26 6.7,8.8 12.5,16.6 18.6,24.3 1.3,1.6 3.4,2.6 4.7,4.2 1.4,1.8 2.4,3.9 3,6.1 C 310.5,783.2 298,782 283.3,785.9 z"
   id="path50"
   style="fill:#ffffff" />
		<path
   d="m 593,779.8 c 0,-4 0.3,-8.1 -0.1,-12.1 -0.5,-5.9 -2.2,-11.8 -2.1,-17.6 0.2,-6.6 -6.4,-10 -6.5,-16.2 0,-1.9 -0.6,-3.7 -0.8,-5.5 5.6,-0.3 11.9,-0.7 17.9,-1 -2.3,17.3 -4.6,34.8 -7,52.3 -0.5,0.1 -0.9,0.1 -1.4,0.1 z"
   id="path52"
   style="fill:#ffffff" />
		<path
   d="m 754.6,437.6 c -3.4,-4.9 -6.8,-9.8 -10.2,-14.6 0.3,-0.3 0.6,-0.6 0.9,-0.9 5,1 10.1,1.6 15,3.1 2.5,0.7 4.4,3 6.7,4.3 3.2,1.9 6.4,4.1 9.9,5.3 3.3,1.1 7.1,0.9 10.9,1.3 -1,3.8 -1.9,7.3 -2.8,10.9 -7.1,-7.6 -22.4,-10 -30.4,-9.4 z"
   id="path54"
   style="fill:#ffffff" />
		<path
   d="m 381.6,984.5 c 2.2,-1.8 4.2,-3.8 6.5,-5.4 8.2,-5.6 17.7,-9.9 24.3,-17 6.7,-7.3 10.5,-17.4 15.6,-26.2 0.1,-0.1 0.2,-0.3 0.5,-0.8 1.8,2 3.6,3.9 5.8,6.3 -5.4,8 -10.2,16.8 -16.7,24 -3.8,4.3 -10.3,6.1 -15.6,9.1 -6.5,3.7 -12.9,7.5 -19.3,11.3 -0.2,-0.5 -0.6,-0.9 -1.1,-1.3 z"
   id="path56"
   style="fill:#ffffff" />
		<path
   d="m 583.1,1021 c -0.1,2.5 0,4.4 -0.4,6.3 -0.5,2 -1.3,3.9 -2.3,5.6 -3.7,6.7 -7.5,13.3 -11.3,19.9 -1,1.7 -1.9,3.5 -4.1,5.1 -1,-7.4 -2,-14.8 -3.2,-22.8 6.6,-4.4 14,-9.3 21.3,-14.1 z"
   id="path58"
   style="fill:#ffffff" />
		<path
   d="m 895,752.3 c -18,11.2 -37.4,20.2 -53,35.1 -0.5,-0.5 -0.9,-1 -1.4,-1.6 3.5,-3.1 7,-6.1 10.4,-9.2 9,-8.5 18,-17.1 27.1,-25.5 0.7,-0.6 2.3,-0.2 3.5,-0.2 3,-0.2 5.9,-0.4 8.9,-0.5 1.5,0 3,0.3 4.5,0.5 0,0.4 0,0.9 0,1.4 z"
   id="path60"
   style="fill:#ffffff" />
		<path
   d="m 456.4,334.7 c 12.1,0 24.1,0 36.7,0 0,1 0,3.2 0,5.4 -0.1,5.4 -1.9,6.7 -7,5.8 -6.2,-1.1 -12.6,-1.6 -18.7,-3.2 -4.3,-1 -10,-0.6 -11,-8 z"
   id="path62"
   style="fill:#ffffff" />
		<path
   d="m 465.9,1173.6 c -3.1,-8.4 -6.3,-16.8 -9.6,-25.8 6.5,2.3 12.7,4.4 19.6,6.8 -2.8,6.4 -5.7,12.8 -8.6,19.2 -0.5,0 -0.9,-0.1 -1.4,-0.2 z"
   id="path64"
   style="fill:#ffffff" />
		<path
   d="m 601.5,1059.3 c 1.1,1.2 2.2,2.4 4.1,4.4 0.3,-1.1 0.6,-2.2 0.9,-3.4 0.5,0.2 1,0.3 1.5,0.5 1.9,3.7 3.8,7.3 5.9,11.4 -8.4,-0.2 -15.9,3.8 -24.1,0.3 1.8,-6.5 6.9,-9.7 11.7,-13.2 z"
   id="path66"
   style="fill:#ffffff" />
		<path
   d="m 561.6,1007.5 c 3.7,-10 7.3,-20 11.3,-30.8 2.1,6.5 4,12.5 6.1,19.2 -5.4,4.1 -11,8.4 -16.6,12.7 -0.3,-0.4 -0.5,-0.8 -0.8,-1.1 z"
   id="path68"
   style="fill:#ffffff" />
		<path
   d="m 625.1,759.1 c 2.1,-11.5 3.9,-23 6.7,-34.4 0.7,-3.1 4.3,-5.6 6.6,-8.3 0.7,0.4 1.4,0.8 2.2,1.2 -4.2,14.1 -9.7,27.9 -14,42 -0.6,-0.2 -1,-0.3 -1.5,-0.5 z"
   id="path70"
   style="fill:#ffffff" />
		<path
   d="m 623.5,358.9 c -3,-6.2 -6.2,-12.7 -9.2,-19.3 -0.4,-0.9 0.3,-2.3 0.5,-3.5 1.1,0.2 2.2,0.3 3.3,0.6 0.7,0.2 1.6,1.3 2,1.1 5.2,-2.5 4.9,1 5.8,4.5 1.7,6.2 1.6,11.8 -2.4,16.6 z"
   id="path72"
   style="fill:#ffffff" />
		<path
   d="m 1017.1,524.3 c -4.4,6.1 -8.6,11.8 -13.4,18.3 0.5,-9.3 1,-17.9 1.5,-26.5 0.6,-0.2 1.1,-0.4 1.7,-0.6 1.1,1.7 2.5,3.3 3.3,5.2 2,4.5 1.9,4.6 6.9,3.6 z"
   id="path74"
   style="fill:#ffffff" />
		<path
   d="m 228.4,599.1 c -1.2,-1.3 -2.3,-2 -2.8,-3 -2.3,-4.7 -4.3,-9.6 -6.7,-14.2 -2.8,-5.4 -2.9,-5.7 3.1,-7.4 1.4,-0.4 2.9,-0.4 4.6,-0.6 0.6,8.2 1.2,16.2 1.8,25.2 z"
   id="path76"
   style="fill:#ffffff" />
		<path
   d="m 734.3,555.1 c 1.2,2.9 2.4,5.4 3.3,7.6 -2.2,4.2 -5,8.1 -6.3,12.3 -1.6,5.2 -5,4.9 -9.1,4.8 4,-8.4 8,-16.4 12.1,-24.7 z"
   id="path78"
   style="fill:#ffffff" />
		<path
   d="m 492.5,419.5 c 3.7,4.4 0.9,9.4 1.4,13.8 0.5,4.7 0.1,9.6 0.1,14.7 -2.6,-2.8 -5.3,-5.3 -7.5,-8.2 -0.7,-0.9 -0.7,-3 -0.3,-4.2 1.9,-5.1 3.9,-10.1 6.3,-16.1 z"
   id="path80"
   style="fill:#ffffff" />
		<path
   d="m 737.5,419.5 c 0.9,5.7 -3.7,16.6 -8,18.9 -0.4,-6 -0.9,-11.9 -1,-17.9 0,-0.8 2.2,-2.2 3.3,-2.2 2,-0.1 3.8,0.7 5.7,1.2 z"
   id="path82"
   style="fill:#ffffff" />
		<path
   d="m 259,647.9 c -5.7,-8.1 -11,-15.6 -16.2,-23 0.3,-0.3 0.6,-0.6 0.9,-0.9 0.8,0.7 1.5,1.4 2.3,2.1 2.8,2.4 5.3,5.3 8.4,6.9 7.3,3.7 8.3,5.6 4.6,14.9 z"
   id="path84"
   style="fill:#ffffff" />
		<path
   d="m 960.9,709.9 c -9.2,9.7 -19.1,5.8 -28.7,4.2 8.8,-3.7 18.1,-3.6 28.7,-4.2 z"
   id="path86"
   style="fill:#ffffff" />
		<path
   d="m 796.4,267.4 c 0.5,8.1 0.9,15 1.4,22.3 -8.3,-3.1 -9.9,-8.2 -5.8,-14.3 1.4,-2 2.4,-4.4 4.4,-8 z"
   id="path88"
   style="fill:#ffffff" />
		<path
   d="m 661.2,829.9 c -3.5,7 -6.7,13.6 -9.8,19.9 -1.5,-3.7 -2.1,-7.3 -1.1,-12.3 1.5,-8 7.1,-5.2 10.9,-7.6 z"
   id="path90"
   style="fill:#ffffff" />
		<path
   d="m 871.1,544.8 c -1.1,-0.2 -2.3,-0.6 -3.6,-0.7 -4.3,-0.5 -5.4,-2.1 -3.4,-6 1.1,-2 3.5,-3.4 4.5,-5.5 0.9,-1.8 0.6,-4.1 0.8,-6.1 0.6,0 1.1,0.1 1.7,0.1 0,5.9 0,11.9 0,18.2 z"
   id="path92"
   style="fill:#ffffff" />
		<path
   d="m 805,143.1 c -1.9,-9.4 2.7,-17.1 7,-25.1 0,3.6 0,7.3 0,10.9 0,0.2 0,0.4 0,0.5 -5.5,2.9 -3,10 -7.1,13.6 0,0 0.1,0.1 0.1,0.1 z"
   id="path94"
   style="fill:#ffffff" />
		<path
   d="m 468.7,499.4 c 2.6,-2.8 4.9,-6.2 8,-8 1.5,-0.9 4.7,1.2 7.1,2 0,0.5 -0.1,1 -0.1,1.5 -4.8,2 -9.6,3.9 -14.4,5.9 -0.2,-0.5 -0.4,-0.9 -0.6,-1.4 z"
   id="path96"
   style="fill:#ffffff" />
		<path
   d="m 661.5,745.6 c 3.9,-9.1 10.4,-12.6 17.1,-10.1 -5.2,3.1 -11,6.6 -17.1,10.1 z"
   id="path98"
   style="fill:#ffffff" />
		<path
   d="m 877.5,338.2 c 3.2,5.7 -3.7,6.7 -4.7,11.4 -1.3,-11.1 -1.3,-11.1 4.7,-11.4 z"
   id="path100"
   style="fill:#ffffff" />
		<path
   d="m 602.6,592 c -3.1,1.8 -5.6,3.4 -8.2,4.7 -0.3,0.2 -2,-1.2 -2,-1.8 0.2,-4.3 4.9,-6.4 8.4,-4 0.3,0.3 0.7,0.5 1.8,1.1 z"
   id="path102"
   style="fill:#ffffff" />
		<path
   d="m 854.6,604.9 c -0.7,-3.4 -1.1,-5.8 -1.5,-7.7 3.2,-0.5 6.2,-1 10.1,-1.7 -3,3.3 -5.5,6 -8.6,9.4 z"
   id="path104"
   style="fill:#ffffff" />
		<path
   d="m 715.2,419.2 c -1.3,-2.8 -2.6,-5.6 -3.9,-8.5 0.3,-0.2 0.6,-0.5 0.9,-0.7 2.3,1.3 4.6,2.6 7.3,4.1 -1.1,2 -1.9,3.4 -2.7,4.9 -0.6,0.1 -1.1,0.2 -1.6,0.2 z"
   id="path106"
   style="fill:#ffffff" />
		<path
   d="m 877.9,658.4 c 0.3,3.8 5.6,7.6 -0.7,12.3 -0.5,-4.5 -1,-8.3 -1.4,-12.1 0.7,0 1.4,-0.1 2.1,-0.2 z"
   id="path108"
   style="fill:#ffffff" />
		<path
   d="m 719.5,345.7 c 0.8,3.9 1.2,6.4 1.9,9.8 -2.8,-0.9 -4.6,-1.4 -6.5,-2 1.4,-2.4 2.6,-4.4 4.6,-7.8 z"
   id="path110"
   style="fill:#ffffff" />
		<path
   d="m 752.3,523 c -3.9,1.1 -7.3,2.1 -10.8,3 -0.2,-0.2 -0.3,-0.5 -0.5,-0.7 1.9,-1.7 3.9,-3.3 5.8,-5 1.6,0.8 3.3,1.6 5.5,2.7 z"
   id="path112"
   style="fill:#ffffff" />
		<path
   d="m 1062.2,421 c 1.8,-5.2 2.4,-5.5 8.5,-4.5 0.2,0.5 0.4,0.9 0.5,1.4 -2.9,1 -5.7,2 -9,3.1 z"
   id="path114"
   style="fill:#ffffff" />
		<path
   d="m 640.2,694 c 2.1,2.9 4.1,5.8 6.4,9.1 -5.1,-0.7 -6.4,-4.3 -7.7,-7.9 0.5,-0.4 0.9,-0.8 1.3,-1.2 z"
   id="path116"
   style="fill:#ffffff" />
	</g>
</g>
</svg>