<?xml version="1.0" encoding="UTF-8" standalone="no"?>
<!-- Created with Inkscape (http://www.inkscape.org/) -->

<svg
   xmlns:svg="http://www.w3.org/2000/svg"
   xmlns="http://www.w3.org/2000/svg"
   version="1.1"
   width="2405"
   height="3215"
   viewBox="0 0 2405 3215"
   id="svg4148">
  <defs
     id="defs4152" />
  <path
     d="m 1149.0769,3017.6839 c -2.6886,-2.6885 -7.587,-17.2212 -7.5474,-22.3917 0.014,-1.8183 -1.7344,-12.5871 -3.8851,-23.9309 -3.8194,-20.1445 -5.0854,-24.5576 -17.3916,-60.625 -3.2841,-9.625 -6.6064,-21.7187 -7.3828,-26.875 -1.3735,-9.1205 -10.619,-40.5816 -12.6839,-43.1614 -0.9573,-1.1958 -6.8169,-22.2658 -10.5924,-38.0886 -0.9023,-3.7812 -2.562,-12.5 -3.6882,-19.375 -4.5788,-27.951 -11.9602,-46.9354 -21.7285,-55.8835 -11.0282,-10.1024 -7.912,-12.5856 6.891,-5.4915 13.3374,6.3918 16.4204,11.2501 20.5511,32.3853 1.3179,6.7431 3.3149,14.0556 4.4379,16.25 2.9439,5.7523 9.4806,14.9837 11.8871,16.7872 2.4415,1.8298 6.0601,11.8174 6.0601,16.7264 0,4.6707 2.1455,5.7206 2.911,1.4245 0.3379,-1.8966 0.5243,-17.8786 0.4142,-35.5155 l -0.2002,-32.067 -3.4375,-3.1858 c -4.3231,-4.0065 -4.3025,-5.244 0.1564,-9.4094 l 3.5939,-3.3571 -0.498,-66.8318 c -0.352,-47.2504 -1.0388,-71.8518 -2.3439,-83.9653 -1.0152,-9.4234 -1.8444,-25.1734 -1.8426,-35 0,-9.8266 -0.8384,-34.7415 -1.8671,-55.3665 -1.0286,-20.625 -2.1277,-42.8437 -2.4424,-49.375 -2.4554,-50.9675 -3.1144,-62.4054 -4.3567,-75.625 -2.0401,-21.7077 -3.569,-41.3226 -5.651,-72.5 -1.0101,-15.125 -2.4214,-29.465 -3.1363,-31.8668 -0.7149,-2.4017 -1.3028,-7.183 -1.3065,-10.625 0,-3.442 -1.1286,-12.9048 -2.5,-21.0286 -1.3713,-8.1237 -2.4933,-18.9244 -2.4933,-24.0015 0,-8.1807 -2.5656,-22.3353 -4.3767,-24.1465 -0.3657,-0.3657 -1.2707,-0.059 -2.0111,0.6812 -0.9348,0.9348 -2.7331,0.9631 -5.8861,0.093 -3.1006,-0.8562 -7.1555,-0.8217 -12.7888,0.1087 -5.5821,0.9219 -9.6329,0.9615 -12.5305,0.1225 -2.355,-0.6819 -11.313,-1.7824 -19.9068,-2.4456 -8.5937,-0.6633 -17.875,-1.7685 -20.625,-2.4561 -2.75,-0.6877 -8.7601,-1.2637 -13.35579,-1.28 -9.6235,-0.034 -20.5305,-2.1443 -38.769,-7.4997 -17.1375,-5.0321 -20.5091,-6.5895 -36.6252,-16.9178 -7.5625,-4.8467 -19.0937,-11.8233 -25.625,-15.5037 -6.5312,-3.6803 -14.2879,-8.0597 -17.2371,-9.732 -7.7239,-4.3793 -13.5115,-9.8032 -18.2568,-17.109 -20.8631,-32.1206 -25.245,-40.6383 -28.1808,-54.78 -0.7847,-3.78 -2.6269,-9.9079 -4.0938,-13.6176 -2.1396,-5.4111 -2.8219,-10.5771 -3.4498,-26.1201 -0.7264,-17.982 -1.0414,-19.9036 -4.3816,-26.7274 -1.9794,-4.0439 -6.3104,-10.0639 -9.6245,-13.378 -7.1532,-7.1531 -7.6328,-8.931 -1.9713,-7.3074 6.8475,1.9639 18.1338,1.3622 24.464,-1.3041 6.7618,-2.8481 22.7325,-5.0331 36.7889,-5.0331 8.1648,0 11.094,0.6104 18.0381,3.759 13.4758,6.1102 35.1504,21.3295 45.3712,31.8584 5.1379,5.2926 15.2629,14.1492 22.5,19.6813 7.2372,5.5323 14.846,11.5672 16.9085,13.4112 5.0231,4.4906 20.2264,13.4038 27.71949,16.251 5.0463,1.9175 19.7047,3.3373 27.5466,2.6685 1.9688,-0.168 -12.3036,-28.7725 -15.9935,-32.0537 -2.4366,-2.1667 -15.28669,-21.2766 -36.53049,-54.3257 -3.7563,-5.8438 -13.2972,-21.875 -21.202,-35.625 -19.7359,-34.3296 -28.7594,-48.9444 -42.3782,-68.6371 -6.414,-9.2748 -16.0568,-24.3443 -21.4284,-33.488 -10.4623,-17.8094 -13.2771,-22.0042 -29.3702,-43.7695 -10.352,-14.0007 -17.7273,-22.2333 -32.9357,-36.764 -7.9157,-7.5632 -8.128,-7.67 -17.005,-8.5615 -8.7898,-0.8828 -9.1768,-0.7988 -17.4558,3.7862 -4.6567,2.579 -9.8936,5.6813 -11.6375,6.8941 -1.7439,1.2128 -7.9314,3.7427 -13.75,5.6218 -5.8186,1.8792 -13.1105,4.5334 -16.2043,5.898 -3.0937,1.3646 -9.8437,3.7642 -15,5.3325 -5.15622,1.5682 -16.68752,5.4366 -25.62502,8.5964 -30.195,10.6751 -37.4777,13.1016 -45,14.9938 -4.125,1.0377 -14.9942,4.976 -24.1538,8.7518 -9.1596,3.7759 -21.8158,7.9674 -28.125,9.3145 -27.0166,5.7684 -68.6725,18.8896 -87.7212,27.6316 -10.7303,4.9245 -23.5617,9.7801 -30,11.3528 -19.4751,4.7571 -31.6098,8.8202 -41.5877,13.9252 -10.9216,5.5878 -11.4085,5.5973 -28.2869,0.5474 -6.1186,-1.8306 -16.7641,-4.3013 -23.6566,-5.4904 -12.3171,-2.1249 -12.6408,-2.2695 -18.8754,-8.4385 -3.4888,-3.4521 -9.9996,-8.1881 -14.4684,-10.5246 -4.4687,-2.3365 -10.375,-5.7685 -13.125,-7.6268 -2.75,-1.8582 -7.5312,-4.6448 -10.625,-6.1926 -3.0937,-1.5476 -8.141,-5.6556 -11.2161,-9.1287 -3.0751,-3.4732 -8.9751,-8.8059 -13.1112,-11.8508 -8.5578,-6.2997 -16.9227,-16.6539 -16.9227,-20.9468 0,-1.5935 -0.3281,-3.7523 -0.7292,-4.7974 -1.3001,-3.3882 3.7656,-5.9729 27.1507,-13.8535 24.8216,-8.3649 35.6833,-12.6632 38.4934,-15.233 1.2948,-1.1842 1.86,-5.1916 2.0435,-14.4898 0.2227,-11.2826 0.7252,-13.9419 4.113,-21.7655 7.5764,-17.4965 24.8864,-38.9411 41.4286,-51.3241 9.0514,-6.7755 19.8475,-11.163 33.1969,-13.491 5.9825,-1.0433 13.719,-2.7406 17.1921,-3.7721 3.9748,-1.1804 11.5115,-1.8753 20.3386,-1.8753 7.7131,0 21.5329,-1.0786 30.7106,-2.3971 20.9484,-3.0091 52.7078,-3.8504 151.0618,-4.0011 76.46242,-0.1175 81.39592,0.1162 95.76522,4.5373 4.1871,1.2883 4.4528,-2.1237 0.9969,-12.8038 -3.7907,-11.7147 -5.1686,-25.6759 -3.1406,-31.8207 2.505,-7.5903 3.295,-8.0535 37.6285,-22.0597 28.2318,-11.517 49.7079,-19.704 60.625,-23.1109 10.2448,-3.1971 34.5017,-7.3751 55.625,-9.5809 27.5082,-2.8725 63.0581,-11.5801 82.0647,-20.101 6.88719,-3.0876 8.16979,-4.2738 12.29019,-11.3672 2.5303,-4.3559 6.9946,-10.4511 9.9207,-13.5449 6.5612,-6.9371 29.3742,-38.8067 32.6594,-45.625 2.0725,-4.3014 2.3568,-7.2706 2.0351,-21.25 -0.367,-15.9407 -2.8714,-37.5836 -5.2073,-45 -1.8598,-5.9051 -6.2628,-37.6572 -6.2628,-45.1645 0,-8.263 -1.9163,-13.0887 -8.125,-20.4605 -2.6056,-3.0937 -5.4488,-7.3125 -6.3183,-9.375 -0.8694,-2.0625 -3.3759,-6 -5.5699,-8.75 -2.1941,-2.75 -5.3576,-7.6906 -7.0301,-10.9791 -4.7614,-9.3618 -11.3481,-19.1823 -14.5622,-21.7117 -1.9545,-1.5379 -3.6279,-5.0698 -5.01039,-10.5751 -3.1746,-12.6411 -5.819,-17.562 -21.4202,-39.8591 -19.6559,-28.0924 -37.3657,-54.687 -40.4738,-60.7795 -1.416,-2.7756 -6.5857,-17.095 -11.4883,-31.821 -6.5211,-19.5875 -9.3848,-30.2978 -10.6681,-39.8996 -0.9648,-7.2188 -2.1184,-14.9272 -2.5636,-17.13 -0.6122,-3.0284 0.1236,-5.999 3.0175,-12.1831 3.6212,-7.7383 3.8165,-8.9435 3.6314,-22.4051 l -0.1957,-14.2269 4.0134,-4.57088 c 2.2073,-2.514 4.0133,-5.9464 4.0133,-7.6274 0,-1.681 -2.3044,-8.8333 -5.121,-15.894 -6.5179,-16.3398 -18.629,-49.6373 -18.629,-51.2179 0,-1.6365 -12.7643,-32.6025 -19.4746,-47.2452 -6.9311,-15.12434 -15.3855,-36.78256 -23.6652,-60.625 -6.424,-18.49857 -20.0347,-46.97231 -25.0737,-52.45437 -3.5555,-3.86813 -20.7788,-9.41685 -29.2907,-9.43644 -6.6635,-0.0154 -20.7454,3.51165 -37.5598,9.40727 -4.504,1.57923 -14.0196,4.09928 -21.1459,5.60009 -7.1262,1.50082 -14.39682,3.27626 -16.15682,3.94541 -1.76,0.66915 -7.1193,2.04109 -11.9095,3.04874 -4.7902,1.00765 -13.2408,3.16149 -18.7791,4.7863 -28.7678,8.43981 -38.7685,10.89404 -51.3197,12.59416 -13.3825,1.81273 -19.8123,2.7946 -37.1426,5.67195 -10.7125,1.7786 -48.7429,-0.33714 -57.8574,-3.21876 -3.4375,-1.0868 -9.625,-2.5343 -13.75,-3.21665 -10.6938,-1.76898 -43.47,-12.85333 -51.6382,-17.46316 -3.7986,-2.14382 -12.1992,-6.05962 -18.6681,-8.70179 -9.394,-3.83694 -13.6387,-6.48403 -21.0872,-13.1504 -5.1291,-4.59055 -11.9444,-12.07378 -15.145,-16.6294 -3.2006,-4.55563 -9.3659,-13.0642 -13.7007,-18.90795 -8.4096,-11.33691 -20.1384,-33.7574 -21.2532,-40.62709 -0.4439,-2.7355 0.017,-5.14527 1.3463,-7.04362 2.5127,-3.5873 2.5793,-7.36348 0.1859,-10.52788 -1.0094,-1.33452 -1.8531,-3.90875 -1.875,-5.7205 -0.033,-2.74764 1.3599,-4.1367 8.3977,-8.37352 18.0575,-10.87071 24.5629,-13.1505 40.3125,-14.12724 23.0379,-1.42875 49.029,-3.48004 71.875,-5.67259 15.9801,-1.5336 33.805,-2.00971 71.875,-1.9198 45.653,0.10788 51.7468,0.36445 62.047,2.61293 6.2821,1.37135 15.0008,2.84962 19.375,3.28506 11.4493,1.13973 59.8497,17.0764 69.37752,22.84376 16.5515,10.01896 35.1909,24.15301 41.659,31.5896 3.7067,4.26165 9.873,9.71879 13.703,12.12696 3.8299,2.40819 8.7431,6.05623 10.918,8.10675 6.0597,5.71297 7.2098,3.09065 1.9134,-4.3627 -5.0458,-7.10062 -6.2364,-8.27602 -24.6179,-24.3037 -16.7663,-14.61932 -28.6395,-26.93571 -34.7158,-36.01142 -2.7617,-4.125 -7.6725,-10.14406 -10.9129,-13.3757 -3.2405,-3.23164 -6.48072,-7.45039 -7.20042,-9.375 -0.7198,-1.92461 -2.8078,-7.40067 -4.64,-12.16902 -2.9784,-7.75133 -5.2932,-21.00639 -7.6543,-43.83028 -0.3556,-3.4375 -1.2625,-8.78125 -2.0154,-11.875 -1.3803,-5.67191 -2.6924,-8.13182 -17.6693,-33.125 -4.5317,-7.5625 -10.5326,-19.09375 -13.3352,-25.625 -8.9608,-20.88214 -39.2582,-81.9294 -45.6595,-92.00095 -2.2288,-3.50678 -6.6055,-11.46795 -9.7259,-17.6915 -3.1205,-6.22356 -8.1525,-15.44813 -11.1824,-20.49905 -3.0298,-5.05093 -9.1522,-16.21475 -13.6053,-24.8085 -4.453,-8.59375 -11.5385,-20.96875 -15.7454,-27.5 -12.225,-18.97918 -20.5146,-32.10512 -29.9983,-47.5 -9.0753,-14.732 -16.3147,-24.67464 -32.8965,-45.18045 -5.2012,-6.43199 -11.3911,-14.50704 -13.7553,-17.94454 -2.3642,-3.4375 -7.6712,-10.3763 -11.7933,-15.41955 -4.1221,-5.04325 -9.4635,-11.65649 -11.8698,-14.69607 -5.5011,-6.94903 -21.1561,-21.21092 -29.375,-26.76082 -3.4375,-2.32123 -8.2542,-5.81138 -10.7038,-7.75588 -6.3229,-5.0192 -20.0472,-8.80723 -28.3716,-7.83082 -8.1037,0.95052 -12.6742,4.52694 -17.0774,13.3629 -2.9222,5.86418 -3.2222,7.85613 -3.2222,21.3984 0,11.48808 0.5992,16.94427 2.5978,23.65504 3.1632,10.62159 2.5237,14.67976 -2.3091,14.65266 -4.822,-0.027 -5.8679,-1.0477 -8.2143,-8.01603 -1.573,-4.67133 -2.0744,-10.77419 -2.0744,-25.25098 0,-29.04975 2.466,-36.53368 14.5663,-44.2075 11.0132,-6.98432 26.8909,-5.89371 46.9482,3.22478 6.6767,3.03537 12.5094,5.51887 12.9615,5.51887 0.4521,0 4.0025,1.93205 7.8898,4.29346 4.9413,3.00169 11.572,9.46373 22.0385,21.4779 8.2339,9.45144 17.5213,20.035 20.6387,23.51904 8.7292,9.75599 13.949,16.70797 20.4855,27.28359 3.297,5.33444 8.6051,13.00625 11.7956,17.04847 3.1905,4.04223 10.3009,13.68283 15.8009,21.42357 5.5,7.74074 14.193,19.75642 19.3178,26.70152 10.0904,13.67447 22.5572,32.91464 22.5572,34.81271 0,0.64834 1.0447,2.67189 2.3216,4.49677 1.2768,1.82487 6.1235,10.63046 10.7704,19.56796 4.6468,8.9375 12.7428,23.42182 17.9909,32.18738 5.2482,8.76556 10.8045,18.04681 12.3474,20.625 1.543,2.5782 5.0962,10.59387 7.896,17.81262 2.7999,7.21875 6.9533,16.5 9.2299,20.625 10.1463,18.3848 21.0502,40.24289 23.6551,47.41948 2.6608,7.33046 6.9099,14.84241 18.9137,33.43798 8.5417,13.23209 13.6384,14.48838 65.00002,16.02162 19.25,0.57466 37.5313,1.62807 40.625,2.34093 3.0938,0.71286 10.5192,1.32061 16.501,1.35055 5.9818,0.0299 13.5756,0.6186 16.875,1.30814 8.1185,1.69661 34.6115,4.5761 64.124,6.96955 19.688,1.59669 25.4567,2.49838 30,4.68928 5.0677,2.44371 7.7305,2.72061 26.875,2.79461 l 21.25,0.0821 13.74999,5.0609 c 7.5625,2.7835 16.5625,5.72474 20,6.53609 3.4375,0.81135 13,5.28811 21.25,9.94838 8.25,4.66025 18.7254,10.1972 23.2788,12.30431 4.5533,2.10712 11.3033,5.75906 15,8.11544 3.6966,2.35637 14.7433,8.28988 24.548,13.18557 21.4795,10.72511 23.5138,12.25221 31.2174,23.43504 3.3153,4.8125 7.2843,10.44461 8.82,12.5158 4.7921,6.46292 10.3906,21.91885 11.0876,30.6092 0.5801,7.23468 0.3174,8.56862 -2.3981,12.1735 -4.9674,6.59432 -11.858,11.30055 -18.6912,12.76601 -11.4284,2.45095 -32.4743,5.06026 -40.8926,5.06992 -4.5209,0.005 -11.6985,0.57402 -15.95,1.26404 -4.2516,0.69003 -17.1891,1.76824 -28.75,2.39601 -18.7141,1.01622 -22.6654,1.6402 -36.0199,5.68824 -8.25,2.50075 -19.19479,5.36865 -24.32169,6.37311 -5.127,1.00447 -12.1583,2.67054 -15.625,3.70239 -3.4668,1.03186 -12.6118,3.29284 -20.3222,5.0244 -15.3555,3.44844 -44.7247,12.63028 -51.6216,16.13871 -2.3977,1.2197 -7.7928,4.64793 -11.989,7.61829 -6.0981,4.31654 -8.2007,6.72804 -10.4743,12.01318 -2.5085,5.83112 -2.7485,7.86328 -2.031,17.19718 0.564,7.33794 1.6126,11.93884 3.4184,14.99944 1.4326,2.42813 3.7255,8.04333 5.0953,12.47823 1.3698,4.4349 4.3621,12.70587 6.6496,18.37992 2.2875,5.67406 5.9368,16.59261 8.1096,24.26348 2.1728,7.67085 5.6622,17.68918 7.7542,22.26297 2.092,4.57379 5.9263,14.22223 8.5207,21.44098 2.5943,7.21871 7.9267,20.71871 11.8497,30.00001 3.9231,9.2812 11.3733,27.2812 16.5561,40 5.1827,12.7187 10.325,24.1702 11.4272,25.4476 1.1022,1.2775 3.7588,3.2462 5.9034,4.375 18.8944,9.9447 20.2153,10.9649 28.5678,22.0626 10.87269,14.4465 12.64459,19.4619 14.34939,40.6148 0.8034,9.9687 2.2295,21.7812 3.169,26.25 0.9395,4.4687 2.3919,11.6571 3.2274,15.9741 2.0751,10.7217 4.2715,11.7293 3.0252,1.3878 -1.1298,-9.3751 -1.1193,-44.8722 0.017,-59.271 0.7196,-9.1143 0.5401,-10.3545 -1.9587,-13.5312 -1.5131,-1.9235 -4.9152,-7.8145 -7.5604,-13.091 -2.6452,-5.2766 -6.5073,-12.622 -8.5824,-16.3233 l -3.77289,-6.7295 0.8058,-17.7333 c 0.5395,-11.8739 0.3071,-20.389 -0.7033,-25.7705 -1.2846,-6.8413 -1.219,-8.7286 0.4411,-12.6845 1.1441,-2.7264 1.9501,-8.2961 1.9501,-13.4751 0,-6.6031 0.7876,-10.699 3.12499,-16.2525 1.9136,-4.5465 3.125,-9.82511 3.125,-13.61699 0,-19.71472 8.4596,-40.66689 19.7101,-48.81671 2.5972,-1.88139 7.8252,-6.84963 11.6177,-11.04053 6.4037,-7.07628 7.3824,-7.68403 13.7214,-8.52023 9.5726,-1.26275 14.9508,-6.57074 14.9508,-14.75554 0,-4.19569 0.4911,-5.75 1.8167,-5.75 1.8129,0 3.0663,1.46664 8.8098,10.3081 l 3.0422,4.68309 -2.5837,12.19191 c -2.7659,13.05139 -2.7101,27.54959 0.1936,50.3169 0.7453,5.84375 1.4881,12.3125 1.6507,14.375 0.1627,2.0625 2.0973,9.375 4.2992,16.25 2.2019,6.875 4.585,15.5938 5.2956,19.375 0.7107,3.7813 1.7066,7.5365 2.2131,8.3449 0.5698,0.9095 6.7738,1.8122 16.2733,2.3679 14.8619,0.8693 15.5266,1.031 20.8033,5.06 2.998,2.2891 8.1533,8.2548 11.4562,13.2571 3.303,5.0023 8.7086,12.3694 12.0126,16.3714 3.304,4.002 7.093,9.3457 8.4201,11.875 1.3271,2.5293 4.6628,7.4112 7.4125,10.8487 2.7497,3.4375 8.0954,10.5509 11.8793,15.8076 3.7838,5.2567 8.5818,10.7696 10.6621,12.2509 6.5286,4.6488 29.5914,35.4931 36.8713,49.312 9.188,17.441 11.9187,24.4489 18.8837,48.462 3.2572,11.2296 7.0239,23.23 8.3707,26.6675 3.4176,8.7235 4.5631,17.2539 3.2409,24.136 -7.0372,36.6326 -6.8776,39.029 3.6395,54.6525 l 4.0379,5.9982 -7.0806,3.5715 c -9.394,4.7384 -14.963,9.104 -17.2464,13.5194 -2.11,4.0805 -2.4255,17.3661 -0.6232,26.2475 0.6277,3.0938 0.8078,8.3279 0.4003,11.6315 -0.6953,5.6358 -1.189,6.3106 -7.998,10.9345 -3.9912,2.7105 -8.0986,6.13 -9.1276,7.599 -1.0289,1.469 -5.1195,3.7678 -9.0903,5.1083 -13.4503,4.5407 -17.7032,10.2072 -16.0308,21.3592 l 0.8199,5.4674 -3.846,-0.5645 c -8.3926,-1.2318 -16.9573,4.2437 -18.3636,11.7399 -0.6348,3.3837 -1.2815,4.192 -2.855,3.5683 -5.3473,-2.1193 -9.9632,-1.9945 -14.6499,0.3965 -7.0875,3.6158 -18.0203,15.6464 -25.0039,27.5148 -0.4043,0.687 -7.3894,-4.0386 -13.4952,-9.1299 -7.5197,-6.2702 -27.0103,-28.111 -27.0103,-30.2672 0,-0.8843 -0.5674,-1.6078 -1.2609,-1.6078 -1.3144,0 -0.7611,8.5891 1.3636,21.1671 0.631,3.7357 1.1473,9.6985 1.1473,13.2509 0,6.5394 1.987,14.332 3.6544,14.332 0.5004,0 2.1791,-1.3511 3.7305,-3.0025 2.9508,-3.141 10.9566,-5.7475 17.653,-5.7475 4.8571,0 18.7995,7.6324 22.9476,12.5621 5.337,6.3428 12.9157,21.5187 14.9507,29.9379 5.5215,22.8439 6.1492,64.3618 1.4391,95.1801 -4.3126,28.2172 -6.323,36.422 -11.4061,46.5504 -5.1791,10.3197 -7.8544,14.3064 -15.0475,22.4233 -6.665,7.5208 -7.5002,11.7529 -4.9138,24.8968 1.1174,5.6784 2.5586,14.8244 3.2027,20.3244 0.6441,5.5 2.3449,14.7812 3.7795,20.625 4.5418,18.5007 5.0099,21.1304 5.0099,28.143 0,3.8015 0.5648,6.857 1.2676,6.857 1.9909,0 8.4732,-7.5001 12.5781,-14.5531 3.8243,-6.5708 6.0449,-7.8989 13.2594,-7.9298 2.1891,-0.013 7.2662,-1.4422 11.2825,-3.1841 6.1009,-2.6459 9.3179,-5.4126 19.5543,-16.8177 6.7385,-7.5079 15.174,-15.5904 18.7455,-17.961 9.4668,-6.2838 26.3891,-13.8907 36.4376,-16.3793 23.8845,-5.9156 31.4096,-9.1467 44.1031,-18.9372 31.6734,-24.4297 33.6001,-25.5034 45.688,-25.4603 8.042,0.029 16.2814,2.8514 19.4305,6.6567 0.9469,1.1442 1.823,4.4869 1.947,7.4283 0.1238,2.9413 0.5947,5.9453 1.0459,6.6756 0.4651,0.7525 7.5435,1.6454 16.3386,2.0609 12.3237,0.5824 16.5104,1.2651 20.3389,3.3171 6.2736,3.3625 13.6856,3.4423 15.439,0.166 0.7118,-1.3297 1.3185,-8.2203 1.3485,-15.3125 0.03,-7.092 0.5133,-15.2655 1.0741,-18.1632 1.4838,-7.6664 23.7628,-46.0955 30.3524,-52.3551 2.9667,-2.818 10.2926,-8.0829 16.2799,-11.6998 13.64,-8.2396 49.043,-24.0951 64.7391,-28.9939 12.5172,-3.9066 18.454,-5.9692 43.75,-15.2006 19.2211,-7.0145 42.6116,-14.3635 60,-18.8514 15.5384,-4.0102 38.1258,-10.998 51.3496,-15.8855 5.2111,-1.9261 14.4924,-4.4131 20.625,-5.5268 6.1328,-1.1137 16.4942,-3.9313 23.0254,-6.2614 22.2033,-7.9211 24.4625,-8.2724 57.7469,-8.9784 25.0352,-0.5311 32.4796,-0.292 39.375,1.2646 4.6767,1.0558 11.8781,2.6 16.0031,3.4315 16.6736,3.3614 33.8825,10.4472 50.9994,20.9989 16.9087,10.4235 22.25,19.4491 25.3151,42.7784 2.0898,15.9049 4.4264,21.1601 11.8834,26.7254 2.7098,2.0225 4.9271,4.1847 4.9271,4.8048 0,2.0818 -26.1649,-2.3708 -39.5916,-6.7375 -7.1394,-2.3218 -10.4585,-2.481 -44.375,-2.1271 l -36.6584,0.3825 -5.9739,3.5115 c -7.8461,4.6121 -14.2305,14.1964 -15.38,23.0888 -0.6124,4.7375 -2.0619,8.1831 -5.1362,12.2095 -2.3558,3.0852 -6.8529,9.9588 -9.9936,15.2748 -3.1409,5.3159 -6.7974,11.0717 -8.1258,12.7904 -4.7001,6.0815 -24.235,21.535 -31.0155,24.5355 -3.7812,1.6734 -9.125,4.2223 -11.875,5.6643 -2.75,1.4418 -8.0937,4.2387 -11.875,6.215 -11.7396,6.1357 -29.3341,9.8731 -51.875,11.0192 -14.2249,0.7233 -21.4124,1.631 -24.8913,3.1434 -2.9466,1.281 -9.4069,2.3375 -16.25,2.6572 -6.2472,0.2919 -20.9212,0.9513 -32.6087,1.465 -11.6875,0.5139 -20.4062,1.3179 -19.375,1.7867 5.1938,2.361 39.0571,5.7438 66.875,6.6806 12.375,0.4167 27,1.5323 32.5,2.4792 11.249,1.9365 26.6499,2.6437 95.34,4.3779 26.312,0.6643 52.9235,1.7836 59.1368,2.4875 6.2132,0.7039 14.779,1.5363 19.035,1.8499 28.6782,2.1127 56.5488,6.2139 76.3697,11.2375 48.7718,12.3614 52.3565,13.5989 80.4516,27.7716 29.4079,14.8351 47.8663,27.5794 70.1113,48.407 11.827,11.0735 21.7357,27.9844 25.8383,44.0971 2.1974,8.63 2.2024,9.4769 0.1213,20.625 -3.5114,18.8049 -5.5609,24.4925 -12.4161,34.4572 -9.7212,14.1302 -19.2228,20.5321 -42.6764,28.7541 -21.9359,7.6899 -48.0055,7.0095 -67.8602,-1.7713 -3.8634,-1.7085 -9.0328,-3.8008 -11.4876,-4.6496 -5.4193,-1.8736 -28.1442,-18.2854 -32.8671,-23.7364 -4.9392,-5.7007 -4.7105,-11.3346 0.5914,-14.5673 6.5774,-4.0103 9.6325,-3.2204 21.359,5.5222 22.1136,16.4866 33.4897,20.7415 55.4551,20.7415 15.8785,0 21.8136,-1.622 37.0953,-10.1377 11.0847,-6.177 19.458,-13.0617 24.7188,-20.3239 3.2473,-4.4828 3.5593,-5.8441 3.5593,-15.5286 0,-14.3074 -3.3228,-25.0188 -11.5949,-37.378 -8.1543,-12.1835 -18.3194,-22.4319 -32.6255,-32.8933 -11.3097,-8.2702 -14.1426,-10.0049 -33.9046,-20.7607 -12.0094,-6.5365 -12.0745,-6.5662 -38.75,-17.7087 -18.3736,-7.6747 -42.013,-13.8817 -67.5,-17.7237 -4.8125,-0.7255 -14.0938,-2.2044 -20.625,-3.2866 -19.9126,-3.2995 -80.9511,-7.4968 -134.375,-9.2403 -20.625,-0.673 -41.7188,-1.8534 -46.875,-2.623 -5.1563,-0.7696 -12.7035,-1.1057 -16.7716,-0.747 -4.0682,0.3589 -10.5023,0.1469 -14.298,-0.4709 -3.7958,-0.6177 -7.1555,-0.8691 -7.4662,-0.5585 -0.3105,0.3105 1.8885,3.8138 4.8868,7.7849 6.3632,8.4281 8.5976,16.804 8.5955,32.221 0,15.8094 -1.8553,18.766 -19.9465,31.8258 -30.1025,21.7305 -53.4101,35.7082 -72.3071,43.3632 -5.7377,2.3243 -13.3314,5.58 -16.875,7.2349 -3.5437,1.655 -10.6617,4.1982 -15.8179,5.6517 -5.1563,1.4537 -13.0313,3.7367 -17.5,5.0735 -4.4688,1.3369 -15.1131,3.2029 -23.6541,4.1469 -17.3314,1.9154 -20.0959,3.4891 -20.0959,11.4394 0,5.7665 -2.4861,7.5006 -8.0984,5.6484 -4.7825,-1.5784 -6.9357,-4.7339 -10.6136,-15.5539 -2.2702,-6.679 -1.5402,-6.0619 -21.3923,-18.0871 -4.5261,-2.7417 -9.0211,-5.9389 -9.9888,-7.105 -0.9679,-1.1662 -7.1084,-6.1472 -13.6458,-11.0688 -6.5374,-4.9217 -15.6847,-11.8514 -20.3276,-15.3992 -9.7206,-7.428 -15.9667,-9.4999 -26.5386,-8.803 -6.655,0.4387 -9.4399,1.5968 -24.2136,10.0701 -10.6322,6.0977 -18.6979,9.8749 -22.2129,10.402 -6.9205,1.0377 -24.3371,-0.2478 -37.0379,-2.7338 l -9.6944,-1.8976 -9.6806,5.2613 c -5.3242,2.8935 -14.4617,7.9201 -20.3055,11.1702 -5.8437,3.25 -18.2187,10.0301 -27.5,15.0671 -22.9637,12.4623 -47.8294,28.8788 -51.9756,34.3147 -2.0516,2.6898 -3.8337,7.0788 -4.4583,10.9801 -4.0568,25.3392 -5.7566,46.4054 -7.3326,90.8741 -0.6701,18.9063 -1.5672,35.9149 -1.9937,37.797 -0.5999,2.6478 -0.2481,3.6001 1.5549,4.2095 14.3312,4.8438 35.2908,14.4081 42.7654,19.515 3.1982,2.1851 10.762,8.936 16.8084,15.0019 11.8914,11.9299 28.0745,35.2676 39.5351,57.0141 3.5036,6.6481 9.1695,15.8141 12.5909,20.3688 6.1771,8.2235 6.2691,8.2852 13.1649,8.8571 9.4693,0.7852 13.0671,3.7229 15.8767,12.9636 2.8419,9.3466 1.7656,14.5059 -6.1061,29.273 -4.3006,8.0678 -8.079,12.9386 -15.6983,20.2378 l -10.0343,9.6128 -6.5123,-3.6753 c -7.3569,-4.1519 -9.8017,-4.439 -15.9445,-1.8725 -6.9597,2.908 -8.6561,6.2308 -6.5776,12.8847 0.8205,2.6265 0.5112,2.8125 -4.6744,2.8125 -4.152,0 -6.2111,0.7095 -8.1621,2.8125 -3.4695,3.7396 -9.0765,14.4723 -9.0765,17.3736 0,2.8882 -1.0067,2.9192 -4.1048,0.1264 -2.003,-1.8055 -4.7486,-2.1747 -15.7235,-2.1144 -7.3132,0.04 -16.5121,0.4648 -20.442,0.9435 l -7.1453,0.8703 -4.7297,-7.0844 c -2.6013,-3.8965 -5.4688,-8.4101 -6.3721,-10.0304 -0.9033,-1.6202 -2.0834,-2.6733 -2.6224,-2.3402 -1.6428,1.0152 -0.093,32.1262 1.8569,37.2809 1.3538,3.5787 1.7819,11.55 1.7789,33.125 0,18.2705 0.6432,32.8741 1.8094,40.9122 3.273,22.5608 4.4024,34.6499 5.7222,61.25 1.4555,29.3351 4.4452,67.3454 6.1942,78.75 0.6325,4.125 1.7561,22.4063 2.4968,40.625 1.3441,33.0643 4.0235,72.326 6.3183,92.5846 0.6672,5.8904 1.2164,30.0779 1.2203,53.75 0,23.6723 0.5723,46.4154 1.2629,50.5404 0.6906,4.125 1.8263,14.8125 2.5238,23.75 2.0176,25.8506 4.2298,40.6503 6.2693,41.9405 3.0723,1.9436 4.2018,1.3935 10.6088,-5.1685 9.9119,-10.1516 25.5923,-19.8655 55.578,-34.4304 9.2717,-4.5036 13.6561,-5.8991 20,-6.366 7.5707,-0.5572 8.4871,-0.3335 13.433,3.2803 2.9194,2.133 6.8569,6.0141 8.75,8.6246 4.8445,6.6804 26.263,28.3888 31.8795,32.311 2.5781,1.8004 4.6875,3.6561 4.6875,4.1236 0,1.3689 -13.7738,7.5097 -21.25,9.4739 -3.7813,0.9935 -9.219,1.813 -12.0839,1.8211 -2.8649,0.013 -7.7607,1.1088 -10.8797,2.4458 -15.9134,6.8212 -27.2302,9.1785 -42.4792,8.8486 -10.4222,-0.2254 -12.3861,1.6155 -3.0235,2.8341 2.9378,0.3824 8.5248,1.4062 12.4157,2.2752 6.0407,1.349 8.6886,1.2705 18.125,-0.5378 6.0778,-1.1646 14.1256,-2.1139 17.8838,-2.1092 6.3642,0.013 17.5919,3.129 17.502,4.8656 -0.1957,3.781 -17.8926,14.3534 -28.6152,17.0952 -11.8283,3.0247 -33.3919,2.0714 -42.3083,-1.8702 -8.5815,-3.7935 -28.6287,-4.4066 -34.7887,-1.064 -6.4532,3.502 -11.748,10.4626 -11.748,15.4441 0,2.4065 -0.9109,5.7658 -2.0243,7.4649 -3.6791,5.6151 -5.3933,27.5695 -5.4126,69.3226 -0.013,27.2983 0.5119,42.8569 1.7104,50.7271 1.0802,7.0937 1.4834,16.2374 1.0748,24.375 -0.5183,10.322 -0.098,15.7557 2.0245,26.1995 1.4731,7.2472 3.499,18.2159 4.5019,24.375 1.0029,6.1592 2.7021,15.6984 3.776,21.1984 2.2563,11.5563 1.5597,23.553 -1.8166,31.2858 -2.4765,5.6721 -5.034,7.0605 -22.7671,12.3595 -12.9502,3.8698 -15.3239,3.9728 -18.4943,0.8023 z M 1046.5042,1977.7717 c 0,-2.5225 13.2815,-21.3458 19.8064,-28.0706 7.7583,-7.996 13.3401,-11.4118 20.8767,-12.7749 13.3814,-2.4205 13.6912,-3.7643 14.9728,-64.9399 0.8656,-41.3206 2.6616,-76.7532 4.3388,-85.597 2.2836,-12.0415 1.6958,-17.2797 -2.3986,-21.3741 -4.6702,-4.6703 -7.5336,-4.598 -16.1939,0.4086 -6.9996,4.0465 -7.1108,4.0651 -28.2772,4.7386 -20.6734,0.6578 -21.4535,0.7809 -28.75,4.536 -4.125,2.123 -11.7187,5.0148 -16.875,6.4262 -5.1562,1.4113 -10.4738,2.99 -11.8168,3.5078 -2.18,0.8405 -2.0794,0.323 0.9375,-4.8248 2.5255,-4.3095 3.3798,-7.4472 3.3812,-12.4189 0,-11.8485 5.5818,-18.1183 16.3994,-18.4323 4.0184,-0.1162 27.8184,-10.5075 32.9737,-14.396 2.0625,-1.5557 5.7188,-3.8103 8.125,-5.0102 2.4063,-1.1999 9.6859,-7.6114 16.177,-14.2478 13.6235,-13.9284 13.1856,-12.1802 8.9506,-35.7366 -1.3675,-7.6062 -3.9805,-23.6732 -5.8066,-35.7045 -6.7532,-44.4923 -5.832,-40.5759 -9.6478,-41.019 -2.0126,-0.2339 -6.3217,1.1581 -10.5953,3.4224 -3.9616,2.0991 -9.7341,4.6292 -12.8279,5.6226 -14.197,4.5584 -27.1779,9.7176 -30.3881,12.0778 -9.3194,6.8516 -14.8306,10.001 -24.61189,14.0642 -20.6919,8.5956 -80.7711,38.6258 -90.9237,45.4475 -11.9011,7.9966 -14.4309,11.5498 -16.5815,23.2893 l -1.5627,8.5297 8.435,17.0895 c 4.6392,9.3991 9.9709,19.342 11.8484,22.0953 1.8774,2.7531 8.0562,13.4432 13.7306,23.7557 5.6744,10.3125 11.2919,19.875 12.4833,21.25 1.1914,1.375 3.4732,4.75 5.0706,7.5 1.5975,2.75 3.8957,6.125 5.1071,7.5 1.2115,1.375 4.1369,5.875 6.5009,10 14.6286,25.5254 26.686,45.5318 29.5077,48.9609 1.7926,2.1785 6.2563,8.9285 9.9192,15 13.32889,22.093 23.13419,38.7916 29.60289,50.4141 19.621,35.2533 22.6443,39.914 25.9247,39.9656 1.2031,0.019 2.1875,-0.456 2.1875,-1.0552 z m 151.7123,-261.8666 c 6.277,-3.001 14.0766,-6.4494 17.3325,-7.6632 9.9992,-3.7275 10.2727,-5.9458 1.2248,-9.9367 l -5.3553,-2.3623 -6.5884,6.7718 c -3.6236,3.7244 -9.4826,9.0216 -13.0199,11.7716 -5.8707,4.5639 -7.814,6.875 -5.7812,6.875 0.4261,0 5.9104,-2.4554 12.1875,-5.4562 z m -337.41569,-16.5512 c 0.784,-3.1238 -1.8729,-9.2426 -4.0134,-9.2426 -0.5001,0 -3.4322,-2.3062 -6.5158,-5.1249 -4.8252,-4.4106 -13.4534,-9.8751 -15.5926,-9.8751 -1.4598,0 -0.5479,2.8939 1.9073,6.0529 16.3544,21.0424 22.3652,25.5576 24.2145,18.1897 z m 0.4759,-956.60355 c 0.334,-3.39799 -0.7205,-5.31668 -6.6065,-12.02098 -6.408,-7.2988 -11.1032,-10.59761 -12.7457,-8.95509 -0.3527,0.35274 1.1594,4.41442 3.3603,9.02598 3.0024,6.29086 4.9028,8.7248 7.6105,9.74685 1.9849,0.74921 3.6089,2.27013 3.6089,3.37982 0,5.40626 4.2279,4.36394 4.7725,-1.17659 z"
     id="path4698"
     style="fill:#000000" />
</svg>
