<?xml version="1.0" encoding="UTF-8" standalone="no"?>
<!-- Created with Inkscape (http://www.inkscape.org/) -->

<svg
   xmlns:svg="http://www.w3.org/2000/svg"
   xmlns="http://www.w3.org/2000/svg"
   version="1.1"
   width="100%"
   height="100%"
   viewBox="0 0 312 368.9"
   id="Layer_1"
   xml:space="preserve"><defs
   id="defs7" />
<path
   d="m 216.4,192.8 c 0,0 -1.1,-3.8 -1.2,-4.2 -0.2,-0.4 -1.4,4.2 -1.3,4.5 0.1,0.2 -1.3,2.8 -1.3,2.8 0,0 -1.2,5.4 -1.7,7.3 -0.5,1.9 -1.9,4 -1.9,4 l -4,8.8 -3.5,7.7 c 0,0 -5.2,6.5 -5.2,6.2 0,-0.3 0.9,-3.6 0.9,-3.6 l 2.3,-10 2,-4.2 3.3,-3.9 4.7,-11.6 1.5,-5.6 2.8,-4.5 -0.5,-1.5 -2.4,-3.4 c 0,0 -3.3,7.3 -3.8,8.5 -0.5,1.2 -1.5,1.8 -1.5,1.8 l -4.4,6.5 1.7,-5.6 c 0,0 1.2,-3.2 1.6,-3.8 0.4,-0.6 1.8,-4.1 1.8,-4.1 l 3.6,-7.5 -0.4,-3.2 -0.8,-4 -1.1,-1.9 -1.6,-1.3 -1.8,4.4 -0.9,-3.1 -1.3,-4.3 -1.8,-5.1 -2,-5.2 c 0,0 0.2,-1.8 0.4,-2.3 0.2,-0.5 0.7,-2.4 0.8,-2.8 0.1,-0.4 0.7,-3.1 0.7,-3.1 l 1,-12.6 v -4.2 l -1.4,-2.8 -1.3,-2.7 -1.1,0.8 -2.3,4.2 c 0,0 2.2,-5.8 2.2,-6.2 0.1,-0.3 -1.3,-2 -1.3,-2 0,0 0.1,-2.5 0,-2.8 -0.1,-0.3 -1.3,-2 -1.3,-2 l -1.4,-3.4 -1.2,1.6 -1.3,2.8 -2.8,6.8 -2.8,3.1 3.2,-6.8 3.7,-8.2 1,-5.9 0.2,-2.2 1,-3.3 -1,-3.3 -0.5,-2.1 V 92 l -0.9,-0.8 -1,2.2 -1,4.8 -3.2,6.2 -3.6,9.3 -0.9,3.4 -3.1,6.9 -2.9,6.3 -4.6,7.5 -5.8,13.5 -1,0.4 1.4,-6.4 2.3,-5.9 5.3,-15 2.1,-10.3 1.3,-5.1 0.1,-3.6 0.5,-11.5 -0.1,-2 -0.5,-2.8 -0.5,-2 -1.5,-1 -3.7,-4.4 -1.7,0.3 c 0,0 -0.8,3.8 -0.9,4.2 0,0.4 0.2,2.2 0.2,2.2 l -2.1,7.5 -2.2,9.5 -1.2,6 -1.2,4.3 -0.4,4.5 -2.1,0.4 -0.1,-1.9 0.6,-2.2 -0.2,-1.8 -0.2,-3.6 -0.2,-2.4 0.6,-4.3 0.2,-4.6 0.2,-5.7 -1,-5 -0.7,-4.2 -0.6,-3.2 c 0,0 -1.7,-9.8 -1.8,-9.9 -0.1,0 -1,-4.1 -1,-4.1 l -1.9,-3.2 -3.4,-3.8 -5.2,-4.6 -3.9,-2.5 -2.2,-2.5 -7,-4.6 -0.2,2 -0.4,3 0.5,3.2 -0.2,2.2 -1.5,-2.7 -1.4,-3.6 -1.2,-7 -2.3,-4.6 -2,-2.1 -4.4,-1.3 -2.4,-0.7 -2.4,-0.6 -1.5,-1.8 -1.6,-1.3 -3,-1 -3,0.1 -0.8,3 0.8,3.9 0.8,4.1 -0.4,5.5 0.2,2 c 0,0 -1,0.1 -1,0 0,-0.1 -0.5,-2.2 -0.5,-2.2 l -1.2,-3.5 -2.4,-9.4 -1.9,-3.5 -3.8,-1.1 -3.4,-0.8 -1.8,1.1 0.1,1.7 0.1,2.1 0.1,3.1 v 2.1 c 0,0 0.3,2.2 0.3,2.3 0,0.1 0.5,2.3 0.5,2.3 l -0.1,2.9 c 0,0 -0.5,-0.5 -0.8,-0.9 C 89.6,44.5 88,42.3 88,42.3 l -0.5,-2.4 -0.6,-1.1 -3.4,-7.9 -1.4,-0.8 -0.8,-0.5 -2.4,-0.5 -2.7,0.1 c 0,0 -1.1,-0.5 -1.5,-0.8 C 74.3,28.1 72,28.2 72,28.2 l 0.4,2.2 1,2.9 0.9,2.1 0.7,1.9 0.5,2.1 -0.4,1.3 -1.2,-2.2 -1.2,-2 -1.8,-3.7 -1.5,-0.5 c 0,0 -3.3,0.3 -3.6,0.2 -0.3,0 -1.7,0 -1.7,0 l -2.1,0.4 -0.3,0.9 -0.9,0.2 -2,1 -1.8,1.6 -0.9,1.6 0.1,4.2 3.1,7 3.3,8.4 1.2,6 -0.8,0.4 h -1.3 l -5,-1.2 -4.5,-1.3 -4.5,-1.9 -6.6,-2 -6.7,-1.8 -1.8,1.8 -1.2,3.2 1.6,4.4 3.3,2.3 v 2.8 l 1.8,1.7 -0.2,1.3 c 0,0 -0.8,1.8 -0.8,2.2 0,0.4 0.8,2.7 0.8,2.7 l 0.4,2.3 2.2,3.1 -1.2,1.5 -0.4,1.4 0.2,3.2 0.8,2.4 -0.2,3 -0.7,2.1 -1,4.9 2.4,3.2 5.9,3.2 10.9,5.4 5.6,2.5 2.3,1.4 h -4.5 l -4.2,-0.2 -5.8,-1.1 -5.4,-0.6 h -4.3 l 1.2,1.9 2.1,3.3 4.7,2.7 4.8,2.2 -0.2,1 -2.6,-0.2 -6.7,-0.8 1.2,1.2 3.7,3.1 0.3,2 5.2,4.2 5.7,3.9 7.2,3 3.9,3.4 -3.1,-1.2 -5.4,-2.4 -3.8,-1 -2.8,-0.8 -4.7,-0.9 -2.2,0.4 1.1,1 2.7,1 3,1.3 1.7,1.8 1.9,3 2.2,3.3 5.2,2.6 25.2,13.2 17.6,5.8 20.2,8.2 16.1,7.7 1.8,1.2 0.3,2.1 -2.2,-0.9 -2.7,-1.3 -3,-1.9 -6.2,-3.2 -6.3,-3.7 -10.8,-3.4 -9.7,-4.6 -15.2,-4.9 -21.2,-10.7 -5.6,-3.2 -2.5,-1.2 -1.5,0.2 2.8,3.7 6.5,5.8 11.7,7.8 4.8,3.7 9.8,4.8 10.2,4.3 5.7,3.2 6.5,2.5 6,1.8 24.4,9.6 3,1.2 1.5,2.7 1.5,3.1 -1.4,-0.5 -2.3,-1.9 -4,-2.7 -11.6,-5.2 -12.4,-5.7 -14.2,-4 -16.2,-4.5 -12,-2 -8.4,-0.6 -5.9,-1.5 -1.6,0.4 2.7,2.2 3.2,1.2 4.7,1.7 6.2,2.2 7.8,3.2 7.1,4.6 9.6,4.3 8.7,3.1 4.5,1.8 18.8,12 9.1,5.5 7.3,4 7.1,4.5 1.6,1.5 0.9,2.1 1.3,3.6 -0.9,-0.6 -1.2,-0.7 -2.8,-3.1 -5.2,-5.1 -3.4,-2.1 -13.6,-8.9 -5.2,-2.9 -5.9,-3.9 -8.1,-4.9 h -2.3 v 1.7 l 2.6,2.6 4.5,5 5.6,3.4 7.2,5.9 9.9,7.1 c 0,0 3.8,4.2 4.1,5 0.3,0.8 4,4.9 4,4.9 l 5.9,10.2 2.5,3.8 13.6,19.2 1.8,8 3.1,11.5 3,13.5 1.6,10.1 0.8,11.2 h 4.2 l -0.8,-6.8 -0.7,-4.2 -0.4,-5.3 -1.8,-8 -2.1,-6.6 -2.2,-9.2 -3,-12.6 0.5,-2.5 1.1,-3.3 c 0,0 2.2,-4 2.5,-4.8 0.3,-0.8 1.1,-2.6 1.1,-2.6 l 3.2,-9.8 4.6,-8.6 3.6,-4.6 2.8,-4.3 3.2,-5 2.7,-5.7 4,-5.9 5.1,-14.8 0.7,-4.4 v -3.4 -3.7 z M 84.8,76.6 v -5 l 2.5,10 -2.5,-5 z m 23,30.4 -1.6,-1.9 0.9,-8.6 0.8,3.2 -0.1,7.3 0,0 z m 2.3,25.6 4.8,0.7 5.2,1.7 4.1,1.1 2.2,5.6 -1.8,-1.5 -8.9,-4.9 -5.6,-2.7 z m 15.1,22 -4.1,-2.9 8.8,2.9 3.4,1.5 1,2.7 -6.3,-2.7 -2.8,-1.5 z m 10.8,18 -7.5,-4.2 3.2,0.4 2.6,0.8 c 0,0 2.8,1.4 3,1.6 0.2,0.2 4.4,2.8 4.4,2.8 l 1.3,2.4 -7,-3.8 z m 12.3,-4.3 -0.9,3.4 -1.9,3.1 -2.1,-2.2 2.6,-6.2 1.6,-3.5 2.5,-5.3 v 2.9 l -0.8,3.2 -1,4.6 z m 1.6,17.6 -1.1,-3.4 0.7,-1.2 1.9,-3.8 1.4,-4.1 4.2,-7.7 2.8,-6 1.9,-4.1 v 3.9 l -1.6,3.2 -5.8,13.4 -4.4,9.8 z m 4.1,4 -1.2,1.9 -1.1,-3.1 2.2,-5.5 3.5,-4.2 -3.4,10.9 z m 4.6,32.1 -4.5,-4.1 -2.4,-1.6 c 0,0 -5.3,-4 -5.6,-4.1 l 4.8,1.1 8.9,5 1.4,3.2 0.5,2.2 -3.1,-1.7 z m -0.6,-16.2 4.7,-10.8 2.6,-5.1 -1.1,4.3 -2.6,8.2 -1.8,5.2 -0.6,1.1 -1.2,-2.9 z m 8.1,-3.8 -1.4,4.4 -0.9,3.8 -1.6,6 -1.9,-3.8 0.4,-2.1 2.5,-4.8 2.9,-4.7 v 1.2 z m -4.2,-10.2 c -0.2,0.4 -2.5,5.5 -2.5,5.5 l -2.4,6.9 -1.2,-3.3 0.6,-1.9 1,-2.7 4.2,-9.1 6.8,-13.5 5.1,-12.4 3.6,-8.8 1.5,-0.6 -3.2,9.4 -2.1,6.7 c 0,0 -5.5,11.4 -5.6,11.6 -0.1,0.2 -5.5,11.8 -5.8,12.2 z m 8.8,40.6 -0.5,1.9 -0.9,1.9 -2.1,-6.2 0.5,-2.4 2.4,-3.2 2.1,-4.4 2.4,-6.6 5,-9.9 4.6,-8.2 v 2.1 c 0,0 -4.4,10.3 -4.5,10.5 -0.1,0.2 -1.9,4.6 -1.9,4.6 l -1.9,5.4 -2.8,8.4 -2.4,6.1 z m 4.4,17.4 -1.5,-3.4 1.3,-2 3.7,-5.4 -0.9,3.2 -1.1,4.9 -1.5,2.7 z m 10,-2.4 -2.1,3.4 -2.2,2.9 -2.2,3.8 -1.6,-2.7 2.1,-3.9 2.5,-3.1 0.9,-2.3 2.6,-3.1 1.3,-0.7 1.1,-0.5 -2.4,6.2 z"
   id="path3" />
</svg>